Iansui-Regular.ufo
<glyph name="exclam" format="2">
  <advance height="1000" width="350"/>
  <unicode hex="0021"/>
  <outline>
    <contour>
      <point x="204" y="154"/>
      <point x="195" y="150"/>
      <point x="188" y="150" type="qcurve"/>
      <point x="174" y="150"/>
      <point x="146" y="163"/>
      <point x="146" y="172" type="qcurve"/>
      <point x="146" y="173" type="line"/>
      <point x="148" y="193"/>
      <point x="148" y="212" type="qcurve"/>
      <point x="142" y="599" type="line"/>
      <point x="142" y="638"/>
      <point x="137" y="678" type="qcurve"/>
      <point x="137" y="680" type="line"/>
      <point x="137" y="697"/>
      <point x="163" y="697" type="qcurve"/>
      <point x="182" y="697"/>
      <point x="222" y="678"/>
      <point x="222" y="666" type="qcurve"/>
      <point x="222" y="665" type="line"/>
      <point x="221" y="657"/>
      <point x="217" y="615"/>
      <point x="216" y="594" type="qcurve"/>
      <point x="204" y="208" type="line"/>
      <point x="204" y="158" type="line"/>
    </contour>
    <contour>
      <point x="228" y="1"/>
      <point x="202" y="-24"/>
      <point x="176" y="-24" type="qcurve"/>
      <point x="155" y="-24"/>
      <point x="123" y="14"/>
      <point x="123" y="36" type="qcurve"/>
      <point x="123" y="58"/>
      <point x="150" y="86"/>
      <point x="176" y="86" type="qcurve"/>
      <point x="195" y="86"/>
      <point x="228" y="45"/>
      <point x="228" y="22" type="qcurve"/>
    </contour>
  </outline>
</glyph>
<glyph name="quotedbl" format="2">
  <advance width="350" height="1000"/>
  <unicode hex="0022"/>
  <outline>
    <contour>
      <point x="202" y="699"/>
      <point x="224" y="710"/>
      <point x="239" y="710" type="qcurve"/>
      <point x="254" y="710"/>
      <point x="276" y="699"/>
      <point x="276" y="688" type="qcurve"/>
      <point x="270" y="477" type="line"/>
      <point x="270" y="469"/>
      <point x="252" y="461"/>
      <point x="239" y="461" type="qcurve"/>
      <point x="227" y="461"/>
      <point x="208" y="469"/>
      <point x="208" y="477" type="qcurve"/>
      <point x="202" y="688" type="line"/>
    </contour>
    <contour>
      <point x="74" y="699"/>
      <point x="96" y="710"/>
      <point x="111" y="710" type="qcurve"/>
      <point x="126" y="710"/>
      <point x="148" y="699"/>
      <point x="148" y="688" type="qcurve"/>
      <point x="142" y="477" type="line"/>
      <point x="142" y="469"/>
      <point x="124" y="461"/>
      <point x="111" y="461" type="qcurve"/>
      <point x="99" y="461"/>
      <point x="80" y="469"/>
      <point x="80" y="477" type="qcurve"/>
      <point x="74" y="688" type="line"/>
    </contour>
  </outline>
</glyph>
<glyph name="numbersign" format="2">
  <advance height="1000" width="600"/>
  <unicode hex="0023"/>
  <outline>
    <contour>
      <point x="328" y="0"/>
      <point x="339" y="41"/>
      <point x="341" y="59" type="qcurve"/>
      <point x="359" y="195" type="line"/>
      <point x="210" y="195" type="line"/>
      <point x="191" y="57" type="line"/>
      <point x="189" y="42"/>
      <point x="187" y="16" type="qcurve"/>
      <point x="185" y="-6" type="line"/>
      <point x="184" y="-13"/>
      <point x="161" y="-22"/>
      <point x="147" y="-22" type="qcurve"/>
      <point x="134" y="-22"/>
      <point x="115" y="-14"/>
      <point x="115" y="-8" type="qcurve"/>
      <point x="115" y="-6" type="line"/>
      <point x="127" y="43"/>
      <point x="129" y="59" type="qcurve"/>
      <point x="147" y="195" type="line"/>
      <point x="134" y="195" type="line"/>
      <point x="82" y="195"/>
      <point x="58" y="192" type="qcurve"/>
      <point x="57" y="192" type="line"/>
      <point x="48" y="192"/>
      <point x="37" y="217"/>
      <point x="37" y="231" type="qcurve"/>
      <point x="37" y="255"/>
      <point x="53" y="255" type="qcurve"/>
      <point x="93" y="253"/>
      <point x="135" y="253" type="qcurve"/>
      <point x="155" y="253" type="line"/>
      <point x="182" y="450" type="line"/>
      <point x="160" y="450" type="line"/>
      <point x="110" y="450"/>
      <point x="84" y="447" type="qcurve"/>
      <point x="83" y="447" type="line"/>
      <point x="75" y="447"/>
      <point x="63" y="472"/>
      <point x="63" y="486" type="qcurve"/>
      <point x="63" y="510"/>
      <point x="79" y="510" type="qcurve"/>
      <point x="119" y="508"/>
      <point x="161" y="508" type="qcurve"/>
      <point x="190" y="508" type="line"/>
      <point x="209" y="647" type="line"/>
      <point x="212" y="667"/>
      <point x="213" y="690" type="qcurve"/>
      <point x="213" y="702"/>
      <point x="238" y="702" type="qcurve"/>
      <point x="254" y="702"/>
      <point x="280" y="690"/>
      <point x="280" y="681" type="qcurve"/>
      <point x="280" y="678" type="line"/>
      <point x="272" y="650"/>
      <point x="271" y="645" type="qcurve"/>
      <point x="252" y="508" type="line"/>
      <point x="402" y="508" type="line"/>
      <point x="421" y="647" type="line"/>
      <point x="424" y="667"/>
      <point x="425" y="690" type="qcurve"/>
      <point x="425" y="702"/>
      <point x="450" y="702" type="qcurve"/>
      <point x="466" y="702"/>
      <point x="492" y="690"/>
      <point x="492" y="681" type="qcurve"/>
      <point x="492" y="678" type="line"/>
      <point x="485" y="657"/>
      <point x="483" y="645" type="qcurve"/>
      <point x="464" y="508" type="line"/>
      <point x="481" y="508" type="line"/>
      <point x="510" y="508"/>
      <point x="552" y="511" type="qcurve"/>
      <point x="553" y="511" type="line"/>
      <point x="562" y="511"/>
      <point x="575" y="488"/>
      <point x="575" y="474" type="qcurve"/>
      <point x="575" y="464"/>
      <point x="566" y="449"/>
      <point x="558" y="449" type="qcurve"/>
      <point x="528" y="450"/>
      <point x="480" y="450" type="qcurve"/>
      <point x="456" y="450" type="line"/>
      <point x="430" y="253" type="line"/>
      <point x="455" y="253" type="line"/>
      <point x="484" y="253"/>
      <point x="526" y="256" type="qcurve"/>
      <point x="527" y="256" type="line"/>
      <point x="536" y="256"/>
      <point x="549" y="233"/>
      <point x="549" y="219" type="qcurve"/>
      <point x="549" y="209"/>
      <point x="540" y="194"/>
      <point x="532" y="194" type="qcurve"/>
      <point x="502" y="195"/>
      <point x="454" y="195" type="qcurve"/>
      <point x="422" y="195" type="line"/>
      <point x="403" y="57" type="line"/>
      <point x="399" y="16" type="line"/>
      <point x="397" y="-6" type="line"/>
      <point x="396" y="-13"/>
      <point x="373" y="-22"/>
      <point x="359" y="-22" type="qcurve"/>
      <point x="346" y="-22"/>
      <point x="327" y="-14"/>
      <point x="327" y="-8" type="qcurve"/>
      <point x="327" y="-6" type="line"/>
    </contour>
    <contour>
      <point x="217" y="253" type="line"/>
      <point x="367" y="253" type="line"/>
      <point x="394" y="450" type="line"/>
      <point x="244" y="450" type="line"/>
    </contour>
  </outline>
</glyph>
<glyph name="dollar" format="2">
  <advance height="1000" width="600"/>
  <unicode hex="0024"/>
  <outline>
    <contour>
      <point x="148" y="376"/>
      <point x="68" y="448"/>
      <point x="68" y="511" type="qcurve"/>
      <point x="68" y="554"/>
      <point x="119" y="633"/>
      <point x="211" y="687"/>
      <point x="269" y="694" type="qcurve"/>
      <point x="267" y="746" type="line"/>
      <point x="267" y="755"/>
      <point x="288" y="755" type="qcurve"/>
      <point x="305" y="755"/>
      <point x="338" y="742"/>
      <point x="338" y="732" type="qcurve"/>
      <point x="337" y="695" type="line"/>
      <point x="372" y="691"/>
      <point x="456" y="663"/>
      <point x="515" y="620"/>
      <point x="515" y="596" type="qcurve"/>
      <point x="515" y="578"/>
      <point x="501" y="547"/>
      <point x="490" y="547" type="qcurve"/>
      <point x="482" y="547"/>
      <point x="466" y="565" type="qcurve"/>
      <point x="447" y="590"/>
      <point x="377" y="625"/>
      <point x="336" y="632" type="qcurve"/>
      <point x="336" y="392" type="line"/>
      <point x="361" y="385" type="line"/>
      <point x="456" y="360"/>
      <point x="551" y="257"/>
      <point x="551" y="177" type="qcurve"/>
      <point x="551" y="96"/>
      <point x="436" y="-18"/>
      <point x="336" y="-29" type="qcurve"/>
      <point x="339" y="-86"/>
      <point x="339" y="-129" type="qcurve"/>
      <point x="339" y="-138"/>
      <point x="319" y="-138" type="qcurve"/>
      <point x="302" y="-138"/>
      <point x="268" y="-124"/>
      <point x="268" y="-113" type="qcurve"/>
      <point x="268" y="-95"/>
      <point x="269" y="-80" type="qcurve"/>
      <point x="270" y="-30" type="line"/>
      <point x="197" y="-27"/>
      <point x="86" y="26"/>
      <point x="41" y="77" type="qcurve"/>
      <point x="35" y="83"/>
      <point x="35" y="94" type="qcurve"/>
      <point x="35" y="110"/>
      <point x="61" y="144"/>
      <point x="73" y="144" type="qcurve"/>
      <point x="80" y="144"/>
      <point x="84" y="137" type="qcurve"/>
      <point x="124" y="75"/>
      <point x="229" y="36"/>
      <point x="270" y="32" type="qcurve"/>
      <point x="270" y="344" type="line"/>
      <point x="227" y="355" type="line"/>
    </contour>
    <contour>
      <point x="402" y="44"/>
      <point x="480" y="118"/>
      <point x="480" y="169" type="qcurve"/>
      <point x="480" y="233"/>
      <point x="419" y="303"/>
      <point x="343" y="324" type="qcurve"/>
      <point x="336" y="326" type="line"/>
      <point x="336" y="34" type="line"/>
    </contour>
    <contour>
      <point x="211" y="622"/>
      <point x="140" y="551"/>
      <point x="140" y="509" type="qcurve"/>
      <point x="140" y="482"/>
      <point x="160" y="449"/>
      <point x="208" y="425"/>
      <point x="254" y="413" type="qcurve"/>
      <point x="270" y="409" type="line"/>
      <point x="270" y="631" type="line"/>
    </contour>
  </outline>
</glyph>
<glyph name="percent" format="2">
  <advance width="800" height="1000"/>
  <unicode hex="0025"/>
  <outline>
    <contour>
      <point x="112" y="683"/>
      <point x="121" y="683" type="qcurve"/>
      <point x="127" y="683"/>
      <point x="131" y="679" type="qcurve"/>
      <point x="145" y="693"/>
      <point x="188" y="710"/>
      <point x="211" y="710" type="qcurve"/>
      <point x="280" y="710"/>
      <point x="356" y="609"/>
      <point x="356" y="532" type="qcurve"/>
      <point x="356" y="456"/>
      <point x="280" y="356"/>
      <point x="208" y="356" type="qcurve"/>
      <point x="132" y="356"/>
      <point x="54" y="451"/>
      <point x="54" y="532" type="qcurve"/>
      <point x="54" y="574"/>
      <point x="80" y="651"/>
      <point x="105" y="675" type="qcurve"/>
    </contour>
    <contour>
      <point x="581" y="686"/>
      <point x="592" y="709" type="qcurve"/>
      <point x="596" y="718"/>
      <point x="605" y="718" type="qcurve"/>
      <point x="619" y="718"/>
      <point x="651" y="679"/>
      <point x="651" y="666" type="qcurve"/>
      <point x="651" y="664"/>
      <point x="649" y="660" type="qcurve"/>
      <point x="615" y="616"/>
      <point x="603" y="597" type="qcurve"/>
      <point x="229" y="15" type="line"/>
      <point x="210" y="-16"/>
      <point x="192" y="-48" type="qcurve"/>
      <point x="188" y="-55"/>
      <point x="181" y="-55" type="qcurve"/>
      <point x="169" y="-55"/>
      <point x="138" y="-21"/>
      <point x="138" y="-6" type="qcurve"/>
      <point x="138" y="2"/>
      <point x="142" y="6" type="qcurve"/>
      <point x="162" y="29"/>
      <point x="180" y="56" type="qcurve"/>
      <point x="550" y="636" type="line"/>
    </contour>
    <contour>
      <point x="502" y="294"/>
      <point x="511" y="294" type="qcurve"/>
      <point x="517" y="294"/>
      <point x="521" y="290" type="qcurve"/>
      <point x="535" y="304"/>
      <point x="578" y="321"/>
      <point x="601" y="321" type="qcurve"/>
      <point x="670" y="321"/>
      <point x="746" y="220"/>
      <point x="746" y="143" type="qcurve"/>
      <point x="746" y="67"/>
      <point x="670" y="-33"/>
      <point x="598" y="-33" type="qcurve"/>
      <point x="522" y="-33"/>
      <point x="444" y="62"/>
      <point x="444" y="143" type="qcurve"/>
      <point x="444" y="185"/>
      <point x="470" y="262"/>
      <point x="495" y="286" type="qcurve"/>
    </contour>
    <contour>
      <point x="250" y="411"/>
      <point x="295" y="477"/>
      <point x="295" y="536" type="qcurve"/>
      <point x="295" y="587"/>
      <point x="251" y="655"/>
      <point x="208" y="655" type="qcurve"/>
      <point x="170" y="655"/>
      <point x="116" y="591"/>
      <point x="116" y="532" type="qcurve"/>
      <point x="116" y="411"/>
      <point x="206" y="411" type="qcurve"/>
    </contour>
    <contour>
      <point x="641" y="22"/>
      <point x="685" y="88"/>
      <point x="685" y="147" type="qcurve"/>
      <point x="685" y="198"/>
      <point x="641" y="266"/>
      <point x="598" y="266" type="qcurve"/>
      <point x="560" y="266"/>
      <point x="506" y="203"/>
      <point x="506" y="143" type="qcurve"/>
      <point x="506" y="91"/>
      <point x="549" y="22"/>
      <point x="596" y="22" type="qcurve"/>
    </contour>
  </outline>
</glyph>
<glyph name="ampersand" format="2">
  <advance width="700" height="1000"/>
  <unicode hex="0026"/>
  <outline>
    <contour>
      <point x="443" y="15"/>
      <point x="324" y="-32"/>
      <point x="263" y="-32" type="qcurve"/>
      <point x="154" y="-32"/>
      <point x="52" y="57"/>
      <point x="52" y="138" type="qcurve"/>
      <point x="52" y="212"/>
      <point x="132" y="329"/>
      <point x="208" y="383" type="qcurve"/>
      <point x="176" y="425"/>
      <point x="146" y="507"/>
      <point x="146" y="543" type="qcurve"/>
      <point x="146" y="587"/>
      <point x="189" y="657"/>
      <point x="263" y="697"/>
      <point x="307" y="697" type="qcurve"/>
      <point x="371" y="697"/>
      <point x="442" y="635"/>
      <point x="442" y="576" type="qcurve"/>
      <point x="442" y="522"/>
      <point x="359" y="417"/>
      <point x="295" y="372" type="qcurve"/>
      <point x="404" y="238"/>
      <point x="484" y="156" type="qcurve"/>
      <point x="514" y="197"/>
      <point x="559" y="305"/>
      <point x="570" y="349" type="qcurve"/>
      <point x="576" y="372"/>
      <point x="583" y="389"/>
      <point x="591" y="389" type="qcurve"/>
      <point x="597" y="389"/>
      <point x="622" y="377"/>
      <point x="641" y="357"/>
      <point x="641" y="346" type="qcurve"/>
      <point x="641" y="335"/>
      <point x="609" y="254"/>
      <point x="557" y="152"/>
      <point x="528" y="111" type="qcurve"/>
      <point x="554" y="84"/>
      <point x="579" y="60" type="qcurve"/>
      <point x="596" y="45"/>
      <point x="645" y="13"/>
      <point x="659" y="8" type="qcurve"/>
      <point x="678" y="1"/>
      <point x="704" y="-15"/>
      <point x="704" y="-21" type="qcurve"/>
      <point x="704" y="-29"/>
      <point x="676" y="-29" type="qcurve"/>
      <point x="630" y="-29"/>
      <point x="571" y="-10"/>
      <point x="527" y="25"/>
      <point x="488" y="64" type="qcurve"/>
    </contour>
    <contour>
      <point x="310" y="454"/>
      <point x="375" y="537"/>
      <point x="375" y="572" type="qcurve"/>
      <point x="375" y="611"/>
      <point x="344" y="645"/>
      <point x="307" y="645" type="qcurve"/>
      <point x="283" y="645"/>
      <point x="239" y="617"/>
      <point x="212" y="569"/>
      <point x="212" y="539" type="qcurve"/>
      <point x="212" y="509"/>
      <point x="232" y="452"/>
      <point x="257" y="420" type="qcurve"/>
    </contour>
    <contour>
      <point x="364" y="193"/>
      <point x="245" y="336" type="qcurve"/>
      <point x="186" y="296"/>
      <point x="118" y="201"/>
      <point x="118" y="140" type="qcurve"/>
      <point x="118" y="88"/>
      <point x="194" y="24"/>
      <point x="263" y="24" type="qcurve"/>
      <point x="308" y="24"/>
      <point x="405" y="66"/>
      <point x="446" y="107" type="qcurve"/>
    </contour>
  </outline>
</glyph>
<glyph name="parenleft" format="2">
  <advance width="350" height="1000"/>
  <unicode hex="0028"/>
  <outline>
    <contour>
      <point x="281" y="-174"/>
      <point x="181" y="-50"/>
      <point x="100" y="152"/>
      <point x="100" y="271" type="qcurve"/>
      <point x="100" y="397"/>
      <point x="181" y="627"/>
      <point x="283" y="776"/>
      <point x="304" y="776" type="qcurve"/>
      <point x="312" y="776"/>
      <point x="323" y="766"/>
      <point x="323" y="759" type="qcurve"/>
      <point x="323" y="751"/>
      <point x="318" y="746" type="qcurve"/>
      <point x="274" y="694"/>
      <point x="209" y="525"/>
      <point x="175" y="343"/>
      <point x="175" y="271" type="qcurve"/>
      <point x="175" y="203"/>
      <point x="207" y="44"/>
      <point x="267" y="-96"/>
      <point x="307" y="-136" type="qcurve"/>
      <point x="315" y="-144"/>
      <point x="315" y="-155" type="qcurve"/>
      <point x="315" y="-163"/>
      <point x="307" y="-174"/>
      <point x="300" y="-174" type="qcurve"/>
    </contour>
  </outline>
</glyph>
<glyph name="parenright" format="2">
  <advance height="1000" width="350"/>
  <unicode hex="0029"/>
  <outline>
    <contour>
      <point x="42" y="-174"/>
      <point x="34" y="-163"/>
      <point x="34" y="-155" type="qcurve"/>
      <point x="34" y="-144"/>
      <point x="42" y="-136" type="qcurve"/>
      <point x="82" y="-96"/>
      <point x="142" y="44"/>
      <point x="174" y="203"/>
      <point x="174" y="271" type="qcurve"/>
      <point x="174" y="343"/>
      <point x="140" y="525"/>
      <point x="75" y="694"/>
      <point x="31" y="746" type="qcurve"/>
      <point x="26" y="751"/>
      <point x="26" y="759" type="qcurve"/>
      <point x="26" y="766"/>
      <point x="37" y="776"/>
      <point x="45" y="776" type="qcurve"/>
      <point x="66" y="776"/>
      <point x="168" y="627"/>
      <point x="249" y="397"/>
      <point x="249" y="271" type="qcurve"/>
      <point x="249" y="152"/>
      <point x="169" y="-50"/>
      <point x="68" y="-174"/>
      <point x="49" y="-174" type="qcurve"/>
    </contour>
  </outline>
</glyph>
<glyph name="asterisk" format="2">
  <advance width="500" height="1000"/>
  <unicode hex="002A"/>
  <outline>
    <contour>
      <point x="328" y="468"/>
      <point x="355" y="441" type="qcurve"/>
      <point x="356" y="440"/>
      <point x="370" y="427"/>
      <point x="370" y="418" type="qcurve"/>
      <point x="370" y="405"/>
      <point x="334" y="378"/>
      <point x="321" y="378" type="qcurve"/>
      <point x="311" y="378"/>
      <point x="300" y="391"/>
      <point x="296" y="402" type="qcurve"/>
      <point x="273" y="450" type="line"/>
      <point x="269" y="457"/>
      <point x="251" y="493" type="qcurve"/>
      <point x="219" y="439"/>
      <point x="204" y="399" type="qcurve"/>
      <point x="195" y="376"/>
      <point x="179" y="376" type="qcurve"/>
      <point x="164" y="376"/>
      <point x="131" y="402"/>
      <point x="131" y="415" type="qcurve"/>
      <point x="131" y="425"/>
      <point x="143" y="439" type="qcurve"/>
      <point x="185" y="487"/>
      <point x="209" y="518" type="qcurve"/>
      <point x="157" y="524"/>
      <point x="115" y="526" type="qcurve"/>
      <point x="101" y="527"/>
      <point x="84" y="536"/>
      <point x="84" y="552" type="qcurve"/>
      <point x="84" y="570"/>
      <point x="98" y="602"/>
      <point x="112" y="602" type="qcurve"/>
      <point x="118" y="602"/>
      <point x="134" y="595" type="qcurve"/>
      <point x="175" y="577"/>
      <point x="225" y="560" type="qcurve"/>
      <point x="219" y="613"/>
      <point x="210" y="661" type="qcurve"/>
      <point x="208" y="669"/>
      <point x="208" y="676" type="qcurve"/>
      <point x="208" y="699"/>
      <point x="246" y="699" type="qcurve"/>
      <point x="249" y="699" type="line"/>
      <point x="268" y="699"/>
      <point x="282" y="686"/>
      <point x="282" y="675" type="qcurve"/>
      <point x="281" y="661" type="line"/>
      <point x="274" y="589"/>
      <point x="272" y="563" type="qcurve"/>
      <point x="339" y="594"/>
      <point x="367" y="611" type="qcurve"/>
      <point x="378" y="618"/>
      <point x="388" y="618" type="qcurve"/>
      <point x="401" y="618"/>
      <point x="419" y="586"/>
      <point x="419" y="569" type="qcurve"/>
      <point x="419" y="558"/>
      <point x="405" y="546"/>
      <point x="389" y="543" type="qcurve"/>
      <point x="287" y="522" type="line"/>
    </contour>
  </outline>
</glyph>
<glyph name="plus" format="2">
  <advance height="1000" width="600"/>
  <unicode hex="002B"/>
  <outline>
    <contour>
      <point x="271" y="49"/>
      <point x="271" y="75" type="qcurve"/>
      <point x="271" y="207" type="line"/>
      <point x="148" y="207" type="line"/>
      <point x="100" y="207"/>
      <point x="76" y="204" type="qcurve"/>
      <point x="74" y="204" type="line"/>
      <point x="65" y="204"/>
      <point x="51" y="228"/>
      <point x="51" y="242" type="qcurve"/>
      <point x="51" y="253"/>
      <point x="61" y="267"/>
      <point x="71" y="267" type="qcurve"/>
      <point x="109" y="265"/>
      <point x="149" y="265" type="qcurve"/>
      <point x="271" y="265" type="line"/>
      <point x="271" y="382" type="line"/>
      <point x="271" y="422"/>
      <point x="269" y="460" type="qcurve"/>
      <point x="269" y="470"/>
      <point x="283" y="480"/>
      <point x="294" y="480" type="qcurve"/>
      <point x="308" y="480"/>
      <point x="332" y="466"/>
      <point x="332" y="457" type="qcurve"/>
      <point x="332" y="455" type="line"/>
      <point x="329" y="431"/>
      <point x="329" y="383" type="qcurve"/>
      <point x="329" y="265" type="line"/>
      <point x="455" y="265" type="line"/>
      <point x="482" y="265"/>
      <point x="522" y="268" type="qcurve"/>
      <point x="523" y="268" type="line"/>
      <point x="534" y="268"/>
      <point x="548" y="246"/>
      <point x="548" y="232" type="qcurve"/>
      <point x="548" y="221"/>
      <point x="538" y="206"/>
      <point x="528" y="206" type="qcurve"/>
      <point x="454" y="207" type="line"/>
      <point x="329" y="207" type="line"/>
      <point x="329" y="76" type="line"/>
      <point x="330" y="2" type="line"/>
      <point x="330" y="-8"/>
      <point x="314" y="-18"/>
      <point x="303" y="-18" type="qcurve"/>
      <point x="289" y="-18"/>
      <point x="268" y="-4"/>
      <point x="268" y="7" type="qcurve"/>
      <point x="268" y="8" type="line"/>
    </contour>
  </outline>
</glyph>
<glyph name="comma" format="2">
  <advance width="350" height="1000"/>
  <unicode hex="002C"/>
  <outline>
    <contour>
      <point x="231" y="-15"/>
      <point x="188" y="-77"/>
      <point x="132" y="-119"/>
      <point x="115" y="-119" type="qcurve"/>
      <point x="109" y="-119"/>
      <point x="101" y="-111"/>
      <point x="101" y="-105" type="qcurve"/>
      <point x="101" y="-95"/>
      <point x="108" y="-91" type="qcurve"/>
      <point x="124" y="-79"/>
      <point x="158" y="-39"/>
      <point x="164" y="-23" type="qcurve"/>
      <point x="158" y="-21"/>
      <point x="146" y="-16"/>
      <point x="143" y="-14" type="qcurve"/>
      <point x="117" y="8"/>
      <point x="117" y="36" type="qcurve"/>
      <point x="117" y="59"/>
      <point x="151" y="87"/>
      <point x="175" y="87" type="qcurve"/>
      <point x="196" y="87"/>
      <point x="228" y="49"/>
      <point x="231" y="23" type="qcurve"/>
      <point x="231" y="15" type="line"/>
    </contour>
  </outline>
</glyph>
<glyph name="period" format="2">
  <advance height="1000" width="350"/>
  <unicode hex="002E"/>
  <outline>
    <contour>
      <point x="238" y="5"/>
      <point x="201" y="-29"/>
      <point x="180" y="-29" type="qcurve"/>
      <point x="158" y="-29"/>
      <point x="123" y="14"/>
      <point x="123" y="40" type="qcurve"/>
      <point x="123" y="63"/>
      <point x="156" y="95"/>
      <point x="180" y="95" type="qcurve"/>
      <point x="201" y="95"/>
      <point x="238" y="52"/>
      <point x="238" y="26" type="qcurve"/>
    </contour>
  </outline>
</glyph>
<glyph name="zero" format="2">
  <advance height="1000" width="600"/>
  <unicode hex="0030"/>
  <outline>
    <contour>
      <point x="250" y="698"/>
      <point x="313" y="698" type="qcurve"/>
      <point x="417" y="698"/>
      <point x="528" y="500"/>
      <point x="528" y="339" type="qcurve"/>
      <point x="528" y="238"/>
      <point x="476" y="69"/>
      <point x="374" y="-33"/>
      <point x="300" y="-33" type="qcurve"/>
      <point x="182" y="-33"/>
      <point x="73" y="164"/>
      <point x="73" y="322" type="qcurve"/>
      <point x="73" y="406"/>
      <point x="108" y="554"/>
      <point x="157" y="644"/>
      <point x="174" y="644" type="qcurve"/>
      <point x="184" y="644"/>
      <point x="194" y="632" type="qcurve"/>
    </contour>
    <contour>
      <point x="377" y="30"/>
      <point x="456" y="204"/>
      <point x="456" y="345" type="qcurve"/>
      <point x="456" y="471"/>
      <point x="387" y="635"/>
      <point x="309" y="635" type="qcurve"/>
      <point x="274" y="635"/>
      <point x="197" y="561"/>
      <point x="145" y="419"/>
      <point x="145" y="324" type="qcurve"/>
      <point x="145" y="188"/>
      <point x="209" y="30"/>
      <point x="297" y="30" type="qcurve"/>
    </contour>
  </outline>
</glyph>
<glyph name="one" format="2">
  <advance height="1000" width="600"/>
  <unicode hex="0031"/>
  <outline>
    <contour>
      <point x="244" y="571"/>
      <point x="184" y="557" type="qcurve"/>
      <point x="182" y="556"/>
      <point x="176" y="556" type="qcurve"/>
      <point x="162" y="556"/>
      <point x="133" y="572"/>
      <point x="133" y="580" type="qcurve"/>
      <point x="133" y="588"/>
      <point x="144" y="592" type="qcurve"/>
      <point x="209" y="617"/>
      <point x="265" y="660" type="qcurve"/>
      <point x="269" y="664"/>
      <point x="298" y="695"/>
      <point x="309" y="695" type="qcurve"/>
      <point x="323" y="695"/>
      <point x="358" y="670"/>
      <point x="358" y="656" type="qcurve"/>
      <point x="358" y="651"/>
      <point x="356" y="631" type="qcurve"/>
      <point x="352" y="603"/>
      <point x="352" y="585" type="qcurve"/>
      <point x="352" y="96" type="line"/>
      <point x="352" y="38"/>
      <point x="354" y="-16" type="qcurve"/>
      <point x="354" y="-26"/>
      <point x="333" y="-26" type="qcurve"/>
      <point x="314" y="-26"/>
      <point x="277" y="-10"/>
      <point x="277" y="2" type="qcurve"/>
      <point x="279" y="90" type="line"/>
      <point x="279" y="591" type="line"/>
    </contour>
  </outline>
</glyph>
<glyph name="two" format="2">
  <advance height="1000" width="600"/>
  <unicode hex="0032"/>
  <outline>
    <contour>
      <point x="82" y="-19"/>
      <point x="57" y="12"/>
      <point x="57" y="29" type="qcurve"/>
      <point x="57" y="37"/>
      <point x="60" y="43" type="qcurve"/>
      <point x="66" y="51"/>
      <point x="80" y="68"/>
      <point x="83" y="73" type="qcurve"/>
      <point x="114" y="125"/>
      <point x="239" y="264"/>
      <point x="317" y="329" type="qcurve"/>
      <point x="384" y="384"/>
      <point x="450" y="483"/>
      <point x="450" y="532" type="qcurve"/>
      <point x="450" y="579"/>
      <point x="388" y="634"/>
      <point x="328" y="634" type="qcurve"/>
      <point x="269" y="634"/>
      <point x="189" y="581"/>
      <point x="171" y="536" type="qcurve"/>
      <point x="167" y="526"/>
      <point x="148" y="510"/>
      <point x="137" y="510" type="qcurve"/>
      <point x="123" y="510"/>
      <point x="98" y="543"/>
      <point x="98" y="555" type="qcurve"/>
      <point x="98" y="573"/>
      <point x="153" y="643"/>
      <point x="258" y="698"/>
      <point x="330" y="698" type="qcurve"/>
      <point x="419" y="698"/>
      <point x="524" y="606"/>
      <point x="524" y="532" type="qcurve"/>
      <point x="524" y="471"/>
      <point x="441" y="347"/>
      <point x="362" y="282" type="qcurve"/>
      <point x="214" y="162"/>
      <point x="145" y="49" type="qcurve"/>
      <point x="195" y="54"/>
      <point x="294" y="54" type="qcurve"/>
      <point x="440" y="53" type="line"/>
      <point x="505" y="54" type="line"/>
      <point x="517" y="54"/>
      <point x="539" y="19"/>
      <point x="539" y="2" type="qcurve"/>
      <point x="539" y="-16"/>
      <point x="524" y="-16" type="qcurve"/>
      <point x="490" y="-14" type="line"/>
      <point x="474" y="-12"/>
      <point x="440" y="-10" type="qcurve"/>
      <point x="399" y="-8"/>
      <point x="286" y="-8" type="qcurve"/>
      <point x="218" y="-8"/>
      <point x="148" y="-11"/>
      <point x="103" y="-19" type="qcurve"/>
      <point x="98" y="-19" type="line"/>
    </contour>
  </outline>
</glyph>
<glyph name="three" format="2">
  <advance height="1000" width="600"/>
  <unicode hex="0033"/>
  <outline>
    <contour>
      <point x="419" y="376"/>
      <point x="494" y="333"/>
      <point x="537" y="255"/>
      <point x="537" y="203" type="qcurve"/>
      <point x="537" y="137"/>
      <point x="479" y="30"/>
      <point x="360" y="-33"/>
      <point x="272" y="-33" type="qcurve"/>
      <point x="208" y="-33"/>
      <point x="109" y="7"/>
      <point x="67" y="48" type="qcurve"/>
      <point x="59" y="56"/>
      <point x="59" y="69" type="qcurve"/>
      <point x="59" y="87"/>
      <point x="80" y="122"/>
      <point x="92" y="122" type="qcurve"/>
      <point x="97" y="122"/>
      <point x="103" y="116" type="qcurve"/>
      <point x="138" y="73"/>
      <point x="217" y="30"/>
      <point x="272" y="30" type="qcurve"/>
      <point x="369" y="30"/>
      <point x="466" y="128"/>
      <point x="466" y="202" type="qcurve"/>
      <point x="466" y="262"/>
      <point x="381" y="337"/>
      <point x="315" y="337" type="qcurve"/>
      <point x="301" y="337"/>
      <point x="250" y="332"/>
      <point x="238" y="329" type="qcurve"/>
      <point x="233" y="328" type="line"/>
      <point x="220" y="328"/>
      <point x="199" y="358"/>
      <point x="199" y="373" type="qcurve"/>
      <point x="199" y="389"/>
      <point x="211" y="390" type="qcurve"/>
      <point x="307" y="399"/>
      <point x="435" y="479"/>
      <point x="435" y="536" type="qcurve"/>
      <point x="435" y="585"/>
      <point x="376" y="636"/>
      <point x="318" y="636" type="qcurve"/>
      <point x="271" y="636"/>
      <point x="189" y="597"/>
      <point x="150" y="555" type="qcurve"/>
      <point x="140" y="542"/>
      <point x="129" y="542" type="qcurve"/>
      <point x="126" y="542"/>
      <point x="109" y="554"/>
      <point x="95" y="574"/>
      <point x="95" y="585" type="qcurve"/>
      <point x="95" y="599"/>
      <point x="106" y="608" type="qcurve"/>
      <point x="191" y="698"/>
      <point x="316" y="698" type="qcurve"/>
      <point x="402" y="698"/>
      <point x="505" y="615"/>
      <point x="505" y="543" type="qcurve"/>
      <point x="505" y="483"/>
      <point x="435" y="396"/>
      <point x="373" y="377" type="qcurve"/>
    </contour>
  </outline>
</glyph>
<glyph name="four" format="2">
  <advance width="600" height="1000"/>
  <unicode hex="0034"/>
  <outline>
    <contour>
      <point x="447" y="65"/>
      <point x="449" y="31" type="qcurve"/>
      <point x="451" y="-7"/>
      <point x="451" y="-16" type="qcurve"/>
      <point x="451" y="-26"/>
      <point x="430" y="-26" type="qcurve"/>
      <point x="412" y="-26"/>
      <point x="376" y="-10"/>
      <point x="376" y="2" type="qcurve"/>
      <point x="378" y="90" type="line"/>
      <point x="378" y="142" type="line"/>
      <point x="141" y="130" type="line"/>
      <point x="125" y="130"/>
      <point x="104" y="124" type="qcurve"/>
      <point x="102" y="123"/>
      <point x="97" y="123" type="qcurve"/>
      <point x="81" y="123"/>
      <point x="51" y="152"/>
      <point x="51" y="170" type="qcurve"/>
      <point x="51" y="181"/>
      <point x="58" y="191" type="qcurve"/>
      <point x="75" y="213" type="line"/>
      <point x="90" y="233"/>
      <point x="93" y="237" type="qcurve"/>
      <point x="242" y="470"/>
      <point x="340" y="640"/>
      <point x="359" y="689" type="qcurve"/>
      <point x="362" y="696"/>
      <point x="369" y="696" type="qcurve"/>
      <point x="383" y="696"/>
      <point x="420" y="658"/>
      <point x="420" y="642" type="qcurve"/>
      <point x="420" y="638"/>
      <point x="417" y="633" type="qcurve"/>
      <point x="381" y="577" type="line"/>
      <point x="224" y="321"/>
      <point x="135" y="191" type="qcurve"/>
      <point x="378" y="202" type="line"/>
      <point x="378" y="403" type="line"/>
      <point x="377" y="452" type="line"/>
      <point x="375" y="510" type="line"/>
      <point x="375" y="520"/>
      <point x="395" y="520" type="qcurve"/>
      <point x="413" y="520"/>
      <point x="449" y="504"/>
      <point x="449" y="492" type="qcurve"/>
      <point x="449" y="471"/>
      <point x="448" y="456" type="qcurve"/>
      <point x="447" y="403" type="line"/>
      <point x="447" y="205" type="line"/>
      <point x="465" y="206" type="line"/>
      <point x="499" y="208"/>
      <point x="510" y="210" type="qcurve"/>
      <point x="538" y="212" type="line"/>
      <point x="550" y="212"/>
      <point x="570" y="176"/>
      <point x="570" y="160" type="qcurve"/>
      <point x="570" y="144"/>
      <point x="559" y="144" type="qcurve"/>
      <point x="545" y="144"/>
      <point x="534" y="145" type="qcurve"/>
      <point x="466" y="146" type="line"/>
      <point x="447" y="145" type="line"/>
      <point x="447" y="88" type="line"/>
    </contour>
  </outline>
</glyph>
<glyph name="five" format="2">
  <advance height="1000" width="600"/>
  <unicode hex="0035"/>
  <outline>
    <contour>
      <point x="341" y="30"/>
      <point x="426" y="78"/>
      <point x="468" y="159"/>
      <point x="468" y="208" type="qcurve"/>
      <point x="468" y="282"/>
      <point x="381" y="366"/>
      <point x="313" y="367" type="qcurve"/>
      <point x="309" y="367" type="line"/>
      <point x="252" y="367"/>
      <point x="180" y="329"/>
      <point x="138" y="291" type="qcurve"/>
      <point x="135" y="288"/>
      <point x="129" y="288" type="qcurve"/>
      <point x="116" y="288"/>
      <point x="91" y="317"/>
      <point x="91" y="336" type="qcurve"/>
      <point x="91" y="341"/>
      <point x="96" y="359"/>
      <point x="102" y="381" type="qcurve"/>
      <point x="140" y="621" type="line"/>
      <point x="142" y="635"/>
      <point x="142" y="664" type="qcurve"/>
      <point x="142" y="677"/>
      <point x="159" y="677" type="qcurve"/>
      <point x="175" y="677"/>
      <point x="199" y="666" type="qcurve"/>
      <point x="407" y="681" type="line"/>
      <point x="451" y="683"/>
      <point x="474" y="687" type="qcurve"/>
      <point x="476" y="687" type="line"/>
      <point x="486" y="687"/>
      <point x="506" y="653"/>
      <point x="506" y="638" type="qcurve"/>
      <point x="506" y="622"/>
      <point x="494" y="622" type="qcurve"/>
      <point x="471" y="621" type="line"/>
      <point x="415" y="618" type="line"/>
      <point x="203" y="602" type="line"/>
      <point x="165" y="378" type="line"/>
      <point x="228" y="427"/>
      <point x="313" y="427" type="qcurve"/>
      <point x="322" y="427" type="line"/>
      <point x="379" y="426"/>
      <point x="477" y="373"/>
      <point x="537" y="275"/>
      <point x="537" y="209" type="qcurve"/>
      <point x="537" y="142"/>
      <point x="482" y="32"/>
      <point x="365" y="-34"/>
      <point x="278" y="-34" type="qcurve"/>
      <point x="216" y="-34"/>
      <point x="111" y="16"/>
      <point x="72" y="59" type="qcurve"/>
      <point x="65" y="66"/>
      <point x="65" y="80" type="qcurve"/>
      <point x="65" y="99"/>
      <point x="86" y="136"/>
      <point x="98" y="136" type="qcurve"/>
      <point x="105" y="136"/>
      <point x="109" y="129" type="qcurve"/>
      <point x="138" y="86"/>
      <point x="224" y="31"/>
      <point x="278" y="30" type="qcurve"/>
      <point x="280" y="30" type="line"/>
    </contour>
  </outline>
</glyph>
<glyph name="six" format="2">
  <advance width="600" height="1000"/>
  <unicode hex="0036"/>
  <outline>
    <contour>
      <point x="236" y="421"/>
      <point x="320" y="421" type="qcurve"/>
      <point x="380" y="421"/>
      <point x="481" y="366"/>
      <point x="541" y="271"/>
      <point x="541" y="212" type="qcurve"/>
      <point x="541" y="145"/>
      <point x="487" y="34"/>
      <point x="379" y="-32"/>
      <point x="301" y="-32" type="qcurve"/>
      <point x="230" y="-32"/>
      <point x="122" y="25"/>
      <point x="63" y="121"/>
      <point x="63" y="180" type="qcurve"/>
      <point x="63" y="244"/>
      <point x="111" y="381"/>
      <point x="203" y="543"/>
      <point x="284" y="665" type="qcurve"/>
      <point x="286" y="669"/>
      <point x="291" y="681"/>
      <point x="294" y="686" type="qcurve"/>
      <point x="302" y="699"/>
      <point x="326" y="699" type="qcurve"/>
      <point x="341" y="699"/>
      <point x="376" y="688"/>
      <point x="376" y="673" type="qcurve"/>
      <point x="376" y="663"/>
      <point x="366" y="653" type="qcurve"/>
      <point x="295" y="572"/>
      <point x="195" y="410"/>
      <point x="173" y="367" type="qcurve"/>
    </contour>
    <contour>
      <point x="381" y="29"/>
      <point x="470" y="129"/>
      <point x="470" y="209" type="qcurve"/>
      <point x="470" y="250"/>
      <point x="432" y="319"/>
      <point x="362" y="361"/>
      <point x="317" y="361" type="qcurve"/>
      <point x="261" y="361"/>
      <point x="178" y="313"/>
      <point x="134" y="232"/>
      <point x="134" y="182" type="qcurve"/>
      <point x="134" y="113"/>
      <point x="223" y="29"/>
      <point x="301" y="29" type="qcurve"/>
    </contour>
  </outline>
</glyph>
<glyph name="seven" format="2">
  <advance height="1000" width="600"/>
  <unicode hex="0037"/>
  <outline>
    <contour>
      <point x="154" y="595"/>
      <point x="146" y="593" type="qcurve"/>
      <point x="146" y="561" type="line"/>
      <point x="146" y="535"/>
      <point x="148" y="493" type="qcurve"/>
      <point x="149" y="455" type="line"/>
      <point x="149" y="450"/>
      <point x="138" y="444"/>
      <point x="129" y="444" type="qcurve"/>
      <point x="111" y="444"/>
      <point x="77" y="461"/>
      <point x="77" y="473" type="qcurve"/>
      <point x="77" y="489"/>
      <point x="78" y="501" type="qcurve"/>
      <point x="79" y="562" type="line"/>
      <point x="79" y="594" type="line"/>
      <point x="79" y="615"/>
      <point x="77" y="631" type="qcurve"/>
      <point x="75" y="655" type="line"/>
      <point x="75" y="662"/>
      <point x="80" y="669"/>
      <point x="88" y="669" type="qcurve"/>
      <point x="97" y="669"/>
      <point x="123" y="662"/>
      <point x="132" y="658" type="qcurve"/>
      <point x="136" y="658" type="line"/>
      <point x="440" y="680" type="line"/>
      <point x="448" y="680"/>
      <point x="476" y="687"/>
      <point x="482" y="687" type="qcurve"/>
      <point x="485" y="687" type="line"/>
      <point x="498" y="687"/>
      <point x="530" y="656"/>
      <point x="530" y="642" type="qcurve"/>
      <point x="529" y="638" type="line"/>
      <point x="526" y="628"/>
      <point x="508" y="599"/>
      <point x="504" y="592" type="qcurve"/>
      <point x="457" y="501"/>
      <point x="296" y="145"/>
      <point x="254" y="-10" type="qcurve"/>
      <point x="251" y="-26"/>
      <point x="225" y="-26" type="qcurve"/>
      <point x="196" y="-26"/>
      <point x="178" y="-9"/>
      <point x="178" y="0" type="qcurve"/>
      <point x="178" y="29"/>
      <point x="375" y="487"/>
      <point x="442" y="620" type="qcurve"/>
      <point x="157" y="595" type="line"/>
    </contour>
  </outline>
</glyph>
<glyph name="eight" format="2">
  <advance width="600" height="1000"/>
  <unicode hex="0038"/>
  <outline>
    <contour>
      <point x="439" y="344"/>
      <point x="529" y="243"/>
      <point x="529" y="167" type="qcurve"/>
      <point x="529" y="75"/>
      <point x="397" y="-32"/>
      <point x="281" y="-32" type="qcurve"/>
      <point x="214" y="-32"/>
      <point x="112" y="18"/>
      <point x="57" y="104"/>
      <point x="57" y="158" type="qcurve"/>
      <point x="57" y="218"/>
      <point x="145" y="325"/>
      <point x="222" y="375" type="qcurve"/>
      <point x="155" y="410"/>
      <point x="91" y="483"/>
      <point x="91" y="530" type="qcurve"/>
      <point x="91" y="574"/>
      <point x="144" y="651"/>
      <point x="240" y="697"/>
      <point x="302" y="697" type="qcurve"/>
      <point x="359" y="697"/>
      <point x="445" y="652"/>
      <point x="493" y="595"/>
      <point x="493" y="582" type="qcurve"/>
      <point x="493" y="576"/>
      <point x="489" y="568" type="qcurve"/>
      <point x="500" y="577" type="line"/>
      <point x="508" y="585"/>
      <point x="518" y="585" type="qcurve"/>
      <point x="525" y="585"/>
      <point x="534" y="576"/>
      <point x="534" y="569" type="qcurve"/>
      <point x="534" y="548"/>
      <point x="404" y="435"/>
      <point x="337" y="386" type="qcurve"/>
      <point x="345" y="383" type="line"/>
    </contour>
    <contour>
      <point x="200" y="287"/>
      <point x="128" y="208"/>
      <point x="128" y="161" type="qcurve"/>
      <point x="128" y="106"/>
      <point x="205" y="31"/>
      <point x="281" y="31" type="qcurve"/>
      <point x="363" y="31"/>
      <point x="457" y="101"/>
      <point x="457" y="164" type="qcurve"/>
      <point x="457" y="213"/>
      <point x="419" y="275"/>
      <point x="350" y="316"/>
      <point x="283" y="345" type="qcurve"/>
    </contour>
    <contour>
      <point x="370" y="473"/>
      <point x="467" y="550" type="qcurve"/>
      <point x="465" y="549"/>
      <point x="459" y="549" type="qcurve"/>
      <point x="445" y="549"/>
      <point x="436" y="563" type="qcurve"/>
      <point x="414" y="599"/>
      <point x="349" y="638"/>
      <point x="303" y="638" type="qcurve"/>
      <point x="261" y="638"/>
      <point x="197" y="608"/>
      <point x="161" y="558"/>
      <point x="161" y="529" type="qcurve"/>
      <point x="161" y="494"/>
      <point x="215" y="442"/>
      <point x="277" y="413" type="qcurve"/>
    </contour>
  </outline>
</glyph>
<glyph name="nine" format="2">
  <advance height="1000" width="600"/>
  <unicode hex="0039"/>
  <outline>
    <contour>
      <point x="351" y="-28"/>
      <point x="351" y="-6" type="qcurve"/>
      <point x="351" y="-4"/>
      <point x="354" y="14" type="qcurve"/>
      <point x="412" y="295"/>
      <point x="420" y="342" type="qcurve"/>
      <point x="384" y="298"/>
      <point x="281" y="245"/>
      <point x="228" y="245" type="qcurve"/>
      <point x="181" y="245"/>
      <point x="104" y="289"/>
      <point x="59" y="371"/>
      <point x="59" y="427" type="qcurve"/>
      <point x="59" y="494"/>
      <point x="128" y="619"/>
      <point x="246" y="697"/>
      <point x="313" y="697" type="qcurve"/>
      <point x="375" y="697"/>
      <point x="457" y="644"/>
      <point x="474" y="614" type="qcurve"/>
      <point x="476" y="621"/>
      <point x="477" y="632"/>
      <point x="477" y="635" type="qcurve"/>
      <point x="480" y="653"/>
      <point x="487" y="668"/>
      <point x="496" y="668" type="qcurve"/>
      <point x="498" y="668" type="line"/>
      <point x="513" y="666"/>
      <point x="551" y="642"/>
      <point x="551" y="631" type="qcurve"/>
      <point x="551" y="628" type="line"/>
      <point x="531" y="577"/>
      <point x="477" y="311"/>
      <point x="431" y="34"/>
      <point x="427" y="-6" type="qcurve"/>
      <point x="426" y="-26"/>
      <point x="381" y="-28" type="qcurve"/>
      <point x="377" y="-28" type="line"/>
    </contour>
    <contour>
      <point x="453" y="552"/>
      <point x="449" y="552" type="qcurve"/>
      <point x="439" y="552"/>
      <point x="434" y="564" type="qcurve"/>
      <point x="421" y="592"/>
      <point x="365" y="635"/>
      <point x="318" y="635" type="qcurve"/>
      <point x="266" y="635"/>
      <point x="179" y="572"/>
      <point x="128" y="476"/>
      <point x="128" y="430" type="qcurve"/>
      <point x="128" y="374"/>
      <point x="179" y="310"/>
      <point x="227" y="310" type="qcurve"/>
      <point x="328" y="310"/>
      <point x="433" y="454"/>
      <point x="453" y="516" type="qcurve"/>
      <point x="457" y="530"/>
      <point x="458" y="537" type="qcurve"/>
      <point x="463" y="558" type="line"/>
    </contour>
  </outline>
</glyph>
<glyph name="colon" format="2">
  <advance height="1000" width="350"/>
  <unicode hex="003A"/>
  <outline>
    <contour>
      <point x="230" y="374"/>
      <point x="204" y="349"/>
      <point x="178" y="349" type="qcurve"/>
      <point x="158" y="349"/>
      <point x="125" y="389"/>
      <point x="125" y="409" type="qcurve"/>
      <point x="125" y="432"/>
      <point x="154" y="457"/>
      <point x="178" y="457" type="qcurve"/>
      <point x="197" y="457"/>
      <point x="230" y="416"/>
      <point x="230" y="395" type="qcurve"/>
    </contour>
    <contour>
      <point x="230" y="3"/>
      <point x="204" y="-22"/>
      <point x="178" y="-22" type="qcurve"/>
      <point x="158" y="-22"/>
      <point x="125" y="18"/>
      <point x="125" y="38" type="qcurve"/>
      <point x="125" y="61"/>
      <point x="154" y="86"/>
      <point x="178" y="86" type="qcurve"/>
      <point x="197" y="86"/>
      <point x="230" y="45"/>
      <point x="230" y="24" type="qcurve"/>
    </contour>
  </outline>
</glyph>
<glyph name="semicolon" format="2">
  <advance height="1000" width="350"/>
  <unicode hex="003B"/>
  <outline>
    <contour>
      <point x="230" y="374"/>
      <point x="204" y="349"/>
      <point x="178" y="349" type="qcurve"/>
      <point x="158" y="349"/>
      <point x="125" y="389"/>
      <point x="125" y="409" type="qcurve"/>
      <point x="125" y="432"/>
      <point x="154" y="457"/>
      <point x="178" y="457" type="qcurve"/>
      <point x="197" y="457"/>
      <point x="230" y="416"/>
      <point x="230" y="395" type="qcurve"/>
    </contour>
    <contour>
      <point x="167" y="-17"/>
      <point x="148" y="-13"/>
      <point x="147" y="-11" type="qcurve"/>
      <point x="137" y="-3"/>
      <point x="122" y="22"/>
      <point x="122" y="36" type="qcurve"/>
      <point x="122" y="57"/>
      <point x="153" y="82"/>
      <point x="175" y="82" type="qcurve"/>
      <point x="195" y="82"/>
      <point x="223" y="47"/>
      <point x="226" y="22" type="qcurve"/>
      <point x="227" y="13" type="line"/>
      <point x="227" y="-22"/>
      <point x="169" y="-95"/>
      <point x="128" y="-113" type="qcurve"/>
      <point x="122" y="-115"/>
      <point x="120" y="-115" type="qcurve"/>
      <point x="114" y="-115"/>
      <point x="106" y="-107"/>
      <point x="106" y="-101" type="qcurve"/>
      <point x="106" y="-94"/>
      <point x="112" y="-89" type="qcurve"/>
      <point x="132" y="-76"/>
      <point x="165" y="-35"/>
      <point x="169" y="-18" type="qcurve"/>
    </contour>
  </outline>
</glyph>
<glyph name="question" format="2">
  <advance width="600" height="1000"/>
  <unicode hex="003F"/>
  <outline>
    <contour>
      <point x="330" y="161"/>
      <point x="313" y="153"/>
      <point x="301" y="153" type="qcurve"/>
      <point x="278" y="153"/>
      <point x="258" y="167"/>
      <point x="253" y="189"/>
      <point x="253" y="209" type="qcurve"/>
      <point x="253" y="235"/>
      <point x="257" y="260" type="qcurve"/>
      <point x="263" y="301"/>
      <point x="310" y="360"/>
      <point x="354" y="398" type="qcurve"/>
      <point x="386" y="426"/>
      <point x="423" y="465"/>
      <point x="449" y="519"/>
      <point x="449" y="553" type="qcurve"/>
      <point x="449" y="591"/>
      <point x="401" y="639"/>
      <point x="356" y="639" type="qcurve"/>
      <point x="300" y="639"/>
      <point x="177" y="580"/>
      <point x="155" y="504" type="qcurve"/>
      <point x="151" y="491"/>
      <point x="137" y="491" type="qcurve"/>
      <point x="122" y="491"/>
      <point x="90" y="518"/>
      <point x="90" y="533" type="qcurve"/>
      <point x="90" y="539"/>
      <point x="92" y="542" type="qcurve"/>
      <point x="139" y="623"/>
      <point x="267" y="698"/>
      <point x="355" y="698" type="qcurve"/>
      <point x="432" y="698"/>
      <point x="522" y="624"/>
      <point x="522" y="559" type="qcurve"/>
      <point x="522" y="514"/>
      <point x="490" y="444"/>
      <point x="445" y="397"/>
      <point x="407" y="365" type="qcurve"/>
      <point x="367" y="332"/>
      <point x="325" y="283"/>
      <point x="321" y="251" type="qcurve"/>
      <point x="320" y="243"/>
      <point x="320" y="228" type="qcurve"/>
      <point x="320" y="205"/>
      <point x="329" y="173" type="qcurve"/>
      <point x="330" y="169" type="line"/>
    </contour>
    <contour>
      <point x="343" y="1"/>
      <point x="317" y="-24"/>
      <point x="291" y="-24" type="qcurve"/>
      <point x="270" y="-24"/>
      <point x="238" y="14"/>
      <point x="238" y="36" type="qcurve"/>
      <point x="238" y="58"/>
      <point x="265" y="86"/>
      <point x="291" y="86" type="qcurve"/>
      <point x="310" y="86"/>
      <point x="343" y="45"/>
      <point x="343" y="22" type="qcurve"/>
    </contour>
  </outline>
</glyph>
<glyph name="at" format="2">
  <advance width="784" height="1000"/>
  <unicode hex="0040"/>
  <outline>
    <contour>
      <point x="460" y="187"/>
      <point x="378" y="134"/>
      <point x="332" y="134" type="qcurve"/>
      <point x="272" y="134"/>
      <point x="200" y="214"/>
      <point x="200" y="283" type="qcurve"/>
      <point x="200" y="352"/>
      <point x="260" y="473"/>
      <point x="362" y="545"/>
      <point x="423" y="545" type="qcurve"/>
      <point x="486" y="545"/>
      <point x="518" y="500" type="qcurve"/>
      <point x="520" y="527" type="line"/>
      <point x="520" y="535"/>
      <point x="533" y="535" type="qcurve"/>
      <point x="551" y="535"/>
      <point x="595" y="510"/>
      <point x="595" y="497" type="qcurve"/>
      <point x="594" y="493" type="line"/>
      <point x="574" y="436"/>
      <point x="553" y="287"/>
      <point x="553" y="242" type="qcurve"/>
      <point x="553" y="210"/>
      <point x="563" y="190"/>
      <point x="573" y="190" type="qcurve"/>
      <point x="599" y="190"/>
      <point x="652" y="244"/>
      <point x="687" y="343"/>
      <point x="687" y="407" type="qcurve"/>
      <point x="687" y="520"/>
      <point x="539" y="642"/>
      <point x="419" y="642" type="qcurve"/>
      <point x="336" y="642"/>
      <point x="190" y="545"/>
      <point x="102" y="386"/>
      <point x="102" y="298" type="qcurve"/>
      <point x="102" y="164"/>
      <point x="257" y="27"/>
      <point x="393" y="27" type="qcurve"/>
      <point x="478" y="27"/>
      <point x="657" y="110"/>
      <point x="709" y="171" type="qcurve"/>
      <point x="721" y="184"/>
      <point x="730" y="184" type="qcurve"/>
      <point x="736" y="184"/>
      <point x="744" y="175"/>
      <point x="744" y="168" type="qcurve"/>
      <point x="744" y="161"/>
      <point x="739" y="151" type="qcurve"/>
      <point x="687" y="70"/>
      <point x="497" y="-32"/>
      <point x="393" y="-32" type="qcurve"/>
      <point x="285" y="-32"/>
      <point x="124" y="45"/>
      <point x="36" y="191"/>
      <point x="36" y="291" type="qcurve"/>
      <point x="36" y="397"/>
      <point x="137" y="584"/>
      <point x="313" y="697"/>
      <point x="420" y="697" type="qcurve"/>
      <point x="517" y="697"/>
      <point x="667" y="627"/>
      <point x="749" y="497"/>
      <point x="749" y="410" type="qcurve"/>
      <point x="749" y="332"/>
      <point x="699" y="205"/>
      <point x="617" y="133"/>
      <point x="571" y="133" type="qcurve"/>
      <point x="492" y="133"/>
      <point x="492" y="221" type="qcurve"/>
      <point x="492" y="233"/>
      <point x="493" y="240" type="qcurve"/>
    </contour>
    <contour>
      <point x="377" y="198"/>
      <point x="453" y="263"/>
      <point x="498" y="363"/>
      <point x="498" y="411" type="qcurve"/>
      <point x="498" y="447"/>
      <point x="458" y="488"/>
      <point x="426" y="488" type="qcurve"/>
      <point x="388" y="488"/>
      <point x="316" y="433"/>
      <point x="272" y="340"/>
      <point x="272" y="287" type="qcurve"/>
      <point x="272" y="240"/>
      <point x="302" y="198"/>
      <point x="332" y="198" type="qcurve"/>
    </contour>
  </outline>
</glyph>
<glyph name="B" format="2">
  <advance width="650" height="1000"/>
  <unicode hex="0042"/>
  <outline>
    <contour>
      <point x="92" y="629"/>
      <point x="66" y="657"/>
      <point x="66" y="668" type="qcurve"/>
      <point x="66" y="676"/>
      <point x="73" y="679" type="qcurve"/>
      <point x="102" y="691"/>
      <point x="260" y="711"/>
      <point x="320" y="711" type="qcurve"/>
      <point x="433" y="711"/>
      <point x="543" y="626"/>
      <point x="543" y="557" type="qcurve"/>
      <point x="543" y="500"/>
      <point x="468" y="417"/>
      <point x="419" y="398" type="qcurve"/>
      <point x="467" y="393"/>
      <point x="550" y="343"/>
      <point x="599" y="263"/>
      <point x="599" y="215" type="qcurve"/>
      <point x="599" y="115"/>
      <point x="470" y="16"/>
      <point x="302" y="-10"/>
      <point x="198" y="-10" type="qcurve"/>
      <point x="172" y="-10"/>
      <point x="98" y="-5"/>
      <point x="73" y="-1" type="qcurve"/>
      <point x="53" y="3"/>
      <point x="53" y="17" type="qcurve"/>
      <point x="53" y="24"/>
      <point x="65" y="34"/>
      <point x="75" y="34" type="qcurve"/>
      <point x="94" y="34"/>
      <point x="106" y="36" type="qcurve"/>
      <point x="106" y="625" type="line"/>
    </contour>
    <contour>
      <point x="218" y="408"/>
      <point x="292" y="413"/>
      <point x="314" y="417" type="qcurve"/>
      <point x="375" y="428"/>
      <point x="472" y="501"/>
      <point x="472" y="551" type="qcurve"/>
      <point x="472" y="601"/>
      <point x="392" y="650"/>
      <point x="308" y="650" type="qcurve"/>
      <point x="238" y="650"/>
      <point x="176" y="633" type="qcurve"/>
      <point x="176" y="408" type="line"/>
      <point x="189" y="408" type="line"/>
    </contour>
    <contour>
      <point x="253" y="358"/>
      <point x="176" y="351" type="qcurve"/>
      <point x="176" y="39" type="line"/>
      <point x="528" y="39"/>
      <point x="528" y="212" type="qcurve"/>
      <point x="528" y="285"/>
      <point x="417" y="356"/>
      <point x="346" y="358" type="qcurve"/>
      <point x="327" y="358" type="line"/>
    </contour>
  </outline>
</glyph>
<glyph name="C" format="2">
  <advance height="1000" width="703"/>
  <unicode hex="0043"/>
  <outline>
    <contour>
      <point x="674" y="162"/>
      <point x="593" y="62"/>
      <point x="449" y="-18"/>
      <point x="357" y="-18" type="qcurve"/>
      <point x="218" y="-18"/>
      <point x="51" y="135"/>
      <point x="51" y="293" type="qcurve"/>
      <point x="51" y="409"/>
      <point x="145" y="601"/>
      <point x="309" y="713"/>
      <point x="408" y="713" type="qcurve"/>
      <point x="461" y="713"/>
      <point x="585" y="680"/>
      <point x="628" y="628" type="qcurve"/>
      <point x="631" y="624"/>
      <point x="631" y="617" type="qcurve"/>
      <point x="631" y="602"/>
      <point x="604" y="569"/>
      <point x="591" y="569" type="qcurve"/>
      <point x="582" y="569"/>
      <point x="576" y="578" type="qcurve"/>
      <point x="547" y="623"/>
      <point x="445" y="649"/>
      <point x="404" y="649" type="qcurve"/>
      <point x="330" y="649"/>
      <point x="200" y="558"/>
      <point x="123" y="397"/>
      <point x="123" y="295" type="qcurve"/>
      <point x="123" y="169"/>
      <point x="252" y="45"/>
      <point x="363" y="45" type="qcurve"/>
      <point x="433" y="45"/>
      <point x="590" y="124"/>
      <point x="636" y="185" type="qcurve"/>
      <point x="648" y="200"/>
      <point x="660" y="200" type="qcurve"/>
      <point x="666" y="200"/>
      <point x="674" y="191"/>
      <point x="674" y="184" type="qcurve"/>
    </contour>
  </outline>
</glyph>
<glyph name="D" format="2">
  <advance width="728" height="1000"/>
  <unicode hex="0044"/>
  <outline>
    <contour>
      <point x="51" y="-8"/>
      <point x="51" y="15" type="qcurve"/>
      <point x="51" y="25"/>
      <point x="76" y="34"/>
      <point x="106" y="34" type="qcurve"/>
      <point x="106" y="626" type="line"/>
      <point x="92" y="629"/>
      <point x="66" y="658"/>
      <point x="66" y="669" type="qcurve"/>
      <point x="66" y="678"/>
      <point x="73" y="681" type="qcurve"/>
      <point x="101" y="693"/>
      <point x="249" y="712"/>
      <point x="303" y="712" type="qcurve"/>
      <point x="403" y="712"/>
      <point x="572" y="624"/>
      <point x="673" y="462"/>
      <point x="673" y="357" type="qcurve"/>
      <point x="673" y="254"/>
      <point x="588" y="106"/>
      <point x="452" y="22"/>
      <point x="374" y="8" type="qcurve"/>
      <point x="294" y="-6"/>
      <point x="183" y="-8" type="qcurve"/>
      <point x="169" y="-8" type="line"/>
    </contour>
    <contour>
      <point x="319" y="42"/>
      <point x="510" y="125"/>
      <point x="602" y="267"/>
      <point x="602" y="358" type="qcurve"/>
      <point x="602" y="447"/>
      <point x="514" y="580"/>
      <point x="374" y="651"/>
      <point x="298" y="651" type="qcurve"/>
      <point x="234" y="651"/>
      <point x="176" y="635" type="qcurve"/>
      <point x="176" y="40" type="line"/>
    </contour>
  </outline>
</glyph>
<glyph name="E" format="2">
  <advance height="1000" width="638"/>
  <unicode hex="0045"/>
  <outline>
    <contour>
      <point x="564" y="-2"/>
      <point x="554" y="-1" type="qcurve"/>
      <point x="518" y="1"/>
      <point x="489" y="1" type="qcurve"/>
      <point x="473" y="1" type="line"/>
      <point x="195" y="-3" type="line"/>
      <point x="185" y="-3"/>
      <point x="167" y="-7" type="qcurve"/>
      <point x="163" y="-7"/>
      <point x="148" y="-10"/>
      <point x="141" y="-10" type="qcurve"/>
      <point x="127" y="-10"/>
      <point x="99" y="24"/>
      <point x="99" y="37" type="qcurve"/>
      <point x="99" y="41"/>
      <point x="106" y="75"/>
      <point x="106" y="84" type="qcurve"/>
      <point x="106" y="344" type="line"/>
      <point x="95" y="350"/>
      <point x="79" y="381"/>
      <point x="79" y="393" type="qcurve"/>
      <point x="79" y="404"/>
      <point x="87" y="404" type="qcurve"/>
      <point x="89" y="404" type="line"/>
      <point x="93" y="404"/>
      <point x="101" y="402"/>
      <point x="106" y="402" type="qcurve"/>
      <point x="106" y="604" type="line"/>
      <point x="106" y="645"/>
      <point x="104" y="661" type="qcurve"/>
      <point x="102" y="685" type="line"/>
      <point x="102" y="699"/>
      <point x="116" y="699" type="qcurve"/>
      <point x="127" y="699"/>
      <point x="162" y="689"/>
      <point x="169" y="686" type="qcurve"/>
      <point x="440" y="704" type="line"/>
      <point x="459" y="705"/>
      <point x="489" y="709" type="qcurve"/>
      <point x="512" y="712"/>
      <point x="523" y="712" type="qcurve"/>
      <point x="536" y="712"/>
      <point x="557" y="678"/>
      <point x="557" y="663" type="qcurve"/>
      <point x="557" y="646"/>
      <point x="544" y="646" type="qcurve"/>
      <point x="502" y="646" type="line"/>
      <point x="460" y="646"/>
      <point x="441" y="645" type="qcurve"/>
      <point x="174" y="627" type="line"/>
      <point x="174" y="403" type="line"/>
      <point x="385" y="416" type="line"/>
      <point x="404" y="417"/>
      <point x="434" y="421" type="qcurve"/>
      <point x="457" y="424"/>
      <point x="468" y="424" type="qcurve"/>
      <point x="481" y="424"/>
      <point x="502" y="390"/>
      <point x="502" y="374" type="qcurve"/>
      <point x="502" y="357"/>
      <point x="489" y="357" type="qcurve"/>
      <point x="447" y="357" type="line"/>
      <point x="405" y="357"/>
      <point x="386" y="356" type="qcurve"/>
      <point x="174" y="344" type="line"/>
      <point x="174" y="59" type="line"/>
      <point x="472" y="64" type="line"/>
      <point x="489" y="64"/>
      <point x="521" y="66" type="qcurve"/>
      <point x="555" y="67" type="line"/>
      <point x="556" y="67" type="line"/>
      <point x="568" y="67"/>
      <point x="588" y="31"/>
      <point x="588" y="14" type="qcurve"/>
      <point x="588" y="-2"/>
      <point x="577" y="-2" type="qcurve"/>
      <point x="576" y="-2" type="line"/>
    </contour>
  </outline>
</glyph>
<glyph name="F" format="2">
  <advance height="1000" width="582"/>
  <unicode hex="0046"/>
  <outline>
    <contour>
      <point x="405" y="357"/>
      <point x="386" y="356" type="qcurve"/>
      <point x="176" y="344" type="line"/>
      <point x="176" y="107" type="line"/>
      <point x="178" y="52" type="line"/>
      <point x="179" y="1" type="line"/>
      <point x="179" y="-9"/>
      <point x="158" y="-9" type="qcurve"/>
      <point x="140" y="-9"/>
      <point x="104" y="7"/>
      <point x="104" y="19" type="qcurve"/>
      <point x="104" y="40"/>
      <point x="105" y="55" type="qcurve"/>
      <point x="106" y="108" type="line"/>
      <point x="106" y="344" type="line"/>
      <point x="95" y="350"/>
      <point x="79" y="381"/>
      <point x="79" y="393" type="qcurve"/>
      <point x="79" y="404"/>
      <point x="87" y="404" type="qcurve"/>
      <point x="89" y="404" type="line"/>
      <point x="99" y="402"/>
      <point x="106" y="402" type="qcurve"/>
      <point x="106" y="604" type="line"/>
      <point x="106" y="645"/>
      <point x="104" y="661" type="qcurve"/>
      <point x="102" y="685" type="line"/>
      <point x="102" y="699"/>
      <point x="116" y="699" type="qcurve"/>
      <point x="127" y="699"/>
      <point x="162" y="689"/>
      <point x="169" y="686" type="qcurve"/>
      <point x="440" y="704" type="line"/>
      <point x="459" y="705"/>
      <point x="489" y="709" type="qcurve"/>
      <point x="512" y="712"/>
      <point x="523" y="712" type="qcurve"/>
      <point x="536" y="712"/>
      <point x="557" y="678"/>
      <point x="557" y="662" type="qcurve"/>
      <point x="557" y="645"/>
      <point x="544" y="645" type="qcurve"/>
      <point x="502" y="645" type="line"/>
      <point x="460" y="645"/>
      <point x="441" y="644" type="qcurve"/>
      <point x="176" y="626" type="line"/>
      <point x="176" y="403" type="line"/>
      <point x="385" y="416" type="line"/>
      <point x="404" y="417"/>
      <point x="434" y="421" type="qcurve"/>
      <point x="457" y="424"/>
      <point x="468" y="424" type="qcurve"/>
      <point x="481" y="424"/>
      <point x="502" y="390"/>
      <point x="502" y="374" type="qcurve"/>
      <point x="502" y="357"/>
      <point x="489" y="357" type="qcurve"/>
      <point x="447" y="357" type="line"/>
    </contour>
  </outline>
</glyph>
<glyph name="G" format="2">
  <advance height="1000" width="752"/>
  <unicode hex="0047"/>
  <outline>
    <contour>
      <point x="609" y="25"/>
      <point x="613" y="78"/>
      <point x="613" y="126" type="qcurve"/>
      <point x="580" y="58"/>
      <point x="443" y="-17"/>
      <point x="371" y="-17" type="qcurve"/>
      <point x="226" y="-17"/>
      <point x="56" y="133"/>
      <point x="56" y="295" type="qcurve"/>
      <point x="56" y="405"/>
      <point x="148" y="597"/>
      <point x="309" y="713"/>
      <point x="408" y="713" type="qcurve"/>
      <point x="492" y="713"/>
      <point x="600" y="669"/>
      <point x="633" y="628" type="qcurve"/>
      <point x="637" y="624"/>
      <point x="637" y="616" type="qcurve"/>
      <point x="637" y="601"/>
      <point x="611" y="568"/>
      <point x="598" y="568" type="qcurve"/>
      <point x="590" y="568"/>
      <point x="584" y="577" type="qcurve"/>
      <point x="571" y="598"/>
      <point x="490" y="651"/>
      <point x="408" y="651" type="qcurve"/>
      <point x="330" y="651"/>
      <point x="201" y="556"/>
      <point x="126" y="392"/>
      <point x="126" y="295" type="qcurve"/>
      <point x="126" y="162"/>
      <point x="251" y="46"/>
      <point x="371" y="46" type="qcurve"/>
      <point x="436" y="46"/>
      <point x="549" y="113"/>
      <point x="617" y="232"/>
      <point x="617" y="308" type="qcurve"/>
      <point x="617" y="311"/>
      <point x="613" y="311" type="qcurve"/>
      <point x="499" y="303" type="line"/>
      <point x="450" y="299"/>
      <point x="424" y="295" type="qcurve"/>
      <point x="422" y="295" type="line"/>
      <point x="408" y="295"/>
      <point x="384" y="331"/>
      <point x="384" y="347" type="qcurve"/>
      <point x="384" y="361"/>
      <point x="396" y="361" type="qcurve"/>
      <point x="410" y="361" type="line"/>
      <point x="446" y="361"/>
      <point x="480" y="363" type="qcurve"/>
      <point x="604" y="370" type="line"/>
      <point x="610" y="371"/>
      <point x="632" y="374"/>
      <point x="639" y="374" type="qcurve"/>
      <point x="650" y="374"/>
      <point x="689" y="337"/>
      <point x="689" y="326" type="qcurve"/>
      <point x="689" y="322"/>
      <point x="680" y="306"/>
      <point x="680" y="298" type="qcurve"/>
      <point x="680" y="97" type="line"/>
      <point x="682" y="7" type="line"/>
      <point x="682" y="1"/>
      <point x="668" y="-6"/>
      <point x="658" y="-6" type="qcurve"/>
      <point x="641" y="-6"/>
      <point x="608" y="7"/>
      <point x="608" y="16" type="qcurve"/>
      <point x="608" y="17" type="line"/>
    </contour>
  </outline>
</glyph>
<glyph name="H" format="2">
  <advance width="700" height="1000"/>
  <unicode hex="0048"/>
  <outline>
    <contour>
      <point x="536" y="361" type="line"/>
      <point x="522" y="361"/>
      <point x="511" y="362" type="qcurve"/>
      <point x="479" y="364"/>
      <point x="456" y="364" type="qcurve"/>
      <point x="433" y="363" type="line"/>
      <point x="182" y="348" type="line"/>
      <point x="176" y="348" type="line"/>
      <point x="176" y="105" type="line"/>
      <point x="176" y="79"/>
      <point x="178" y="37" type="qcurve"/>
      <point x="179" y="-1" type="line"/>
      <point x="179" y="-11"/>
      <point x="158" y="-11" type="qcurve"/>
      <point x="140" y="-11"/>
      <point x="104" y="5"/>
      <point x="104" y="17" type="qcurve"/>
      <point x="104" y="33"/>
      <point x="105" y="45" type="qcurve"/>
      <point x="106" y="106" type="line"/>
      <point x="106" y="340" type="line"/>
      <point x="103" y="339"/>
      <point x="99" y="339" type="qcurve"/>
      <point x="98" y="339" type="line"/>
      <point x="86" y="339"/>
      <point x="66" y="375"/>
      <point x="66" y="392" type="qcurve"/>
      <point x="66" y="408"/>
      <point x="77" y="408" type="qcurve"/>
      <point x="78" y="408" type="line"/>
      <point x="106" y="407" type="line"/>
      <point x="106" y="589" type="line"/>
      <point x="106" y="615"/>
      <point x="104" y="657" type="qcurve"/>
      <point x="103" y="695" type="line"/>
      <point x="103" y="705"/>
      <point x="124" y="705" type="qcurve"/>
      <point x="142" y="705"/>
      <point x="178" y="689"/>
      <point x="178" y="677" type="qcurve"/>
      <point x="178" y="661"/>
      <point x="177" y="649" type="qcurve"/>
      <point x="176" y="588" type="line"/>
      <point x="176" y="407" type="line"/>
      <point x="181" y="407" type="line"/>
      <point x="432" y="422" type="line"/>
      <point x="493" y="426"/>
      <point x="515" y="430" type="qcurve"/>
      <point x="518" y="430" type="line"/>
      <point x="532" y="430"/>
      <point x="542" y="406" type="qcurve"/>
      <point x="542" y="589" type="line"/>
      <point x="542" y="615"/>
      <point x="540" y="657" type="qcurve"/>
      <point x="539" y="695" type="line"/>
      <point x="539" y="705"/>
      <point x="560" y="705" type="qcurve"/>
      <point x="578" y="705"/>
      <point x="614" y="689"/>
      <point x="614" y="677" type="qcurve"/>
      <point x="614" y="661"/>
      <point x="613" y="649" type="qcurve"/>
      <point x="612" y="588" type="line"/>
      <point x="612" y="106" type="line"/>
      <point x="612" y="80"/>
      <point x="614" y="38" type="qcurve"/>
      <point x="615" y="0" type="line"/>
      <point x="615" y="-10"/>
      <point x="594" y="-10" type="qcurve"/>
      <point x="576" y="-10"/>
      <point x="540" y="6"/>
      <point x="540" y="18" type="qcurve"/>
      <point x="540" y="34"/>
      <point x="541" y="46" type="qcurve"/>
      <point x="542" y="107" type="line"/>
      <point x="542" y="362" type="line"/>
    </contour>
  </outline>
</glyph>
<glyph name="I" format="2">
  <advance height="1000" width="375"/>
  <unicode hex="0049"/>
  <outline>
    <contour>
      <point x="150" y="603"/>
      <point x="148" y="649" type="qcurve"/>
      <point x="118" y="647"/>
      <point x="106" y="647" type="qcurve"/>
      <point x="96" y="647"/>
      <point x="73" y="668"/>
      <point x="72" y="680" type="qcurve"/>
      <point x="72" y="704"/>
      <point x="87" y="704" type="qcurve"/>
      <point x="187" y="706" type="line"/>
      <point x="234" y="709" type="line"/>
      <point x="275" y="711" type="line"/>
      <point x="284" y="711"/>
      <point x="303" y="691"/>
      <point x="303" y="678" type="qcurve"/>
      <point x="303" y="674" type="line"/>
      <point x="303" y="654"/>
      <point x="289" y="654" type="qcurve"/>
      <point x="226" y="652" type="line"/>
      <point x="226" y="634"/>
      <point x="225" y="621" type="qcurve"/>
      <point x="224" y="568" type="line"/>
      <point x="224" y="126" type="line"/>
      <point x="224" y="97"/>
      <point x="226" y="55" type="qcurve"/>
      <point x="259" y="58"/>
      <point x="277" y="58" type="qcurve"/>
      <point x="286" y="58"/>
      <point x="305" y="38"/>
      <point x="305" y="25" type="qcurve"/>
      <point x="305" y="21" type="line"/>
      <point x="305" y="1"/>
      <point x="291" y="1" type="qcurve"/>
      <point x="260" y="0" type="line"/>
      <point x="237" y="0"/>
      <point x="201" y="-2" type="qcurve"/>
      <point x="153" y="-4" type="line"/>
      <point x="133" y="-4"/>
      <point x="105" y="-6" type="qcurve"/>
      <point x="95" y="-7"/>
      <point x="71" y="14"/>
      <point x="70" y="27" type="qcurve"/>
      <point x="70" y="51"/>
      <point x="85" y="51" type="qcurve"/>
      <point x="124" y="51"/>
      <point x="148" y="52" type="qcurve"/>
      <point x="150" y="90"/>
      <point x="150" y="127" type="qcurve"/>
      <point x="150" y="569" type="line"/>
    </contour>
  </outline>
</glyph>
<glyph name="J" format="2">
  <advance height="1000" width="492"/>
  <unicode hex="004A"/>
  <outline>
    <contour>
      <point x="313" y="615"/>
      <point x="311" y="657" type="qcurve"/>
      <point x="310" y="695" type="line"/>
      <point x="310" y="705"/>
      <point x="331" y="705" type="qcurve"/>
      <point x="350" y="705"/>
      <point x="386" y="689"/>
      <point x="386" y="677" type="qcurve"/>
      <point x="386" y="661"/>
      <point x="385" y="649" type="qcurve"/>
      <point x="384" y="588" type="line"/>
      <point x="384" y="177" type="line"/>
      <point x="384" y="72"/>
      <point x="286" y="-17"/>
      <point x="209" y="-17" type="qcurve"/>
      <point x="146" y="-17"/>
      <point x="59" y="38"/>
      <point x="16" y="106"/>
      <point x="16" y="122" type="qcurve"/>
      <point x="16" y="140"/>
      <point x="53" y="173"/>
      <point x="68" y="173" type="qcurve"/>
      <point x="79" y="173"/>
      <point x="81" y="162" type="qcurve"/>
      <point x="96" y="92"/>
      <point x="172" y="49"/>
      <point x="205" y="49" type="qcurve"/>
      <point x="313" y="49"/>
      <point x="313" y="180" type="qcurve"/>
      <point x="313" y="589" type="line"/>
    </contour>
  </outline>
</glyph>
<glyph name="K" format="2">
  <advance height="1000" width="630"/>
  <unicode hex="004B"/>
  <outline>
    <contour>
      <point x="106" y="615"/>
      <point x="104" y="657" type="qcurve"/>
      <point x="103" y="695" type="line"/>
      <point x="103" y="705"/>
      <point x="124" y="705" type="qcurve"/>
      <point x="142" y="705"/>
      <point x="178" y="689"/>
      <point x="178" y="677" type="qcurve"/>
      <point x="178" y="661"/>
      <point x="177" y="649" type="qcurve"/>
      <point x="176" y="588" type="line"/>
      <point x="176" y="412" type="line"/>
      <point x="283" y="496"/>
      <point x="470" y="671"/>
      <point x="494" y="699" type="qcurve"/>
      <point x="498" y="704"/>
      <point x="510" y="704" type="qcurve"/>
      <point x="528" y="704"/>
      <point x="570" y="681"/>
      <point x="570" y="670" type="qcurve"/>
      <point x="570" y="665"/>
      <point x="566" y="662" type="qcurve"/>
      <point x="546" y="645" type="line"/>
      <point x="504" y="610"/>
      <point x="486" y="594" type="qcurve"/>
      <point x="392" y="508"/>
      <point x="256" y="398" type="qcurve"/>
      <point x="257" y="397"/>
      <point x="372" y="267"/>
      <point x="561" y="74"/>
      <point x="618" y="27" type="qcurve"/>
      <point x="622" y="24"/>
      <point x="622" y="20" type="qcurve"/>
      <point x="622" y="10"/>
      <point x="582" y="-9"/>
      <point x="560" y="-9" type="qcurve"/>
      <point x="536" y="-9"/>
      <point x="527" y="4" type="qcurve"/>
      <point x="511" y="25"/>
      <point x="493" y="45" type="qcurve"/>
      <point x="299" y="250"/>
      <point x="206" y="357" type="qcurve"/>
      <point x="176" y="333" type="line"/>
      <point x="176" y="111" type="line"/>
      <point x="176" y="81"/>
      <point x="178" y="37" type="qcurve"/>
      <point x="179" y="-1" type="line"/>
      <point x="179" y="-11"/>
      <point x="158" y="-11" type="qcurve"/>
      <point x="140" y="-11"/>
      <point x="104" y="5"/>
      <point x="104" y="17" type="qcurve"/>
      <point x="104" y="33"/>
      <point x="105" y="45" type="qcurve"/>
      <point x="106" y="112" type="line"/>
      <point x="106" y="589" type="line"/>
    </contour>
  </outline>
</glyph>
<glyph name="L" format="2">
  <advance width="547" height="1000"/>
  <unicode hex="004C"/>
  <outline>
    <contour>
      <point x="462" y="1"/>
      <point x="413" y="1" type="qcurve"/>
      <point x="372" y="1" type="line"/>
      <point x="178" y="1"/>
      <point x="142" y="-9" type="qcurve"/>
      <point x="139" y="-9" type="line"/>
      <point x="127" y="-9"/>
      <point x="99" y="25"/>
      <point x="99" y="37" type="qcurve"/>
      <point x="99" y="41"/>
      <point x="106" y="61"/>
      <point x="106" y="70" type="qcurve"/>
      <point x="106" y="589" type="line"/>
      <point x="106" y="615"/>
      <point x="104" y="657" type="qcurve"/>
      <point x="103" y="695" type="line"/>
      <point x="103" y="705"/>
      <point x="124" y="705" type="qcurve"/>
      <point x="143" y="705"/>
      <point x="180" y="689"/>
      <point x="180" y="677" type="qcurve"/>
      <point x="180" y="661"/>
      <point x="179" y="649" type="qcurve"/>
      <point x="178" y="588" type="line"/>
      <point x="178" y="59" type="line"/>
      <point x="281" y="64"/>
      <point x="412" y="64" type="qcurve"/>
      <point x="477" y="64"/>
      <point x="495" y="65" type="qcurve"/>
      <point x="496" y="65" type="line"/>
      <point x="508" y="65"/>
      <point x="528" y="28"/>
      <point x="528" y="12" type="qcurve"/>
      <point x="528" y="-5"/>
      <point x="517" y="-5" type="qcurve"/>
      <point x="516" y="-5" type="line"/>
    </contour>
  </outline>
</glyph>
<glyph name="M" format="2">
  <advance height="1000" width="855"/>
  <unicode hex="004D"/>
  <outline>
    <contour>
      <point x="746" y="497"/>
      <point x="784" y="185"/>
      <point x="797" y="93" type="qcurve"/>
      <point x="801" y="65"/>
      <point x="815" y="19" type="qcurve"/>
      <point x="816" y="15" type="line"/>
      <point x="816" y="6"/>
      <point x="786" y="-6"/>
      <point x="767" y="-6" type="qcurve"/>
      <point x="752" y="-6"/>
      <point x="732" y="3"/>
      <point x="731" y="11" type="qcurve"/>
      <point x="729" y="39" type="line"/>
      <point x="729" y="57"/>
      <point x="726" y="85" type="qcurve"/>
      <point x="702" y="294"/>
      <point x="671" y="604" type="qcurve"/>
      <point x="597" y="452"/>
      <point x="460" y="139"/>
      <point x="460" y="124" type="qcurve"/>
      <point x="459" y="112"/>
      <point x="426" y="95"/>
      <point x="408" y="95" type="qcurve"/>
      <point x="381" y="95"/>
      <point x="377" y="110" type="qcurve"/>
      <point x="361" y="158"/>
      <point x="356" y="168" type="qcurve"/>
      <point x="254" y="410"/>
      <point x="185" y="594" type="qcurve"/>
      <point x="166" y="367"/>
      <point x="130" y="84" type="qcurve"/>
      <point x="128" y="67"/>
      <point x="126" y="33" type="qcurve"/>
      <point x="124" y="12" type="line"/>
      <point x="123" y="3"/>
      <point x="95" y="-7"/>
      <point x="77" y="-7" type="qcurve"/>
      <point x="62" y="-7"/>
      <point x="42" y="1"/>
      <point x="42" y="8" type="qcurve"/>
      <point x="42" y="10" type="line"/>
      <point x="58" y="63"/>
      <point x="95" y="343"/>
      <point x="122" y="599"/>
      <point x="126" y="639" type="qcurve"/>
      <point x="125" y="663" type="line"/>
      <point x="125" y="670"/>
      <point x="126" y="673" type="qcurve"/>
      <point x="128" y="685"/>
      <point x="166" y="703"/>
      <point x="185" y="703" type="qcurve"/>
      <point x="200" y="703"/>
      <point x="211" y="693"/>
      <point x="221" y="667" type="qcurve"/>
      <point x="351" y="330"/>
      <point x="416" y="186" type="qcurve"/>
      <point x="523" y="449"/>
      <point x="631" y="673" type="qcurve"/>
      <point x="633" y="678"/>
      <point x="643" y="700"/>
      <point x="656" y="712"/>
      <point x="667" y="712" type="qcurve"/>
      <point x="684" y="712"/>
      <point x="736" y="688"/>
      <point x="736" y="677" type="qcurve"/>
      <point x="736" y="671"/>
      <point x="731" y="644"/>
      <point x="731" y="635" type="qcurve"/>
      <point x="731" y="628" type="line"/>
    </contour>
  </outline>
</glyph>
<glyph name="N" format="2">
  <advance width="738" height="1000"/>
  <unicode hex="004E"/>
  <outline>
    <contour>
      <point x="566" y="615"/>
      <point x="564" y="657" type="qcurve"/>
      <point x="562" y="687"/>
      <point x="562" y="695" type="qcurve"/>
      <point x="562" y="705"/>
      <point x="583" y="705" type="qcurve"/>
      <point x="601" y="705"/>
      <point x="637" y="689"/>
      <point x="637" y="677" type="qcurve"/>
      <point x="637" y="661"/>
      <point x="636" y="649" type="qcurve"/>
      <point x="635" y="588" type="line"/>
      <point x="635" y="87" type="line"/>
      <point x="637" y="60" type="line"/>
      <point x="639" y="32" type="line"/>
      <point x="639" y="17"/>
      <point x="598" y="-13"/>
      <point x="580" y="-13" type="qcurve"/>
      <point x="568" y="-13"/>
      <point x="551" y="4"/>
      <point x="539" y="23"/>
      <point x="537" y="26" type="qcurve"/>
      <point x="445" y="155"/>
      <point x="247" y="457"/>
      <point x="175" y="579" type="qcurve"/>
      <point x="175" y="105" type="line"/>
      <point x="175" y="79"/>
      <point x="177" y="37" type="qcurve"/>
      <point x="178" y="-1" type="line"/>
      <point x="178" y="-11"/>
      <point x="158" y="-11" type="qcurve"/>
      <point x="140" y="-11"/>
      <point x="104" y="5"/>
      <point x="104" y="17" type="qcurve"/>
      <point x="104" y="33"/>
      <point x="105" y="45" type="qcurve"/>
      <point x="106" y="106" type="line"/>
      <point x="106" y="641" type="line"/>
      <point x="106" y="647"/>
      <point x="99" y="673"/>
      <point x="99" y="678" type="qcurve"/>
      <point x="99" y="682"/>
      <point x="100" y="683" type="qcurve"/>
      <point x="104" y="693"/>
      <point x="142" y="708"/>
      <point x="159" y="708" type="qcurve"/>
      <point x="165" y="708"/>
      <point x="168" y="707" type="qcurve"/>
      <point x="174" y="706"/>
      <point x="182" y="697"/>
      <point x="189" y="685"/>
      <point x="191" y="682" type="qcurve"/>
      <point x="392" y="344"/>
      <point x="566" y="104" type="qcurve"/>
      <point x="566" y="589" type="line"/>
    </contour>
  </outline>
</glyph>
<glyph name="O" format="2">
  <advance height="1000" width="745"/>
  <unicode hex="004F"/>
  <outline>
    <contour>
      <point x="260" y="679"/>
      <point x="348" y="713"/>
      <point x="405" y="713" type="qcurve"/>
      <point x="493" y="713"/>
      <point x="625" y="623"/>
      <point x="695" y="464"/>
      <point x="695" y="363" type="qcurve"/>
      <point x="695" y="256"/>
      <point x="623" y="84"/>
      <point x="475" y="-18"/>
      <point x="366" y="-18" type="qcurve"/>
      <point x="211" y="-18"/>
      <point x="53" y="176"/>
      <point x="53" y="337" type="qcurve"/>
      <point x="53" y="420"/>
      <point x="105" y="567"/>
      <point x="175" y="658"/>
      <point x="197" y="658" type="qcurve"/>
      <point x="211" y="658"/>
      <point x="223" y="646" type="qcurve"/>
    </contour>
    <contour>
      <point x="495" y="46"/>
      <point x="625" y="231"/>
      <point x="625" y="371" type="qcurve"/>
      <point x="625" y="442"/>
      <point x="573" y="572"/>
      <point x="470" y="653"/>
      <point x="399" y="653" type="qcurve"/>
      <point x="338" y="653"/>
      <point x="208" y="579"/>
      <point x="122" y="436"/>
      <point x="122" y="339" type="qcurve"/>
      <point x="122" y="211"/>
      <point x="241" y="46"/>
      <point x="358" y="46" type="qcurve"/>
    </contour>
  </outline>
</glyph>
<glyph name="P" format="2">
  <advance width="618" height="1000"/>
  <unicode hex="0050"/>
  <outline>
    <contour>
      <point x="91" y="618"/>
      <point x="60" y="653"/>
      <point x="60" y="667" type="qcurve"/>
      <point x="60" y="677"/>
      <point x="69" y="678" type="qcurve"/>
      <point x="193" y="702"/>
      <point x="264" y="711"/>
      <point x="320" y="711" type="qcurve"/>
      <point x="448" y="711"/>
      <point x="575" y="626"/>
      <point x="575" y="547" type="qcurve"/>
      <point x="575" y="461"/>
      <point x="468" y="355"/>
      <point x="372" y="336" type="qcurve"/>
      <point x="342" y="330"/>
      <point x="251" y="320"/>
      <point x="215" y="320" type="qcurve"/>
      <point x="194" y="320"/>
      <point x="186" y="321" type="qcurve"/>
      <point x="180" y="323"/>
      <point x="176" y="325" type="qcurve"/>
      <point x="176" y="115" type="line"/>
      <point x="176" y="83"/>
      <point x="178" y="39" type="qcurve"/>
      <point x="179" y="-1" type="line"/>
      <point x="179" y="-11"/>
      <point x="158" y="-11" type="qcurve"/>
      <point x="140" y="-11"/>
      <point x="104" y="5"/>
      <point x="104" y="17" type="qcurve"/>
      <point x="104" y="34"/>
      <point x="105" y="47" type="qcurve"/>
      <point x="106" y="116" type="line"/>
      <point x="106" y="618" type="line"/>
      <point x="105" y="618" type="line"/>
    </contour>
    <contour>
      <point x="184" y="366"/>
      <point x="189" y="366" type="qcurve"/>
      <point x="385" y="379"/>
      <point x="503" y="490"/>
      <point x="503" y="541" type="qcurve"/>
      <point x="503" y="648"/>
      <point x="318" y="648" type="qcurve"/>
      <point x="248" y="648"/>
      <point x="176" y="628" type="qcurve"/>
      <point x="176" y="362" type="line"/>
    </contour>
  </outline>
</glyph>
<glyph name="Q" format="2">
  <advance height="1000" width="745"/>
  <unicode hex="0051"/>
  <outline>
    <contour>
      <point x="443" y="-18"/>
      <point x="366" y="-18" type="qcurve"/>
      <point x="211" y="-18"/>
      <point x="53" y="176"/>
      <point x="53" y="337" type="qcurve"/>
      <point x="53" y="420"/>
      <point x="105" y="567"/>
      <point x="175" y="658"/>
      <point x="197" y="658" type="qcurve"/>
      <point x="211" y="658"/>
      <point x="223" y="646" type="qcurve"/>
      <point x="260" y="679"/>
      <point x="348" y="713"/>
      <point x="405" y="713" type="qcurve"/>
      <point x="492" y="713"/>
      <point x="624" y="623"/>
      <point x="695" y="464"/>
      <point x="695" y="363" type="qcurve"/>
      <point x="695" y="259"/>
      <point x="626" y="90"/>
      <point x="558" y="40" type="qcurve"/>
      <point x="581" y="17"/>
      <point x="634" y="-23"/>
      <point x="650" y="-29" type="qcurve"/>
      <point x="701" y="-50"/>
      <point x="701" y="-62" type="qcurve"/>
      <point x="701" y="-71"/>
      <point x="668" y="-71" type="qcurve"/>
      <point x="631" y="-71"/>
      <point x="587" y="-58"/>
      <point x="547" y="-29"/>
      <point x="505" y="9" type="qcurve"/>
    </contour>
    <contour>
      <point x="355" y="146"/>
      <point x="334" y="159"/>
      <point x="331" y="164" type="qcurve"/>
      <point x="330" y="167" type="line"/>
      <point x="330" y="177"/>
      <point x="373" y="202"/>
      <point x="388" y="202" type="qcurve"/>
      <point x="391" y="202" type="line"/>
      <point x="403" y="200"/>
      <point x="414" y="191"/>
      <point x="424" y="178"/>
      <point x="428" y="173" type="qcurve"/>
      <point x="443" y="155"/>
      <point x="511" y="87" type="qcurve"/>
      <point x="570" y="127"/>
      <point x="623" y="276"/>
      <point x="623" y="371" type="qcurve"/>
      <point x="623" y="443"/>
      <point x="573" y="573"/>
      <point x="472" y="654"/>
      <point x="399" y="654" type="qcurve"/>
      <point x="335" y="654"/>
      <point x="206" y="577"/>
      <point x="123" y="433"/>
      <point x="123" y="339" type="qcurve"/>
      <point x="123" y="210"/>
      <point x="240" y="45"/>
      <point x="358" y="45" type="qcurve"/>
      <point x="407" y="45"/>
      <point x="451" y="58" type="qcurve"/>
      <point x="366" y="136" type="line"/>
    </contour>
  </outline>
</glyph>
<glyph name="R" format="2">
  <advance height="1000" width="635"/>
  <unicode hex="0052"/>
  <outline>
    <contour>
      <point x="91" y="616"/>
      <point x="59" y="654"/>
      <point x="59" y="668" type="qcurve"/>
      <point x="59" y="677"/>
      <point x="67" y="678" type="qcurve"/>
      <point x="64" y="677"/>
      <point x="98" y="683" type="qcurve"/>
      <point x="151" y="691"/>
      <point x="180" y="697" type="qcurve"/>
      <point x="238" y="709"/>
      <point x="329" y="709" type="qcurve"/>
      <point x="406" y="709"/>
      <point x="507" y="661"/>
      <point x="554" y="585"/>
      <point x="554" y="541" type="qcurve"/>
      <point x="554" y="490"/>
      <point x="499" y="409"/>
      <point x="410" y="357"/>
      <point x="360" y="348" type="qcurve"/>
      <point x="341" y="344"/>
      <point x="295" y="340" type="qcurve"/>
      <point x="272" y="339" type="line"/>
      <point x="307" y="302"/>
      <point x="349" y="256" type="qcurve"/>
      <point x="414" y="185"/>
      <point x="486" y="109"/>
      <point x="522" y="78" type="qcurve"/>
      <point x="541" y="61"/>
      <point x="584" y="30"/>
      <point x="597" y="25" type="qcurve"/>
      <point x="615" y="18"/>
      <point x="640" y="2"/>
      <point x="640" y="-4" type="qcurve"/>
      <point x="640" y="-13"/>
      <point x="611" y="-13" type="qcurve"/>
      <point x="577" y="-13"/>
      <point x="518" y="3"/>
      <point x="490" y="26" type="qcurve"/>
      <point x="452" y="56"/>
      <point x="368" y="144"/>
      <point x="313" y="207" type="qcurve"/>
      <point x="304" y="217"/>
      <point x="243" y="285"/>
      <point x="223" y="304" type="qcurve"/>
      <point x="214" y="313"/>
      <point x="184" y="331"/>
      <point x="174" y="335" type="qcurve"/>
      <point x="174" y="115" type="line"/>
      <point x="174" y="83"/>
      <point x="176" y="39" type="qcurve"/>
      <point x="177" y="-1" type="line"/>
      <point x="177" y="-11"/>
      <point x="157" y="-11" type="qcurve"/>
      <point x="139" y="-11"/>
      <point x="104" y="5"/>
      <point x="104" y="17" type="qcurve"/>
      <point x="104" y="34"/>
      <point x="105" y="47" type="qcurve"/>
      <point x="106" y="116" type="line"/>
      <point x="106" y="616" type="line"/>
      <point x="105" y="616" type="line"/>
    </contour>
    <contour>
      <point x="264" y="388"/>
      <point x="330" y="398" type="qcurve"/>
      <point x="370" y="405"/>
      <point x="441" y="448"/>
      <point x="484" y="508"/>
      <point x="484" y="537" type="qcurve"/>
      <point x="484" y="588"/>
      <point x="399" y="649"/>
      <point x="327" y="649" type="qcurve"/>
      <point x="228" y="649"/>
      <point x="174" y="630" type="qcurve"/>
      <point x="174" y="370" type="line"/>
      <point x="188" y="388"/>
      <point x="201" y="388" type="qcurve"/>
      <point x="221" y="388" type="line"/>
    </contour>
  </outline>
</glyph>
<glyph name="S" format="2">
  <advance width="617" height="1000"/>
  <unicode hex="0053"/>
  <outline>
    <contour>
      <point x="157" y="387"/>
      <point x="75" y="462"/>
      <point x="75" y="526" type="qcurve"/>
      <point x="75" y="574"/>
      <point x="138" y="660"/>
      <point x="248" y="713"/>
      <point x="314" y="713" type="qcurve"/>
      <point x="367" y="713"/>
      <point x="465" y="681"/>
      <point x="525" y="634"/>
      <point x="525" y="613" type="qcurve"/>
      <point x="525" y="591"/>
      <point x="508" y="561"/>
      <point x="499" y="561" type="qcurve"/>
      <point x="489" y="561"/>
      <point x="473" y="580" type="qcurve"/>
      <point x="448" y="612"/>
      <point x="354" y="650"/>
      <point x="317" y="650" type="qcurve"/>
      <point x="270" y="650"/>
      <point x="192" y="614"/>
      <point x="146" y="555"/>
      <point x="146" y="524" type="qcurve"/>
      <point x="146" y="489"/>
      <point x="200" y="444"/>
      <point x="261" y="430" type="qcurve"/>
      <point x="370" y="402" type="line"/>
      <point x="466" y="377"/>
      <point x="560" y="273"/>
      <point x="560" y="192" type="qcurve"/>
      <point x="560" y="133"/>
      <point x="498" y="37"/>
      <point x="381" y="-18"/>
      <point x="301" y="-18" type="qcurve"/>
      <point x="219" y="-18"/>
      <point x="94" y="37"/>
      <point x="47" y="91" type="qcurve"/>
      <point x="42" y="96"/>
      <point x="42" y="107" type="qcurve"/>
      <point x="42" y="124"/>
      <point x="68" y="159"/>
      <point x="81" y="159" type="qcurve"/>
      <point x="89" y="159"/>
      <point x="93" y="152" type="qcurve"/>
      <point x="158" y="45"/>
      <point x="302" y="45" type="qcurve"/>
      <point x="350" y="45"/>
      <point x="436" y="82"/>
      <point x="489" y="146"/>
      <point x="489" y="184" type="qcurve"/>
      <point x="489" y="246"/>
      <point x="421" y="321"/>
      <point x="351" y="339" type="qcurve"/>
      <point x="234" y="370" type="line"/>
    </contour>
  </outline>
</glyph>
<glyph name="T" format="2">
  <advance height="1000" width="577"/>
  <unicode hex="0054"/>
  <outline>
    <contour>
      <point x="111" y="624"/>
      <point x="66" y="619" type="qcurve"/>
      <point x="51" y="616"/>
      <point x="43" y="616" type="qcurve"/>
      <point x="42" y="616" type="line"/>
      <point x="30" y="616"/>
      <point x="9" y="651"/>
      <point x="9" y="667" type="qcurve"/>
      <point x="9" y="685"/>
      <point x="22" y="685" type="qcurve"/>
      <point x="29" y="685"/>
      <point x="64" y="683"/>
      <point x="93" y="683" type="qcurve"/>
      <point x="125" y="684" type="line"/>
      <point x="447" y="702" type="line"/>
      <point x="508" y="706"/>
      <point x="530" y="710" type="qcurve"/>
      <point x="533" y="710" type="line"/>
      <point x="544" y="710"/>
      <point x="563" y="675"/>
      <point x="563" y="659" type="qcurve"/>
      <point x="563" y="641"/>
      <point x="551" y="641" type="qcurve"/>
      <point x="537" y="641"/>
      <point x="526" y="642" type="qcurve"/>
      <point x="494" y="644"/>
      <point x="471" y="644" type="qcurve"/>
      <point x="448" y="643" type="line"/>
      <point x="322" y="636" type="line"/>
      <point x="323" y="106" type="line"/>
      <point x="323" y="80"/>
      <point x="325" y="38" type="qcurve"/>
      <point x="326" y="0" type="line"/>
      <point x="326" y="-11"/>
      <point x="303" y="-11" type="qcurve"/>
      <point x="284" y="-11"/>
      <point x="249" y="5"/>
      <point x="249" y="18" type="qcurve"/>
      <point x="249" y="34"/>
      <point x="250" y="46" type="qcurve"/>
      <point x="251" y="107" type="line"/>
      <point x="252" y="632" type="line"/>
      <point x="126" y="625" type="line"/>
    </contour>
  </outline>
</glyph>
<glyph name="U" format="2">
  <advance height="1000" width="710"/>
  <unicode hex="0055"/>
  <outline>
    <contour>
      <point x="531" y="658" type="line"/>
      <point x="530" y="697" type="line"/>
      <point x="530" y="703"/>
      <point x="544" y="709"/>
      <point x="555" y="709" type="qcurve"/>
      <point x="573" y="709"/>
      <point x="607" y="694"/>
      <point x="607" y="682" type="qcurve"/>
      <point x="607" y="666"/>
      <point x="606" y="654" type="qcurve"/>
      <point x="605" y="594" type="line"/>
      <point x="605" y="230" type="line"/>
      <point x="605" y="156"/>
      <point x="539" y="44"/>
      <point x="420" y="-18"/>
      <point x="342" y="-18" type="qcurve"/>
      <point x="106" y="-18"/>
      <point x="106" y="198" type="qcurve"/>
      <point x="106" y="586" type="line"/>
      <point x="106" y="613"/>
      <point x="104" y="655" type="qcurve"/>
      <point x="103" y="695" type="line"/>
      <point x="103" y="701"/>
      <point x="117" y="707"/>
      <point x="128" y="707" type="qcurve"/>
      <point x="146" y="707"/>
      <point x="180" y="692"/>
      <point x="180" y="680" type="qcurve"/>
      <point x="180" y="662"/>
      <point x="179" y="649" type="qcurve"/>
      <point x="178" y="584" type="line"/>
      <point x="178" y="210" type="line"/>
      <point x="178" y="122"/>
      <point x="260" y="45"/>
      <point x="342" y="45" type="qcurve"/>
      <point x="397" y="45"/>
      <point x="484" y="96"/>
      <point x="533" y="186"/>
      <point x="533" y="242" type="qcurve"/>
      <point x="533" y="595" type="line"/>
    </contour>
  </outline>
</glyph>
<glyph name="V" format="2">
  <advance height="1000" width="620"/>
  <unicode hex="0056"/>
  <outline>
    <contour>
      <point x="441" y="463"/>
      <point x="505" y="620" type="qcurve"/>
      <point x="522" y="660"/>
      <point x="533" y="700" type="qcurve"/>
      <point x="536" y="711"/>
      <point x="552" y="711" type="qcurve"/>
      <point x="570" y="711"/>
      <point x="609" y="687"/>
      <point x="609" y="673" type="qcurve"/>
      <point x="609" y="668"/>
      <point x="607" y="665" type="qcurve"/>
      <point x="589" y="637"/>
      <point x="573" y="600" type="qcurve"/>
      <point x="435" y="274"/>
      <point x="349" y="42"/>
      <point x="344" y="6" type="qcurve"/>
      <point x="343" y="-5"/>
      <point x="328" y="-17"/>
      <point x="318" y="-17" type="qcurve"/>
      <point x="301" y="-17"/>
      <point x="266" y="16"/>
      <point x="255" y="46" type="qcurve"/>
      <point x="201" y="205"/>
      <point x="46" y="615"/>
      <point x="12" y="684" type="qcurve"/>
      <point x="11" y="688" type="line"/>
      <point x="11" y="696"/>
      <point x="33" y="704"/>
      <point x="48" y="704" type="qcurve"/>
      <point x="65" y="704"/>
      <point x="94" y="693"/>
      <point x="96" y="684" type="qcurve"/>
      <point x="102" y="661"/>
      <point x="113" y="632" type="qcurve"/>
      <point x="192" y="431"/>
      <point x="304" y="99" type="qcurve"/>
    </contour>
  </outline>
</glyph>
<glyph name="W" format="2">
  <advance width="880" height="1000"/>
  <unicode hex="0057"/>
  <outline>
    <contour>
      <point x="168" y="423"/>
      <point x="236" y="100" type="qcurve"/>
      <point x="260" y="203"/>
      <point x="311" y="383"/>
      <point x="353" y="527" type="qcurve"/>
      <point x="378" y="611" type="line"/>
      <point x="389" y="647"/>
      <point x="390" y="670" type="qcurve"/>
      <point x="390" y="680"/>
      <point x="411" y="690"/>
      <point x="427" y="690" type="qcurve"/>
      <point x="446" y="690"/>
      <point x="480" y="677"/>
      <point x="481" y="667" type="qcurve"/>
      <point x="483" y="658"/>
      <point x="489" y="632" type="qcurve"/>
      <point x="566" y="368"/>
      <point x="625" y="99" type="qcurve"/>
      <point x="708" y="405"/>
      <point x="765" y="589" type="qcurve"/>
      <point x="779" y="635"/>
      <point x="790" y="679" type="qcurve"/>
      <point x="796" y="701" type="line"/>
      <point x="799" y="711"/>
      <point x="814" y="711" type="qcurve"/>
      <point x="832" y="711"/>
      <point x="874" y="687"/>
      <point x="874" y="673" type="qcurve"/>
      <point x="874" y="670"/>
      <point x="873" y="668" type="qcurve"/>
      <point x="847" y="608"/>
      <point x="762" y="350"/>
      <point x="683" y="79" type="qcurve"/>
      <point x="680" y="67"/>
      <point x="674" y="45"/>
      <point x="672" y="35" type="qcurve"/>
      <point x="666" y="7" type="line"/>
      <point x="663" y="-5"/>
      <point x="647" y="-18"/>
      <point x="636" y="-18" type="qcurve"/>
      <point x="617" y="-18"/>
      <point x="580" y="16"/>
      <point x="573" y="46" type="qcurve"/>
      <point x="493" y="388"/>
      <point x="439" y="581" type="qcurve"/>
      <point x="414" y="501"/>
      <point x="348" y="268"/>
      <point x="336" y="226" type="qcurve"/>
      <point x="295" y="78" type="line"/>
      <point x="292" y="68"/>
      <point x="288" y="50" type="qcurve"/>
      <point x="283" y="29"/>
      <point x="276" y="6" type="qcurve"/>
      <point x="268" y="-17"/>
      <point x="247" y="-17" type="qcurve"/>
      <point x="229" y="-17"/>
      <point x="194" y="17"/>
      <point x="187" y="46" type="qcurve"/>
      <point x="140" y="242"/>
      <point x="36" y="623"/>
      <point x="10" y="684" type="qcurve"/>
      <point x="9" y="686"/>
      <point x="9" y="689" type="qcurve"/>
      <point x="9" y="697"/>
      <point x="29" y="705"/>
      <point x="44" y="705" type="qcurve"/>
      <point x="62" y="705"/>
      <point x="90" y="694"/>
      <point x="92" y="685" type="qcurve"/>
      <point x="106" y="632" type="line"/>
    </contour>
  </outline>
</glyph>
<glyph name="X" format="2">
  <advance height="1000" width="600"/>
  <unicode hex="0058"/>
  <outline>
    <contour>
      <point x="124" y="53"/>
      <point x="90" y="0" type="qcurve"/>
      <point x="83" y="-10"/>
      <point x="61" y="-10" type="qcurve"/>
      <point x="42" y="-10"/>
      <point x="9" y="5"/>
      <point x="9" y="15" type="qcurve"/>
      <point x="9" y="18"/>
      <point x="14" y="25" type="qcurve"/>
      <point x="67" y="86"/>
      <point x="92" y="123" type="qcurve"/>
      <point x="151" y="210"/>
      <point x="261" y="369" type="qcurve"/>
      <point x="165" y="517"/>
      <point x="83" y="629"/>
      <point x="49" y="668" type="qcurve"/>
      <point x="45" y="672"/>
      <point x="45" y="677" type="qcurve"/>
      <point x="45" y="689"/>
      <point x="84" y="708"/>
      <point x="103" y="708" type="qcurve"/>
      <point x="119" y="708"/>
      <point x="124" y="700" type="qcurve"/>
      <point x="141" y="668"/>
      <point x="169" y="624" type="qcurve"/>
      <point x="188" y="595"/>
      <point x="226" y="539"/>
      <point x="244" y="512" type="qcurve"/>
      <point x="307" y="419" type="line"/>
      <point x="485" y="671"/>
      <point x="500" y="694" type="qcurve"/>
      <point x="505" y="700"/>
      <point x="515" y="700" type="qcurve"/>
      <point x="531" y="700"/>
      <point x="567" y="677"/>
      <point x="567" y="665" type="qcurve"/>
      <point x="567" y="660"/>
      <point x="563" y="656" type="qcurve"/>
      <point x="534" y="627"/>
      <point x="403" y="448"/>
      <point x="343" y="361" type="qcurve"/>
      <point x="443" y="209"/>
      <point x="547" y="73"/>
      <point x="590" y="28" type="qcurve"/>
      <point x="594" y="24"/>
      <point x="594" y="19" type="qcurve"/>
      <point x="594" y="8"/>
      <point x="555" y="-13"/>
      <point x="537" y="-13" type="qcurve"/>
      <point x="522" y="-13"/>
      <point x="514" y="-4" type="qcurve"/>
      <point x="486" y="37" type="line"/>
      <point x="475" y="56"/>
      <point x="456" y="82" type="qcurve"/>
      <point x="385" y="182"/>
      <point x="300" y="312" type="qcurve"/>
    </contour>
  </outline>
</glyph>
<glyph name="Y" format="2">
  <advance height="1000" width="600"/>
  <unicode hex="0059"/>
  <outline>
    <contour>
      <point x="209" y="383"/>
      <point x="50" y="632"/>
      <point x="20" y="669" type="qcurve"/>
      <point x="15" y="676"/>
      <point x="15" y="679" type="qcurve"/>
      <point x="15" y="689"/>
      <point x="49" y="701"/>
      <point x="69" y="701" type="qcurve"/>
      <point x="90" y="701"/>
      <point x="94" y="695" type="qcurve"/>
      <point x="98" y="689"/>
      <point x="106" y="673" type="qcurve"/>
      <point x="114" y="657"/>
      <point x="128" y="633" type="qcurve"/>
      <point x="130" y="629"/>
      <point x="137" y="618"/>
      <point x="141" y="611" type="qcurve"/>
      <point x="239" y="455"/>
      <point x="294" y="360" type="qcurve"/>
      <point x="353" y="458"/>
      <point x="462" y="631" type="qcurve"/>
      <point x="490" y="676"/>
      <point x="503" y="699" type="qcurve"/>
      <point x="509" y="709"/>
      <point x="527" y="709" type="qcurve"/>
      <point x="545" y="709"/>
      <point x="582" y="692"/>
      <point x="582" y="683" type="qcurve"/>
      <point x="582" y="682"/>
      <point x="580" y="678" type="qcurve"/>
      <point x="530" y="618"/>
      <point x="369" y="362"/>
      <point x="330" y="293" type="qcurve"/>
      <point x="330" y="107" type="line"/>
      <point x="332" y="52" type="line"/>
      <point x="333" y="1" type="line"/>
      <point x="333" y="-9"/>
      <point x="312" y="-9" type="qcurve"/>
      <point x="293" y="-9"/>
      <point x="256" y="7"/>
      <point x="256" y="19" type="qcurve"/>
      <point x="256" y="40"/>
      <point x="257" y="55" type="qcurve"/>
      <point x="258" y="108" type="line"/>
      <point x="258" y="292" type="line"/>
    </contour>
  </outline>
</glyph>
<glyph name="Z" format="2">
  <advance height="1000" width="600"/>
  <unicode hex="005A"/>
  <outline>
    <contour>
      <point x="494" y="4"/>
      <point x="457" y="5" type="qcurve"/>
      <point x="292" y="5" type="line"/>
      <point x="181" y="5"/>
      <point x="103" y="0" type="qcurve"/>
      <point x="98" y="0"/>
      <point x="76" y="-7"/>
      <point x="69" y="-7" type="qcurve"/>
      <point x="57" y="-7"/>
      <point x="28" y="26"/>
      <point x="28" y="43" type="qcurve"/>
      <point x="28" y="48"/>
      <point x="29" y="51" type="qcurve"/>
      <point x="31" y="58"/>
      <point x="60" y="85"/>
      <point x="62" y="88" type="qcurve"/>
      <point x="162" y="243"/>
      <point x="340" y="494"/>
      <point x="451" y="637" type="qcurve"/>
      <point x="199" y="619" type="line"/>
      <point x="169" y="617"/>
      <point x="132" y="613"/>
      <point x="124" y="612" type="qcurve"/>
      <point x="123" y="612" type="line"/>
      <point x="108" y="612"/>
      <point x="83" y="654"/>
      <point x="83" y="671" type="qcurve"/>
      <point x="83" y="683"/>
      <point x="91" y="683" type="qcurve"/>
      <point x="93" y="683" type="line"/>
      <point x="121" y="679"/>
      <point x="151" y="679" type="qcurve"/>
      <point x="166" y="679"/>
      <point x="198" y="681" type="qcurve"/>
      <point x="440" y="697" type="line"/>
      <point x="457" y="698"/>
      <point x="484" y="702" type="qcurve"/>
      <point x="492" y="703"/>
      <point x="511" y="705"/>
      <point x="520" y="705" type="qcurve"/>
      <point x="534" y="705"/>
      <point x="562" y="668"/>
      <point x="562" y="652" type="qcurve"/>
      <point x="562" y="642"/>
      <point x="555" y="639" type="qcurve"/>
      <point x="535" y="631"/>
      <point x="517" y="610" type="qcurve"/>
      <point x="420" y="492"/>
      <point x="211" y="195"/>
      <point x="128" y="62" type="qcurve"/>
      <point x="200" y="68"/>
      <point x="286" y="68" type="qcurve"/>
      <point x="410" y="68"/>
      <point x="456" y="67" type="qcurve"/>
      <point x="519" y="67"/>
      <point x="539" y="68" type="qcurve"/>
      <point x="540" y="68" type="line"/>
      <point x="552" y="68"/>
      <point x="572" y="32"/>
      <point x="572" y="15" type="qcurve"/>
      <point x="572" y="-1"/>
      <point x="561" y="-1" type="qcurve"/>
      <point x="560" y="-1" type="line"/>
    </contour>
  </outline>
</glyph>
<glyph name="bracketleft" format="2">
  <advance height="1000" width="350"/>
  <unicode hex="005B"/>
  <outline>
    <contour>
      <point x="205" y="-162"/>
      <point x="195" y="-165" type="qcurve"/>
      <point x="190" y="-166" type="line"/>
      <point x="177" y="-166"/>
      <point x="155" y="-141"/>
      <point x="155" y="-129" type="qcurve"/>
      <point x="156" y="-105" type="line"/>
      <point x="158" y="-66" type="line"/>
      <point x="158" y="663" type="line"/>
      <point x="158" y="671"/>
      <point x="155" y="701" type="qcurve"/>
      <point x="153" y="717"/>
      <point x="153" y="722" type="qcurve"/>
      <point x="153" y="736"/>
      <point x="171" y="749"/>
      <point x="196" y="749" type="qcurve"/>
      <point x="274" y="749"/>
      <point x="300" y="751" type="qcurve"/>
      <point x="301" y="751" type="line"/>
      <point x="313" y="751"/>
      <point x="330" y="727"/>
      <point x="330" y="714" type="qcurve"/>
      <point x="330" y="706"/>
      <point x="322" y="696"/>
      <point x="315" y="696" type="qcurve"/>
      <point x="219" y="696" type="line"/>
      <point x="219" y="-110" type="line"/>
      <point x="233" y="-110"/>
      <point x="255" y="-108" type="qcurve"/>
      <point x="298" y="-107" type="line"/>
      <point x="310" y="-107"/>
      <point x="327" y="-132"/>
      <point x="327" y="-145" type="qcurve"/>
      <point x="327" y="-162"/>
      <point x="313" y="-162" type="qcurve"/>
      <point x="226" y="-162" type="line"/>
    </contour>
  </outline>
</glyph>
<glyph name="backslash" format="2">
  <advance height="1000" width="350"/>
  <unicode hex="005C"/>
  <outline>
    <contour>
      <point x="32" y="642"/>
      <point x="10" y="690" type="qcurve"/>
      <point x="9" y="691"/>
      <point x="9" y="694" type="qcurve"/>
      <point x="9" y="705"/>
      <point x="41" y="736"/>
      <point x="54" y="736" type="qcurve"/>
      <point x="64" y="736"/>
      <point x="67" y="723" type="qcurve"/>
      <point x="78" y="680"/>
      <point x="91" y="645" type="qcurve"/>
      <point x="305" y="55" type="line"/>
      <point x="315" y="27"/>
      <point x="333" y="-6" type="qcurve"/>
      <point x="336" y="-12"/>
      <point x="336" y="-19" type="qcurve"/>
      <point x="336" y="-33"/>
      <point x="310" y="-57"/>
      <point x="297" y="-57" type="qcurve"/>
      <point x="284" y="-57"/>
      <point x="280" y="-44" type="qcurve"/>
      <point x="262" y="10" type="line"/>
      <point x="254" y="32" type="line"/>
      <point x="38" y="625" type="line"/>
    </contour>
  </outline>
</glyph>
<glyph name="asciicircum" format="2">
  <advance height="1000" width="600"/>
  <unicode hex="005E"/>
  <outline>
    <contour>
      <point x="158" y="309"/>
      <point x="143" y="265" type="qcurve"/>
      <point x="140" y="257"/>
      <point x="125" y="257" type="qcurve"/>
      <point x="109" y="257"/>
      <point x="77" y="273"/>
      <point x="77" y="282" type="qcurve"/>
      <point x="77" y="285"/>
      <point x="78" y="287" type="qcurve"/>
      <point x="98" y="320"/>
      <point x="110" y="347" type="qcurve"/>
      <point x="260" y="658" type="line"/>
      <point x="263" y="665"/>
      <point x="268" y="684"/>
      <point x="278" y="696"/>
      <point x="291" y="700" type="qcurve"/>
      <point x="303" y="702"/>
      <point x="306" y="702" type="qcurve"/>
      <point x="318" y="702"/>
      <point x="329" y="690"/>
      <point x="337" y="675"/>
      <point x="339" y="671" type="qcurve"/>
      <point x="497" y="344" type="line"/>
      <point x="515" y="305"/>
      <point x="529" y="280" type="qcurve"/>
      <point x="530" y="276" type="line"/>
      <point x="530" y="268"/>
      <point x="506" y="259"/>
      <point x="490" y="259" type="qcurve"/>
      <point x="478" y="259"/>
      <point x="460" y="265"/>
      <point x="459" y="271" type="qcurve"/>
      <point x="448" y="312"/>
      <point x="438" y="331" type="qcurve"/>
      <point x="303" y="615" type="line"/>
      <point x="168" y="331" type="line"/>
    </contour>
  </outline>
</glyph>
<glyph name="grave" format="2">
  <advance height="1000" width="350"/>
  <unicode hex="0060"/>
  <outline>
    <contour>
      <point x="85" y="667"/>
      <point x="85" y="677" type="qcurve"/>
      <point x="85" y="691"/>
      <point x="115" y="717"/>
      <point x="131" y="717" type="qcurve"/>
      <point x="145" y="717"/>
      <point x="153" y="708" type="qcurve"/>
      <point x="256" y="602" type="line"/>
      <point x="263" y="595"/>
      <point x="263" y="585" type="qcurve"/>
      <point x="263" y="572"/>
      <point x="243" y="549"/>
      <point x="230" y="549" type="qcurve"/>
      <point x="220" y="549"/>
      <point x="213" y="556" type="qcurve"/>
      <point x="93" y="660" type="line"/>
    </contour>
  </outline>
</glyph>
<glyph name="a" format="2">
  <advance height="1000" width="575"/>
  <unicode hex="0061"/>
  <outline>
    <contour>
      <point x="489" y="434"/>
      <point x="483" y="336"/>
      <point x="482" y="314" type="qcurve"/>
      <point x="476" y="214"/>
      <point x="476" y="193" type="qcurve"/>
      <point x="476" y="89"/>
      <point x="511" y="35" type="qcurve"/>
      <point x="513" y="31"/>
      <point x="513" y="29" type="qcurve"/>
      <point x="513" y="17"/>
      <point x="485" y="-13"/>
      <point x="469" y="-13" type="qcurve"/>
      <point x="448" y="-13"/>
      <point x="419" y="69"/>
      <point x="415" y="118" type="qcurve"/>
      <point x="379" y="50"/>
      <point x="276" y="-18"/>
      <point x="217" y="-18" type="qcurve"/>
      <point x="143" y="-18"/>
      <point x="56" y="82"/>
      <point x="56" y="175" type="qcurve"/>
      <point x="56" y="257"/>
      <point x="127" y="401"/>
      <point x="242" y="486"/>
      <point x="303" y="486" type="qcurve"/>
      <point x="380" y="486"/>
      <point x="413" y="420" type="qcurve"/>
      <point x="413" y="475" type="line"/>
      <point x="413" y="485"/>
      <point x="434" y="485" type="qcurve"/>
      <point x="453" y="485"/>
      <point x="489" y="470"/>
      <point x="489" y="459" type="qcurve"/>
      <point x="489" y="457" type="line"/>
    </contour>
    <contour>
      <point x="403" y="371"/>
      <point x="395" y="371" type="qcurve"/>
      <point x="391" y="371"/>
      <point x="388" y="375" type="qcurve"/>
      <point x="372" y="402"/>
      <point x="327" y="428"/>
      <point x="303" y="428" type="qcurve"/>
      <point x="262" y="428"/>
      <point x="178" y="362"/>
      <point x="124" y="248"/>
      <point x="124" y="180" type="qcurve"/>
      <point x="124" y="108"/>
      <point x="173" y="42"/>
      <point x="216" y="42" type="qcurve"/>
      <point x="264" y="42"/>
      <point x="351" y="106"/>
      <point x="407" y="219"/>
      <point x="410" y="291" type="qcurve"/>
      <point x="411" y="301"/>
      <point x="411" y="335" type="qcurve"/>
      <point x="412" y="380" type="line"/>
    </contour>
  </outline>
</glyph>
<glyph name="b" format="2">
  <advance height="1000" width="573"/>
  <unicode hex="0062"/>
  <outline>
    <contour>
      <point x="150" y="16"/>
      <point x="120" y="-5"/>
      <point x="107" y="-5" type="qcurve"/>
      <point x="90" y="-5"/>
      <point x="90" y="15" type="qcurve"/>
      <point x="90" y="32"/>
      <point x="91" y="44" type="qcurve"/>
      <point x="92" y="106" type="line"/>
      <point x="92" y="593" type="line"/>
      <point x="92" y="619"/>
      <point x="90" y="661" type="qcurve"/>
      <point x="89" y="699" type="line"/>
      <point x="89" y="709"/>
      <point x="109" y="709" type="qcurve"/>
      <point x="127" y="709"/>
      <point x="162" y="693"/>
      <point x="162" y="681" type="qcurve"/>
      <point x="161" y="653" type="line"/>
      <point x="158" y="626"/>
      <point x="158" y="592" type="qcurve"/>
      <point x="158" y="369" type="line"/>
      <point x="196" y="433"/>
      <point x="287" y="486"/>
      <point x="346" y="486" type="qcurve"/>
      <point x="423" y="486"/>
      <point x="517" y="377"/>
      <point x="517" y="278" type="qcurve"/>
      <point x="517" y="195"/>
      <point x="451" y="60"/>
      <point x="339" y="-17"/>
      <point x="272" y="-17" type="qcurve"/>
      <point x="234" y="-17"/>
      <point x="173" y="16"/>
      <point x="155" y="44" type="qcurve"/>
      <point x="152" y="26" type="line"/>
    </contour>
    <contour>
      <point x="160" y="103"/>
      <point x="163" y="103" type="qcurve"/>
      <point x="174" y="103"/>
      <point x="184" y="87" type="qcurve"/>
      <point x="202" y="61"/>
      <point x="247" y="41"/>
      <point x="275" y="41" type="qcurve"/>
      <point x="313" y="41"/>
      <point x="394" y="98"/>
      <point x="449" y="205"/>
      <point x="449" y="276" type="qcurve"/>
      <point x="449" y="349"/>
      <point x="388" y="426"/>
      <point x="346" y="426" type="qcurve"/>
      <point x="282" y="426"/>
      <point x="180" y="329"/>
      <point x="164" y="253" type="qcurve"/>
      <point x="156" y="215"/>
      <point x="156" y="101" type="qcurve"/>
    </contour>
  </outline>
</glyph>
<glyph name="c" format="2">
  <advance width="530" height="1000"/>
  <unicode hex="0063"/>
  <outline>
    <contour>
      <point x="486" y="129"/>
      <point x="429" y="49"/>
      <point x="323" y="-18"/>
      <point x="250" y="-18" type="qcurve"/>
      <point x="197" y="-18"/>
      <point x="108" y="32"/>
      <point x="56" y="128"/>
      <point x="56" y="194" type="qcurve"/>
      <point x="56" y="271"/>
      <point x="132" y="406"/>
      <point x="251" y="486"/>
      <point x="313" y="486" type="qcurve"/>
      <point x="362" y="486"/>
      <point x="427" y="451"/>
      <point x="458" y="409"/>
      <point x="458" y="401" type="qcurve"/>
      <point x="458" y="386"/>
      <point x="429" y="355"/>
      <point x="416" y="355" type="qcurve"/>
      <point x="410" y="355"/>
      <point x="407" y="360" type="qcurve"/>
      <point x="404" y="365"/>
      <point x="393" y="387"/>
      <point x="382" y="402"/>
      <point x="375" y="407" type="qcurve"/>
      <point x="346" y="427"/>
      <point x="315" y="427" type="qcurve"/>
      <point x="273" y="427"/>
      <point x="183" y="364"/>
      <point x="124" y="259"/>
      <point x="124" y="199" type="qcurve"/>
      <point x="124" y="150"/>
      <point x="161" y="77"/>
      <point x="220" y="40"/>
      <point x="250" y="40" type="qcurve"/>
      <point x="353" y="40"/>
      <point x="453" y="140" type="qcurve"/>
      <point x="468" y="155"/>
      <point x="477" y="155" type="qcurve"/>
      <point x="486" y="155"/>
      <point x="486" y="143" type="qcurve"/>
    </contour>
  </outline>
</glyph>
<glyph name="d" format="2">
  <advance height="1000" width="575"/>
  <unicode hex="0064"/>
  <outline>
    <contour>
      <point x="417" y="619"/>
      <point x="415" y="661" type="qcurve"/>
      <point x="413" y="691"/>
      <point x="413" y="699" type="qcurve"/>
      <point x="413" y="709"/>
      <point x="433" y="709" type="qcurve"/>
      <point x="451" y="709"/>
      <point x="485" y="693"/>
      <point x="485" y="681" type="qcurve"/>
      <point x="485" y="665"/>
      <point x="484" y="653" type="qcurve"/>
      <point x="483" y="592" type="line"/>
      <point x="483" y="185" type="line"/>
      <point x="483" y="140"/>
      <point x="501" y="59"/>
      <point x="517" y="39" type="qcurve"/>
      <point x="519" y="35"/>
      <point x="519" y="32" type="qcurve"/>
      <point x="519" y="19"/>
      <point x="490" y="-12"/>
      <point x="475" y="-12" type="qcurve"/>
      <point x="460" y="-12"/>
      <point x="436" y="36"/>
      <point x="421" y="99"/>
      <point x="420" y="118" type="qcurve"/>
      <point x="377" y="47"/>
      <point x="280" y="-18"/>
      <point x="220" y="-18" type="qcurve"/>
      <point x="146" y="-18"/>
      <point x="56" y="90"/>
      <point x="56" y="186" type="qcurve"/>
      <point x="56" y="263"/>
      <point x="126" y="402"/>
      <point x="241" y="486"/>
      <point x="305" y="486" type="qcurve"/>
      <point x="342" y="486"/>
      <point x="401" y="458"/>
      <point x="417" y="434" type="qcurve"/>
      <point x="417" y="593" type="line"/>
    </contour>
    <contour>
      <point x="413" y="377"/>
      <point x="407" y="377" type="qcurve"/>
      <point x="402" y="377"/>
      <point x="398" y="382" type="qcurve"/>
      <point x="383" y="403"/>
      <point x="332" y="428"/>
      <point x="306" y="428" type="qcurve"/>
      <point x="258" y="428"/>
      <point x="174" y="358"/>
      <point x="124" y="247"/>
      <point x="124" y="189" type="qcurve"/>
      <point x="124" y="117"/>
      <point x="176" y="42"/>
      <point x="220" y="42" type="qcurve"/>
      <point x="262" y="42"/>
      <point x="355" y="107"/>
      <point x="417" y="216"/>
      <point x="417" y="276" type="qcurve"/>
      <point x="417" y="381" type="line"/>
    </contour>
  </outline>
</glyph>
<glyph name="e" format="2">
  <advance height="1000" width="543"/>
  <unicode hex="0065"/>
  <outline>
    <contour>
      <point x="127" y="121"/>
      <point x="193" y="41"/>
      <point x="244" y="41" type="qcurve"/>
      <point x="375" y="41"/>
      <point x="455" y="125" type="qcurve"/>
      <point x="467" y="140"/>
      <point x="478" y="140" type="qcurve"/>
      <point x="482" y="140"/>
      <point x="488" y="133"/>
      <point x="488" y="128" type="qcurve"/>
      <point x="488" y="112"/>
      <point x="429" y="40"/>
      <point x="319" y="-18"/>
      <point x="244" y="-18" type="qcurve"/>
      <point x="192" y="-18"/>
      <point x="110" y="34"/>
      <point x="62" y="131"/>
      <point x="62" y="195" type="qcurve"/>
      <point x="62" y="209" type="line"/>
      <point x="53" y="216"/>
      <point x="41" y="234"/>
      <point x="41" y="241" type="qcurve"/>
      <point x="41" y="254"/>
      <point x="60" y="254" type="qcurve"/>
      <point x="69" y="255" type="line"/>
      <point x="78" y="305"/>
      <point x="150" y="413"/>
      <point x="258" y="486"/>
      <point x="319" y="486" type="qcurve"/>
      <point x="405" y="486"/>
      <point x="485" y="401"/>
      <point x="485" y="340" type="qcurve"/>
      <point x="485" y="302"/>
      <point x="474" y="266"/>
      <point x="434" y="241"/>
      <point x="389" y="227" type="qcurve"/>
      <point x="291" y="196"/>
      <point x="140" y="196" type="qcurve"/>
      <point x="127" y="196" type="line"/>
      <point x="127" y="186" type="line"/>
    </contour>
    <contour>
      <point x="267" y="252"/>
      <point x="362" y="278" type="qcurve"/>
      <point x="397" y="288"/>
      <point x="419" y="314"/>
      <point x="419" y="341" type="qcurve"/>
      <point x="419" y="385"/>
      <point x="369" y="428"/>
      <point x="318" y="428" type="qcurve"/>
      <point x="272" y="428"/>
      <point x="194" y="372"/>
      <point x="143" y="290"/>
      <point x="135" y="252" type="qcurve"/>
      <point x="155" y="252" type="line"/>
    </contour>
  </outline>
</glyph>
<glyph name="f" format="2">
  <advance height="1000" width="370"/>
  <unicode hex="0066"/>
  <outline>
    <contour>
      <point x="95" y="423"/>
      <point x="73" y="421" type="qcurve"/>
      <point x="59" y="419"/>
      <point x="50" y="419" type="qcurve"/>
      <point x="49" y="419" type="line"/>
      <point x="38" y="419"/>
      <point x="17" y="449"/>
      <point x="17" y="462" type="qcurve"/>
      <point x="17" y="476"/>
      <point x="29" y="476" type="qcurve"/>
      <point x="103" y="476" type="line"/>
      <point x="127" y="477" type="line"/>
      <point x="127" y="589" type="line"/>
      <point x="127" y="644"/>
      <point x="198" y="708"/>
      <point x="245" y="708" type="qcurve"/>
      <point x="279" y="708"/>
      <point x="329" y="687"/>
      <point x="355" y="658"/>
      <point x="355" y="646" type="qcurve"/>
      <point x="355" y="631"/>
      <point x="335" y="600"/>
      <point x="324" y="600" type="qcurve"/>
      <point x="316" y="600"/>
      <point x="309" y="611" type="qcurve"/>
      <point x="299" y="630"/>
      <point x="263" y="647"/>
      <point x="244" y="647" type="qcurve"/>
      <point x="223" y="647"/>
      <point x="195" y="615"/>
      <point x="195" y="585" type="qcurve"/>
      <point x="195" y="479" type="line"/>
      <point x="216" y="480" type="line"/>
      <point x="221" y="480"/>
      <point x="302" y="486" type="qcurve"/>
      <point x="303" y="486" type="line"/>
      <point x="315" y="486"/>
      <point x="335" y="457"/>
      <point x="335" y="443" type="qcurve"/>
      <point x="335" y="428"/>
      <point x="323" y="428" type="qcurve"/>
      <point x="253" y="428"/>
      <point x="227" y="427" type="qcurve"/>
      <point x="195" y="426" type="line"/>
      <point x="195" y="105" type="line"/>
      <point x="195" y="79"/>
      <point x="197" y="37" type="qcurve"/>
      <point x="198" y="-1" type="line"/>
      <point x="198" y="-11"/>
      <point x="178" y="-11" type="qcurve"/>
      <point x="160" y="-11"/>
      <point x="125" y="5"/>
      <point x="125" y="17" type="qcurve"/>
      <point x="125" y="35"/>
      <point x="126" y="49" type="qcurve"/>
      <point x="127" y="116" type="line"/>
      <point x="127" y="423" type="line"/>
      <point x="114" y="423" type="line"/>
    </contour>
  </outline>
</glyph>
<glyph name="i" format="2">
  <advance height="1000" width="263"/>
  <unicode hex="0069"/>
  <outline>
    <contour>
      <point x="180" y="617"/>
      <point x="154" y="590"/>
      <point x="131" y="590" type="qcurve"/>
      <point x="112" y="590"/>
      <point x="81" y="628"/>
      <point x="81" y="650" type="qcurve"/>
      <point x="81" y="671"/>
      <point x="107" y="698"/>
      <point x="131" y="698" type="qcurve"/>
      <point x="149" y="698"/>
      <point x="180" y="658"/>
      <point x="180" y="636" type="qcurve"/>
    </contour>
    <contour>
      <point x="96" y="417" type="line"/>
      <point x="94" y="475" type="line"/>
      <point x="94" y="484"/>
      <point x="113" y="484" type="qcurve"/>
      <point x="131" y="484"/>
      <point x="168" y="468"/>
      <point x="168" y="457" type="qcurve"/>
      <point x="168" y="436"/>
      <point x="167" y="421" type="qcurve"/>
      <point x="166" y="368" type="line"/>
      <point x="166" y="105" type="line"/>
      <point x="167" y="67" type="line"/>
      <point x="169" y="-1" type="line"/>
      <point x="169" y="-10"/>
      <point x="150" y="-10" type="qcurve"/>
      <point x="132" y="-10"/>
      <point x="95" y="6"/>
      <point x="95" y="17" type="qcurve"/>
      <point x="97" y="105" type="line"/>
      <point x="97" y="368" type="line"/>
    </contour>
  </outline>
</glyph>
<glyph name="j" format="2">
  <advance height="1000" width="301"/>
  <unicode hex="006A"/>
  <outline>
    <contour>
      <point x="223" y="617"/>
      <point x="197" y="590"/>
      <point x="174" y="590" type="qcurve"/>
      <point x="155" y="590"/>
      <point x="124" y="628"/>
      <point x="124" y="650" type="qcurve"/>
      <point x="124" y="671"/>
      <point x="150" y="698"/>
      <point x="174" y="698" type="qcurve"/>
      <point x="192" y="698"/>
      <point x="223" y="658"/>
      <point x="223" y="636" type="qcurve"/>
    </contour>
    <contour>
      <point x="138" y="415" type="line"/>
      <point x="136" y="475" type="line"/>
      <point x="136" y="485"/>
      <point x="156" y="485" type="qcurve"/>
      <point x="174" y="485"/>
      <point x="209" y="469"/>
      <point x="209" y="457" type="qcurve"/>
      <point x="209" y="435"/>
      <point x="208" y="419" type="qcurve"/>
      <point x="207" y="364" type="line"/>
      <point x="207" y="-30" type="line"/>
      <point x="207" y="-83"/>
      <point x="161" y="-162"/>
      <point x="104" y="-162" type="qcurve"/>
      <point x="60" y="-162"/>
      <point x="1" y="-132"/>
      <point x="1" y="-112" type="qcurve"/>
      <point x="1" y="-97"/>
      <point x="22" y="-66"/>
      <point x="34" y="-66" type="qcurve"/>
      <point x="43" y="-66"/>
      <point x="50" y="-75" type="qcurve"/>
      <point x="63" y="-91"/>
      <point x="88" y="-100"/>
      <point x="104" y="-100" type="qcurve"/>
      <point x="120" y="-100"/>
      <point x="139" y="-62"/>
      <point x="139" y="-31" type="qcurve"/>
      <point x="139" y="364" type="line"/>
    </contour>
  </outline>
</glyph>
<glyph name="k" format="2">
  <advance height="1000" width="510"/>
  <unicode hex="006B"/>
  <outline>
    <contour>
      <point x="91" y="639" type="line"/>
      <point x="89" y="697" type="line"/>
      <point x="89" y="707"/>
      <point x="109" y="707" type="qcurve"/>
      <point x="127" y="707"/>
      <point x="162" y="691"/>
      <point x="162" y="679" type="qcurve"/>
      <point x="160" y="643" type="line"/>
      <point x="158" y="590" type="line"/>
      <point x="158" y="314" type="line"/>
      <point x="346" y="444" type="line"/>
      <point x="363" y="456"/>
      <point x="386" y="479" type="qcurve"/>
      <point x="390" y="484"/>
      <point x="402" y="484" type="qcurve"/>
      <point x="420" y="484"/>
      <point x="462" y="462"/>
      <point x="462" y="452" type="qcurve"/>
      <point x="462" y="448"/>
      <point x="457" y="445" type="qcurve"/>
      <point x="414" y="418" type="line"/>
      <point x="389" y="403"/>
      <point x="383" y="399" type="qcurve"/>
      <point x="231" y="293" type="line"/>
      <point x="258" y="266"/>
      <point x="334" y="186" type="qcurve"/>
      <point x="394" y="123"/>
      <point x="448" y="69" type="qcurve"/>
      <point x="477" y="42"/>
      <point x="505" y="30" type="qcurve"/>
      <point x="510" y="28"/>
      <point x="510" y="23" type="qcurve"/>
      <point x="510" y="13"/>
      <point x="470" y="-14"/>
      <point x="454" y="-14" type="qcurve"/>
      <point x="447" y="-14"/>
      <point x="444" y="-11" type="qcurve"/>
      <point x="409" y="16"/>
      <point x="392" y="34" type="qcurve"/>
      <point x="371" y="55"/>
      <point x="307" y="125" type="qcurve"/>
      <point x="219" y="221"/>
      <point x="182" y="258" type="qcurve"/>
      <point x="158" y="243" type="line"/>
      <point x="158" y="106" type="line"/>
      <point x="160" y="68" type="line"/>
      <point x="161" y="53"/>
      <point x="163" y="16"/>
      <point x="163" y="0" type="qcurve"/>
      <point x="163" y="-10"/>
      <point x="143" y="-10" type="qcurve"/>
      <point x="125" y="-10"/>
      <point x="90" y="6"/>
      <point x="90" y="18" type="qcurve"/>
      <point x="92" y="106" type="line"/>
      <point x="92" y="590" type="line"/>
    </contour>
  </outline>
</glyph>
<glyph name="l" format="2">
  <advance width="263" height="1000"/>
  <unicode hex="006C"/>
  <outline>
    <contour>
      <point x="96" y="639" type="line"/>
      <point x="94" y="697" type="line"/>
      <point x="94" y="707"/>
      <point x="114" y="707" type="qcurve"/>
      <point x="132" y="707"/>
      <point x="168" y="691"/>
      <point x="168" y="679" type="qcurve"/>
      <point x="168" y="658"/>
      <point x="167" y="643" type="qcurve"/>
      <point x="166" y="590" type="line"/>
      <point x="166" y="105" type="line"/>
      <point x="167" y="67" type="line"/>
      <point x="169" y="-1" type="line"/>
      <point x="169" y="-11"/>
      <point x="149" y="-11" type="qcurve"/>
      <point x="131" y="-11"/>
      <point x="95" y="5"/>
      <point x="95" y="17" type="qcurve"/>
      <point x="97" y="105" type="line"/>
      <point x="97" y="590" type="line"/>
    </contour>
  </outline>
</glyph>
<glyph name="m" format="2">
  <advance width="816" height="1000"/>
  <unicode hex="006D"/>
  <outline>
    <contour>
      <point x="658" y="356"/>
      <point x="617" y="426"/>
      <point x="574" y="426" type="qcurve"/>
      <point x="544" y="426"/>
      <point x="480" y="381"/>
      <point x="438" y="308"/>
      <point x="438" y="268" type="qcurve"/>
      <point x="438" y="105" type="line"/>
      <point x="438" y="102"/>
      <point x="441" y="39" type="qcurve"/>
      <point x="443" y="-1" type="line"/>
      <point x="443" y="-11"/>
      <point x="423" y="-11" type="qcurve"/>
      <point x="405" y="-11"/>
      <point x="371" y="5"/>
      <point x="371" y="17" type="qcurve"/>
      <point x="373" y="54" type="line"/>
      <point x="375" y="90"/>
      <point x="375" y="105" type="qcurve"/>
      <point x="375" y="293" type="line"/>
      <point x="375" y="426"/>
      <point x="301" y="426" type="qcurve"/>
      <point x="263" y="426"/>
      <point x="193" y="371"/>
      <point x="173" y="303" type="qcurve"/>
      <point x="164" y="271"/>
      <point x="158" y="190"/>
      <point x="157" y="127" type="qcurve"/>
      <point x="157" y="105" type="line"/>
      <point x="157" y="100"/>
      <point x="160" y="37" type="qcurve"/>
      <point x="162" y="7"/>
      <point x="162" y="-1" type="qcurve"/>
      <point x="162" y="-11"/>
      <point x="142" y="-11" type="qcurve"/>
      <point x="124" y="-11"/>
      <point x="89" y="5"/>
      <point x="89" y="17" type="qcurve"/>
      <point x="91" y="105" type="line"/>
      <point x="91" y="356" type="line"/>
      <point x="90" y="409" type="line"/>
      <point x="88" y="472" type="line"/>
      <point x="88" y="482"/>
      <point x="108" y="482" type="qcurve"/>
      <point x="126" y="482"/>
      <point x="161" y="466"/>
      <point x="161" y="454" type="qcurve"/>
      <point x="160" y="397" type="line"/>
      <point x="179" y="437"/>
      <point x="257" y="486"/>
      <point x="301" y="486" type="qcurve"/>
      <point x="353" y="486"/>
      <point x="414" y="434"/>
      <point x="424" y="393" type="qcurve"/>
      <point x="449" y="437"/>
      <point x="532" y="486"/>
      <point x="577" y="486" type="qcurve"/>
      <point x="650" y="486"/>
      <point x="724" y="375"/>
      <point x="724" y="297" type="qcurve"/>
      <point x="724" y="105" type="line"/>
      <point x="725" y="67" type="line"/>
      <point x="727" y="-1" type="line"/>
      <point x="727" y="-11"/>
      <point x="707" y="-11" type="qcurve"/>
      <point x="689" y="-11"/>
      <point x="654" y="5"/>
      <point x="654" y="17" type="qcurve"/>
      <point x="656" y="54" type="line"/>
      <point x="658" y="90"/>
      <point x="658" y="105" type="qcurve"/>
      <point x="658" y="293" type="line"/>
    </contour>
  </outline>
</glyph>
<glyph name="n" format="2">
  <advance height="1000" width="588"/>
  <unicode hex="006E"/>
  <outline>
    <contour>
      <point x="430" y="115" type="line"/>
      <point x="430" y="293" type="line"/>
      <point x="430" y="357"/>
      <point x="395" y="423"/>
      <point x="348" y="423" type="qcurve"/>
      <point x="291" y="423"/>
      <point x="195" y="357"/>
      <point x="174" y="287" type="qcurve"/>
      <point x="158" y="234"/>
      <point x="158" y="105" type="qcurve"/>
      <point x="158" y="89" type="line"/>
      <point x="158" y="63"/>
      <point x="160" y="21" type="qcurve"/>
      <point x="161" y="-1" type="line"/>
      <point x="161" y="-11"/>
      <point x="142" y="-11" type="qcurve"/>
      <point x="124" y="-11"/>
      <point x="90" y="5"/>
      <point x="90" y="17" type="qcurve"/>
      <point x="92" y="115" type="line"/>
      <point x="92" y="364" type="line"/>
      <point x="91" y="413" type="line"/>
      <point x="89" y="471" type="line"/>
      <point x="89" y="481"/>
      <point x="108" y="481" type="qcurve"/>
      <point x="126" y="481"/>
      <point x="160" y="465"/>
      <point x="160" y="453" type="qcurve"/>
      <point x="158" y="376" type="line"/>
      <point x="190" y="428"/>
      <point x="292" y="485"/>
      <point x="348" y="485" type="qcurve"/>
      <point x="434" y="485"/>
      <point x="496" y="377"/>
      <point x="496" y="297" type="qcurve"/>
      <point x="496" y="105" type="line"/>
      <point x="497" y="67" type="line"/>
      <point x="499" y="-1" type="line"/>
      <point x="499" y="-11"/>
      <point x="480" y="-11" type="qcurve"/>
      <point x="462" y="-11"/>
      <point x="428" y="5"/>
      <point x="428" y="16" type="qcurve"/>
      <point x="428" y="17" type="line"/>
    </contour>
  </outline>
</glyph>
<glyph name="o" format="2">
  <advance height="1000" width="562"/>
  <unicode hex="006F"/>
  <outline>
    <contour>
      <point x="218" y="463"/>
      <point x="274" y="486"/>
      <point x="312" y="486" type="qcurve"/>
      <point x="369" y="486"/>
      <point x="457" y="428"/>
      <point x="506" y="319"/>
      <point x="506" y="245" type="qcurve"/>
      <point x="506" y="179"/>
      <point x="449" y="58"/>
      <point x="341" y="-18"/>
      <point x="267" y="-18" type="qcurve"/>
      <point x="167" y="-18"/>
      <point x="56" y="102"/>
      <point x="56" y="207" type="qcurve"/>
      <point x="56" y="261"/>
      <point x="102" y="376"/>
      <point x="161" y="454"/>
      <point x="177" y="454" type="qcurve"/>
      <point x="187" y="454"/>
      <point x="194" y="445" type="qcurve"/>
    </contour>
    <contour>
      <point x="315" y="43"/>
      <point x="394" y="96"/>
      <point x="439" y="188"/>
      <point x="439" y="245" type="qcurve"/>
      <point x="439" y="330"/>
      <point x="372" y="426"/>
      <point x="306" y="426" type="qcurve"/>
      <point x="255" y="426"/>
      <point x="171" y="362"/>
      <point x="123" y="260"/>
      <point x="123" y="208" type="qcurve"/>
      <point x="123" y="126"/>
      <point x="197" y="43"/>
      <point x="267" y="43" type="qcurve"/>
    </contour>
  </outline>
</glyph>
<glyph name="p" format="2">
  <advance height="1000" width="572"/>
  <unicode hex="0070"/>
  <outline>
    <contour>
      <point x="92" y="403"/>
      <point x="89" y="472" type="qcurve"/>
      <point x="89" y="482"/>
      <point x="108" y="482" type="qcurve"/>
      <point x="127" y="482"/>
      <point x="163" y="466"/>
      <point x="163" y="454" type="qcurve"/>
      <point x="161" y="402" type="line"/>
      <point x="159" y="369" type="line"/>
      <point x="197" y="433"/>
      <point x="288" y="486"/>
      <point x="347" y="486" type="qcurve"/>
      <point x="424" y="486"/>
      <point x="518" y="377"/>
      <point x="518" y="278" type="qcurve"/>
      <point x="518" y="195"/>
      <point x="455" y="60"/>
      <point x="346" y="-17"/>
      <point x="279" y="-17" type="qcurve"/>
      <point x="245" y="-17"/>
      <point x="174" y="16"/>
      <point x="158" y="38" type="qcurve"/>
      <point x="158" y="-56" type="line"/>
      <point x="158" y="-61"/>
      <point x="161" y="-124" type="qcurve"/>
      <point x="163" y="-154"/>
      <point x="163" y="-162" type="qcurve"/>
      <point x="163" y="-172"/>
      <point x="143" y="-172" type="qcurve"/>
      <point x="125" y="-172"/>
      <point x="90" y="-156"/>
      <point x="90" y="-144" type="qcurve"/>
      <point x="90" y="-128"/>
      <point x="91" y="-116" type="qcurve"/>
      <point x="92" y="-55" type="line"/>
      <point x="92" y="368" type="line"/>
    </contour>
    <contour>
      <point x="161" y="103"/>
      <point x="164" y="103" type="qcurve"/>
      <point x="175" y="103"/>
      <point x="185" y="87" type="qcurve"/>
      <point x="203" y="61"/>
      <point x="248" y="41"/>
      <point x="276" y="41" type="qcurve"/>
      <point x="314" y="41"/>
      <point x="395" y="98"/>
      <point x="450" y="205"/>
      <point x="450" y="276" type="qcurve"/>
      <point x="450" y="349"/>
      <point x="389" y="426"/>
      <point x="347" y="426" type="qcurve"/>
      <point x="283" y="426"/>
      <point x="181" y="329"/>
      <point x="165" y="253" type="qcurve"/>
      <point x="157" y="215"/>
      <point x="157" y="101" type="qcurve"/>
    </contour>
  </outline>
</glyph>
<glyph name="q" format="2">
  <advance height="1000" width="576"/>
  <unicode hex="0071"/>
  <outline>
    <contour>
      <point x="383" y="46"/>
      <point x="280" y="-18"/>
      <point x="219" y="-18" type="qcurve"/>
      <point x="145" y="-18"/>
      <point x="55" y="90"/>
      <point x="55" y="186" type="qcurve"/>
      <point x="55" y="263"/>
      <point x="125" y="402"/>
      <point x="240" y="486"/>
      <point x="304" y="486" type="qcurve"/>
      <point x="341" y="486"/>
      <point x="402" y="458"/>
      <point x="418" y="434" type="qcurve"/>
      <point x="418" y="439" type="line"/>
      <point x="418" y="446"/>
      <point x="414" y="467"/>
      <point x="414" y="475" type="qcurve"/>
      <point x="414" y="485"/>
      <point x="434" y="485" type="qcurve"/>
      <point x="452" y="485"/>
      <point x="486" y="469"/>
      <point x="486" y="457" type="qcurve"/>
      <point x="486" y="441"/>
      <point x="485" y="429" type="qcurve"/>
      <point x="484" y="368" type="line"/>
      <point x="484" y="-60" type="line"/>
      <point x="484" y="-86"/>
      <point x="486" y="-128" type="qcurve"/>
      <point x="487" y="-166" type="line"/>
      <point x="487" y="-176"/>
      <point x="467" y="-176" type="qcurve"/>
      <point x="449" y="-176"/>
      <point x="414" y="-160"/>
      <point x="414" y="-148" type="qcurve"/>
      <point x="415" y="-120" type="line"/>
      <point x="418" y="-93"/>
      <point x="418" y="-59" type="qcurve"/>
      <point x="419" y="112" type="line"/>
    </contour>
    <contour>
      <point x="412" y="377"/>
      <point x="406" y="377" type="qcurve"/>
      <point x="401" y="377"/>
      <point x="397" y="382" type="qcurve"/>
      <point x="382" y="403"/>
      <point x="331" y="428"/>
      <point x="305" y="428" type="qcurve"/>
      <point x="257" y="428"/>
      <point x="173" y="358"/>
      <point x="123" y="247"/>
      <point x="123" y="189" type="qcurve"/>
      <point x="123" y="117"/>
      <point x="175" y="42"/>
      <point x="219" y="42" type="qcurve"/>
      <point x="261" y="42"/>
      <point x="354" y="107"/>
      <point x="416" y="216"/>
      <point x="416" y="276" type="qcurve"/>
      <point x="416" y="381" type="line"/>
    </contour>
  </outline>
</glyph>
<glyph name="r" format="2">
  <advance height="1000" width="430"/>
  <unicode hex="0072"/>
  <outline>
    <contour>
      <point x="93" y="416" type="line"/>
      <point x="91" y="474" type="line"/>
      <point x="91" y="484"/>
      <point x="111" y="484" type="qcurve"/>
      <point x="129" y="484"/>
      <point x="164" y="468"/>
      <point x="164" y="456" type="qcurve"/>
      <point x="164" y="446"/>
      <point x="161" y="417"/>
      <point x="161" y="405" type="qcurve"/>
      <point x="182" y="440"/>
      <point x="258" y="486"/>
      <point x="307" y="486" type="qcurve"/>
      <point x="335" y="486"/>
      <point x="388" y="466"/>
      <point x="422" y="438"/>
      <point x="422" y="426" type="qcurve"/>
      <point x="422" y="410"/>
      <point x="398" y="374"/>
      <point x="386" y="374" type="qcurve"/>
      <point x="378" y="374"/>
      <point x="372" y="384" type="qcurve"/>
      <point x="363" y="401"/>
      <point x="321" y="421"/>
      <point x="304" y="421" type="qcurve"/>
      <point x="260" y="421"/>
      <point x="191" y="367"/>
      <point x="174" y="315" type="qcurve"/>
      <point x="164" y="284"/>
      <point x="160" y="204"/>
      <point x="160" y="106" type="qcurve"/>
      <point x="160" y="101"/>
      <point x="163" y="38" type="qcurve"/>
      <point x="165" y="8"/>
      <point x="165" y="0" type="qcurve"/>
      <point x="165" y="-10"/>
      <point x="145" y="-10" type="qcurve"/>
      <point x="127" y="-10"/>
      <point x="92" y="6"/>
      <point x="92" y="18" type="qcurve"/>
      <point x="94" y="106" type="line"/>
      <point x="94" y="367" type="line"/>
    </contour>
  </outline>
</glyph>
<glyph name="s" format="2">
  <advance width="510" height="1000"/>
  <unicode hex="0073"/>
  <outline>
    <contour>
      <point x="138" y="255"/>
      <point x="83" y="310"/>
      <point x="83" y="356" type="qcurve"/>
      <point x="83" y="394"/>
      <point x="133" y="453"/>
      <point x="217" y="486"/>
      <point x="266" y="486" type="qcurve"/>
      <point x="321" y="486"/>
      <point x="396" y="455"/>
      <point x="426" y="423" type="qcurve"/>
      <point x="428" y="421"/>
      <point x="428" y="414" type="qcurve"/>
      <point x="428" y="400"/>
      <point x="407" y="369"/>
      <point x="396" y="369" type="qcurve"/>
      <point x="392" y="369"/>
      <point x="384" y="376"/>
      <point x="380" y="382" type="qcurve"/>
      <point x="361" y="412"/>
      <point x="296" y="431"/>
      <point x="266" y="431" type="qcurve"/>
      <point x="210" y="431"/>
      <point x="148" y="388"/>
      <point x="148" y="354" type="qcurve"/>
      <point x="148" y="332"/>
      <point x="177" y="305"/>
      <point x="216" y="296" type="qcurve"/>
      <point x="312" y="273" type="line"/>
      <point x="380" y="257"/>
      <point x="452" y="188"/>
      <point x="452" y="128" type="qcurve"/>
      <point x="452" y="88"/>
      <point x="405" y="21"/>
      <point x="317" y="-18"/>
      <point x="260" y="-18" type="qcurve"/>
      <point x="191" y="-18"/>
      <point x="101" y="24"/>
      <point x="59" y="74"/>
      <point x="59" y="85" type="qcurve"/>
      <point x="59" y="100"/>
      <point x="87" y="133"/>
      <point x="99" y="133" type="qcurve"/>
      <point x="106" y="133"/>
      <point x="109" y="126" type="qcurve"/>
      <point x="125" y="87"/>
      <point x="188" y="40"/>
      <point x="260" y="40" type="qcurve"/>
      <point x="318" y="40"/>
      <point x="386" y="90"/>
      <point x="386" y="126" type="qcurve"/>
      <point x="386" y="163"/>
      <point x="348" y="205"/>
      <point x="295" y="218" type="qcurve"/>
      <point x="195" y="242" type="line"/>
    </contour>
  </outline>
</glyph>
<glyph name="t" format="2">
  <advance height="1000" width="360"/>
  <unicode hex="0074"/>
  <outline>
    <contour>
      <point x="89" y="424"/>
      <point x="67" y="422" type="qcurve"/>
      <point x="55" y="420"/>
      <point x="47" y="420" type="qcurve"/>
      <point x="46" y="420" type="line"/>
      <point x="33" y="420"/>
      <point x="15" y="449"/>
      <point x="15" y="463" type="qcurve"/>
      <point x="15" y="477"/>
      <point x="26" y="477" type="qcurve"/>
      <point x="113" y="477" type="line"/>
      <point x="113" y="528" type="line"/>
      <point x="111" y="635" type="line"/>
      <point x="111" y="645"/>
      <point x="131" y="645" type="qcurve"/>
      <point x="149" y="645"/>
      <point x="183" y="629"/>
      <point x="183" y="617" type="qcurve"/>
      <point x="183" y="596"/>
      <point x="182" y="581" type="qcurve"/>
      <point x="181" y="528" type="line"/>
      <point x="181" y="480" type="line"/>
      <point x="209" y="481" type="line"/>
      <point x="237" y="483"/>
      <point x="276" y="486"/>
      <point x="285" y="487" type="qcurve"/>
      <point x="286" y="487" type="line"/>
      <point x="298" y="487"/>
      <point x="318" y="458"/>
      <point x="318" y="444" type="qcurve"/>
      <point x="318" y="429"/>
      <point x="306" y="429" type="qcurve"/>
      <point x="246" y="429"/>
      <point x="220" y="428" type="qcurve"/>
      <point x="181" y="427" type="line"/>
      <point x="181" y="108" type="line"/>
      <point x="181" y="80"/>
      <point x="187" y="55"/>
      <point x="202" y="46"/>
      <point x="217" y="46" type="qcurve"/>
      <point x="235" y="46"/>
      <point x="286" y="68"/>
      <point x="310" y="87" type="qcurve"/>
      <point x="327" y="100"/>
      <point x="337" y="100" type="qcurve"/>
      <point x="347" y="100"/>
      <point x="347" y="89" type="qcurve"/>
      <point x="347" y="76"/>
      <point x="302" y="23"/>
      <point x="238" y="-18"/>
      <point x="208" y="-18" type="qcurve"/>
      <point x="157" y="-18"/>
      <point x="113" y="44"/>
      <point x="113" y="110" type="qcurve"/>
      <point x="113" y="424" type="line"/>
      <point x="108" y="424" type="line"/>
    </contour>
  </outline>
</glyph>
<glyph name="u" format="2">
  <advance height="1000" width="590"/>
  <unicode hex="0075"/>
  <outline>
    <contour>
      <point x="500" y="445"/>
      <point x="497" y="418" type="qcurve"/>
      <point x="496" y="409"/>
      <point x="488" y="304"/>
      <point x="488" y="237" type="qcurve"/>
      <point x="488" y="191"/>
      <point x="502" y="74"/>
      <point x="526" y="35" type="qcurve"/>
      <point x="527" y="33"/>
      <point x="527" y="29" type="qcurve"/>
      <point x="527" y="17"/>
      <point x="499" y="-13"/>
      <point x="483" y="-13" type="qcurve"/>
      <point x="461" y="-13"/>
      <point x="435" y="70"/>
      <point x="432" y="114" type="qcurve"/>
      <point x="404" y="57"/>
      <point x="301" y="-18"/>
      <point x="242" y="-18" type="qcurve"/>
      <point x="162" y="-18"/>
      <point x="92" y="88"/>
      <point x="92" y="171" type="qcurve"/>
      <point x="92" y="368" type="line"/>
      <point x="91" y="406" type="line"/>
      <point x="89" y="474" type="line"/>
      <point x="89" y="484"/>
      <point x="109" y="484" type="qcurve"/>
      <point x="127" y="484"/>
      <point x="162" y="468"/>
      <point x="162" y="456" type="qcurve"/>
      <point x="162" y="435"/>
      <point x="161" y="419" type="qcurve"/>
      <point x="160" y="368" type="line"/>
      <point x="160" y="175" type="line"/>
      <point x="160" y="115"/>
      <point x="203" y="42"/>
      <point x="242" y="42" type="qcurve"/>
      <point x="283" y="42"/>
      <point x="365" y="109"/>
      <point x="421" y="228"/>
      <point x="425" y="301" type="qcurve"/>
      <point x="426" y="322"/>
      <point x="426" y="395" type="qcurve"/>
      <point x="426" y="475" type="line"/>
      <point x="426" y="485"/>
      <point x="447" y="485" type="qcurve"/>
      <point x="465" y="485"/>
      <point x="500" y="470"/>
      <point x="500" y="459" type="qcurve"/>
      <point x="500" y="457" type="line"/>
    </contour>
  </outline>
</glyph>
<glyph name="v" format="2">
  <advance height="1000" width="490"/>
  <unicode hex="0076"/>
  <outline>
    <contour>
      <point x="378" y="429"/>
      <point x="391" y="476" type="qcurve"/>
      <point x="394" y="486"/>
      <point x="411" y="486" type="qcurve"/>
      <point x="429" y="486"/>
      <point x="465" y="468"/>
      <point x="465" y="457" type="qcurve"/>
      <point x="465" y="455"/>
      <point x="463" y="451" type="qcurve"/>
      <point x="443" y="415"/>
      <point x="431" y="386" type="qcurve"/>
      <point x="295" y="65" type="line"/>
      <point x="281" y="32"/>
      <point x="273" y="5" type="qcurve"/>
      <point x="266" y="-18"/>
      <point x="248" y="-18" type="qcurve"/>
      <point x="238" y="-18"/>
      <point x="218" y="-7"/>
      <point x="211" y="1" type="qcurve"/>
      <point x="206" y="7"/>
      <point x="200" y="19"/>
      <point x="197" y="27" type="qcurve"/>
      <point x="189" y="46" type="line"/>
      <point x="61" y="389" type="line"/>
      <point x="54" y="407"/>
      <point x="30" y="458" type="qcurve"/>
      <point x="29" y="460"/>
      <point x="29" y="463" type="qcurve"/>
      <point x="29" y="471"/>
      <point x="55" y="481"/>
      <point x="71" y="481" type="qcurve"/>
      <point x="103" y="481"/>
      <point x="107" y="467" type="qcurve"/>
      <point x="120" y="418"/>
      <point x="125" y="405" type="qcurve"/>
      <point x="238" y="90" type="line"/>
      <point x="368" y="405" type="line"/>
    </contour>
  </outline>
</glyph>
<glyph name="w" format="2">
  <advance height="1000" width="730"/>
  <unicode hex="0077"/>
  <outline>
    <contour>
      <point x="623" y="429"/>
      <point x="632" y="474" type="qcurve"/>
      <point x="635" y="485"/>
      <point x="654" y="485" type="qcurve"/>
      <point x="671" y="485"/>
      <point x="705" y="469"/>
      <point x="705" y="459" type="qcurve"/>
      <point x="705" y="456"/>
      <point x="704" y="454" type="qcurve"/>
      <point x="685" y="410"/>
      <point x="677" y="387" type="qcurve"/>
      <point x="564" y="65" type="line"/>
      <point x="551" y="24"/>
      <point x="546" y="5" type="qcurve"/>
      <point x="539" y="-18"/>
      <point x="515" y="-18" type="qcurve"/>
      <point x="502" y="-18"/>
      <point x="475" y="-6"/>
      <point x="469" y="1" type="qcurve"/>
      <point x="464" y="6"/>
      <point x="458" y="23"/>
      <point x="455" y="39"/>
      <point x="453" y="46" type="qcurve"/>
      <point x="362" y="367" type="line"/>
      <point x="259" y="65" type="line"/>
      <point x="254" y="51"/>
      <point x="241" y="5" type="qcurve"/>
      <point x="234" y="-18"/>
      <point x="211" y="-18" type="qcurve"/>
      <point x="200" y="-18"/>
      <point x="174" y="-6"/>
      <point x="168" y="1" type="qcurve"/>
      <point x="163" y="6"/>
      <point x="157" y="19"/>
      <point x="153" y="36"/>
      <point x="150" y="46" type="qcurve"/>
      <point x="48" y="399" type="line"/>
      <point x="40" y="423"/>
      <point x="26" y="458" type="qcurve"/>
      <point x="25" y="459"/>
      <point x="25" y="462" type="qcurve"/>
      <point x="25" y="470"/>
      <point x="45" y="478"/>
      <point x="60" y="478" type="qcurve"/>
      <point x="77" y="478"/>
      <point x="104" y="467"/>
      <point x="105" y="457" type="qcurve"/>
      <point x="111" y="419"/>
      <point x="114" y="408" type="qcurve"/>
      <point x="200" y="84" type="line"/>
      <point x="308" y="394" type="line"/>
      <point x="312" y="409"/>
      <point x="317" y="447"/>
      <point x="318" y="456" type="qcurve"/>
      <point x="319" y="462"/>
      <point x="333" y="468"/>
      <point x="344" y="468" type="qcurve"/>
      <point x="364" y="468"/>
      <point x="405" y="454"/>
      <point x="406" y="445" type="qcurve"/>
      <point x="407" y="440"/>
      <point x="410" y="413"/>
      <point x="413" y="403" type="qcurve"/>
      <point x="508" y="84" type="line"/>
      <point x="615" y="406" type="line"/>
    </contour>
  </outline>
</glyph>
<glyph name="x" format="2">
  <advance height="1000" width="500"/>
  <unicode hex="0078"/>
  <outline>
    <contour>
      <point x="145" y="50"/>
      <point x="130" y="25"/>
      <point x="124" y="17" type="qcurve"/>
      <point x="112" y="-2" type="line"/>
      <point x="106" y="-12"/>
      <point x="85" y="-12" type="qcurve"/>
      <point x="67" y="-12"/>
      <point x="34" y="1"/>
      <point x="34" y="10" type="qcurve"/>
      <point x="34" y="13"/>
      <point x="38" y="17" type="qcurve"/>
      <point x="67" y="46"/>
      <point x="101" y="90" type="qcurve"/>
      <point x="214" y="244" type="line"/>
      <point x="107" y="392" type="line"/>
      <point x="82" y="425"/>
      <point x="55" y="451" type="qcurve"/>
      <point x="52" y="454"/>
      <point x="52" y="457" type="qcurve"/>
      <point x="52" y="465"/>
      <point x="89" y="480"/>
      <point x="107" y="480" type="qcurve"/>
      <point x="123" y="480"/>
      <point x="127" y="473" type="qcurve"/>
      <point x="146" y="440"/>
      <point x="158" y="424" type="qcurve"/>
      <point x="252" y="295" type="line"/>
      <point x="349" y="428" type="line"/>
      <point x="357" y="439"/>
      <point x="376" y="471"/>
      <point x="380" y="477" type="qcurve"/>
      <point x="384" y="484"/>
      <point x="399" y="484" type="qcurve"/>
      <point x="416" y="484"/>
      <point x="453" y="469"/>
      <point x="453" y="461" type="qcurve"/>
      <point x="453" y="458"/>
      <point x="450" y="455" type="qcurve"/>
      <point x="422" y="428"/>
      <point x="398" y="396" type="qcurve"/>
      <point x="288" y="245" type="line"/>
      <point x="400" y="92" type="line"/>
      <point x="420" y="66"/>
      <point x="442" y="43" type="qcurve"/>
      <point x="463" y="19" type="line"/>
      <point x="465" y="17"/>
      <point x="465" y="13" type="qcurve"/>
      <point x="465" y="4"/>
      <point x="432" y="-9"/>
      <point x="414" y="-9" type="qcurve"/>
      <point x="392" y="-9"/>
      <point x="387" y="0" type="qcurve"/>
      <point x="365" y="37"/>
      <point x="349" y="58" type="qcurve"/>
      <point x="251" y="194" type="line"/>
      <point x="150" y="56" type="line"/>
    </contour>
  </outline>
</glyph>
<glyph name="braceleft" format="2">
  <advance height="1000" width="350"/>
  <unicode hex="007B"/>
  <outline>
    <contour>
      <point x="190" y="331"/>
      <point x="190" y="457" type="qcurve"/>
      <point x="190" y="478"/>
      <point x="188" y="522"/>
      <point x="187" y="540" type="qcurve"/>
      <point x="184" y="585"/>
      <point x="184" y="614" type="qcurve"/>
      <point x="184" y="659"/>
      <point x="239" y="730"/>
      <point x="304" y="761" type="qcurve"/>
      <point x="312" y="764"/>
      <point x="316" y="764" type="qcurve"/>
      <point x="323" y="764"/>
      <point x="331" y="756"/>
      <point x="331" y="750" type="qcurve"/>
      <point x="331" y="740"/>
      <point x="321" y="734" type="qcurve"/>
      <point x="284" y="714"/>
      <point x="249" y="650"/>
      <point x="249" y="612" type="qcurve"/>
      <point x="251" y="552" type="line"/>
      <point x="255" y="486"/>
      <point x="255" y="454" type="qcurve"/>
      <point x="255" y="338"/>
      <point x="182" y="297" type="qcurve"/>
      <point x="217" y="286"/>
      <point x="255" y="220"/>
      <point x="255" y="178" type="qcurve"/>
      <point x="255" y="97"/>
      <point x="243" y="13" type="qcurve"/>
      <point x="240" y="-10"/>
      <point x="240" y="-19" type="qcurve"/>
      <point x="240" y="-62"/>
      <point x="278" y="-122"/>
      <point x="320" y="-146" type="qcurve"/>
      <point x="325" y="-149"/>
      <point x="332" y="-159"/>
      <point x="332" y="-164" type="qcurve"/>
      <point x="332" y="-174"/>
      <point x="318" y="-174" type="qcurve"/>
      <point x="309" y="-174"/>
      <point x="304" y="-172" type="qcurve"/>
      <point x="176" y="-136"/>
      <point x="176" y="-19" type="qcurve"/>
      <point x="176" y="0"/>
      <point x="181" y="37" type="qcurve"/>
      <point x="182" y="42"/>
      <point x="191" y="120"/>
      <point x="191" y="174" type="qcurve"/>
      <point x="191" y="213"/>
      <point x="153" y="270"/>
      <point x="106" y="273" type="qcurve"/>
      <point x="93" y="274"/>
      <point x="76" y="298"/>
      <point x="76" y="312" type="qcurve"/>
      <point x="76" y="331"/>
      <point x="92" y="331" type="qcurve"/>
      <point x="103" y="331" type="line"/>
    </contour>
  </outline>
</glyph>
<glyph name="bar" format="2">
  <advance height="1000" width="350"/>
  <unicode hex="007C"/>
  <outline>
    <contour>
      <point x="140" y="703" type="line"/>
      <point x="209" y="703" type="line"/>
      <point x="209" y="-32" type="line"/>
      <point x="140" y="-32" type="line"/>
    </contour>
  </outline>
</glyph>
<glyph name="braceright" format="2">
  <advance width="350" height="1000"/>
  <unicode hex="007D"/>
  <outline>
    <contour>
      <point x="160" y="262"/>
      <point x="160" y="136" type="qcurve"/>
      <point x="160" y="115"/>
      <point x="162" y="71"/>
      <point x="163" y="53" type="qcurve"/>
      <point x="166" y="8"/>
      <point x="166" y="-21" type="qcurve"/>
      <point x="166" y="-70"/>
      <point x="109" y="-137"/>
      <point x="42" y="-171"/>
      <point x="33" y="-171" type="qcurve"/>
      <point x="26" y="-171"/>
      <point x="18" y="-163"/>
      <point x="18" y="-158" type="qcurve"/>
      <point x="18" y="-147"/>
      <point x="29" y="-141" type="qcurve"/>
      <point x="101" y="-100"/>
      <point x="101" y="-19" type="qcurve"/>
      <point x="99" y="41" type="line"/>
      <point x="95" y="107"/>
      <point x="95" y="139" type="qcurve"/>
      <point x="95" y="255"/>
      <point x="168" y="296" type="qcurve"/>
      <point x="133" y="307"/>
      <point x="95" y="373"/>
      <point x="95" y="415" type="qcurve"/>
      <point x="95" y="496"/>
      <point x="107" y="580" type="qcurve"/>
      <point x="110" y="603"/>
      <point x="110" y="612" type="qcurve"/>
      <point x="110" y="655"/>
      <point x="72" y="715"/>
      <point x="30" y="739" type="qcurve"/>
      <point x="25" y="742"/>
      <point x="18" y="752"/>
      <point x="18" y="757" type="qcurve"/>
      <point x="18" y="767"/>
      <point x="32" y="767" type="qcurve"/>
      <point x="41" y="767"/>
      <point x="46" y="765" type="qcurve"/>
      <point x="174" y="729"/>
      <point x="174" y="612" type="qcurve"/>
      <point x="174" y="593"/>
      <point x="169" y="556" type="qcurve"/>
      <point x="168" y="551"/>
      <point x="159" y="473"/>
      <point x="159" y="419" type="qcurve"/>
      <point x="159" y="380"/>
      <point x="197" y="323"/>
      <point x="244" y="320" type="qcurve"/>
      <point x="257" y="319"/>
      <point x="274" y="295"/>
      <point x="274" y="281" type="qcurve"/>
      <point x="274" y="262"/>
      <point x="258" y="262" type="qcurve"/>
      <point x="247" y="262" type="line"/>
    </contour>
  </outline>
</glyph>
<glyph name="exclamdown" format="2">
  <advance height="1000" width="350"/>
  <unicode hex="00A1"/>
  <outline>
    <contour>
      <point x="229" y="414"/>
      <point x="202" y="386"/>
      <point x="176" y="386" type="qcurve"/>
      <point x="157" y="386"/>
      <point x="124" y="427"/>
      <point x="124" y="450" type="qcurve"/>
      <point x="124" y="471"/>
      <point x="150" y="496"/>
      <point x="176" y="496" type="qcurve"/>
      <point x="197" y="496"/>
      <point x="229" y="458"/>
      <point x="229" y="436" type="qcurve"/>
    </contour>
    <contour>
      <point x="215" y="-225"/>
      <point x="189" y="-225" type="qcurve"/>
      <point x="170" y="-225"/>
      <point x="130" y="-206"/>
      <point x="130" y="-194" type="qcurve"/>
      <point x="130" y="-193" type="line"/>
      <point x="131" y="-185"/>
      <point x="135" y="-143"/>
      <point x="136" y="-122" type="qcurve"/>
      <point x="148" y="264" type="line"/>
      <point x="148" y="314" type="line"/>
      <point x="148" y="318"/>
      <point x="157" y="322"/>
      <point x="164" y="322" type="qcurve"/>
      <point x="178" y="322"/>
      <point x="206" y="309"/>
      <point x="206" y="300" type="qcurve"/>
      <point x="206" y="299" type="line"/>
      <point x="204" y="279"/>
      <point x="204" y="260" type="qcurve"/>
      <point x="210" y="-127" type="line"/>
      <point x="210" y="-166"/>
      <point x="215" y="-206" type="qcurve"/>
      <point x="215" y="-208" type="line"/>
    </contour>
  </outline>
</glyph>
<glyph name="cent" format="2">
  <advance height="1000" width="556"/>
  <unicode hex="00A2"/>
  <outline>
    <contour>
      <point x="214" y="-99"/>
      <point x="205" y="-99" type="qcurve"/>
      <point x="191" y="-99"/>
      <point x="160" y="-74"/>
      <point x="160" y="-60" type="qcurve"/>
      <point x="162" y="-52" type="line"/>
      <point x="168" y="-41"/>
      <point x="178" y="-12" type="qcurve"/>
      <point x="124" y="13"/>
      <point x="57" y="112"/>
      <point x="57" y="180" type="qcurve"/>
      <point x="57" y="257"/>
      <point x="139" y="393"/>
      <point x="266" y="475"/>
      <point x="328" y="475" type="qcurve"/>
      <point x="340" y="475"/>
      <point x="362" y="473" type="qcurve"/>
      <point x="374" y="505"/>
      <point x="387" y="553" type="qcurve"/>
      <point x="390" y="561"/>
      <point x="398" y="561" type="qcurve"/>
      <point x="411" y="561"/>
      <point x="443" y="531"/>
      <point x="443" y="517" type="qcurve"/>
      <point x="443" y="512"/>
      <point x="442" y="510" type="qcurve"/>
      <point x="435" y="497"/>
      <point x="422" y="460" type="qcurve"/>
      <point x="461" y="445"/>
      <point x="503" y="402"/>
      <point x="503" y="389" type="qcurve"/>
      <point x="503" y="374"/>
      <point x="474" y="342"/>
      <point x="462" y="342" type="qcurve"/>
      <point x="456" y="342"/>
      <point x="453" y="347" type="qcurve"/>
      <point x="439" y="374"/>
      <point x="415" y="401"/>
      <point x="401" y="405" type="qcurve"/>
      <point x="259" y="27" type="line"/>
      <point x="263" y="26"/>
      <point x="271" y="26" type="qcurve"/>
      <point x="343" y="26"/>
      <point x="446" y="65"/>
      <point x="482" y="105" type="qcurve"/>
      <point x="496" y="120"/>
      <point x="506" y="120" type="qcurve"/>
      <point x="515" y="120"/>
      <point x="515" y="108" type="qcurve"/>
      <point x="515" y="90"/>
      <point x="458" y="21"/>
      <point x="348" y="-32"/>
      <point x="271" y="-32" type="qcurve"/>
      <point x="255" y="-32"/>
      <point x="237" y="-29" type="qcurve"/>
      <point x="217" y="-91" type="line"/>
    </contour>
    <contour>
      <point x="288" y="416"/>
      <point x="191" y="351"/>
      <point x="125" y="244"/>
      <point x="125" y="185" type="qcurve"/>
      <point x="125" y="138"/>
      <point x="167" y="68"/>
      <point x="201" y="48" type="qcurve"/>
      <point x="340" y="416" type="line"/>
      <point x="330" y="416" type="line"/>
    </contour>
  </outline>
</glyph>
<glyph name="sterling" format="2">
  <advance width="713" height="1000"/>
  <unicode hex="00A3"/>
  <outline>
    <contour>
      <point x="254" y="274"/>
      <point x="254" y="252" type="qcurve"/>
      <point x="254" y="199"/>
      <point x="235" y="98"/>
      <point x="216" y="60" type="qcurve"/>
      <point x="226" y="60" type="line"/>
      <point x="263" y="60"/>
      <point x="385" y="42" type="qcurve"/>
      <point x="496" y="25"/>
      <point x="532" y="25" type="qcurve"/>
      <point x="554" y="25"/>
      <point x="613" y="36"/>
      <point x="633" y="47" type="qcurve"/>
      <point x="646" y="54"/>
      <point x="657" y="54" type="qcurve"/>
      <point x="664" y="54"/>
      <point x="672" y="47"/>
      <point x="672" y="42" type="qcurve"/>
      <point x="672" y="31"/>
      <point x="634" y="-5"/>
      <point x="571" y="-32"/>
      <point x="535" y="-32" type="qcurve"/>
      <point x="509" y="-32"/>
      <point x="437" y="-23"/>
      <point x="402" y="-18" type="qcurve"/>
      <point x="288" y="0"/>
      <point x="221" y="0" type="qcurve"/>
      <point x="198" y="0"/>
      <point x="158" y="-9"/>
      <point x="133" y="-18" type="qcurve"/>
      <point x="117" y="-23"/>
      <point x="83" y="-32"/>
      <point x="68" y="-32" type="qcurve"/>
      <point x="50" y="-32"/>
      <point x="37" y="-27"/>
      <point x="37" y="-19" type="qcurve"/>
      <point x="37" y="-7"/>
      <point x="52" y="33"/>
      <point x="67" y="33" type="qcurve"/>
      <point x="76" y="33" type="line"/>
      <point x="133" y="33"/>
      <point x="153" y="75" type="qcurve"/>
      <point x="187" y="140"/>
      <point x="187" y="245" type="qcurve"/>
      <point x="187" y="263"/>
      <point x="182" y="301" type="qcurve"/>
      <point x="165" y="300" type="line"/>
      <point x="113" y="298"/>
      <point x="82" y="295" type="qcurve"/>
      <point x="80" y="295" type="line"/>
      <point x="69" y="295"/>
      <point x="49" y="327"/>
      <point x="49" y="342" type="qcurve"/>
      <point x="49" y="358"/>
      <point x="61" y="358" type="qcurve"/>
      <point x="142" y="357" type="line"/>
      <point x="177" y="357" type="line"/>
      <point x="175" y="383" type="line"/>
      <point x="170" y="428"/>
      <point x="170" y="463" type="qcurve"/>
      <point x="170" y="532"/>
      <point x="221" y="640"/>
      <point x="311" y="699"/>
      <point x="368" y="699" type="qcurve"/>
      <point x="449" y="699"/>
      <point x="565" y="652"/>
      <point x="596" y="624" type="qcurve"/>
      <point x="602" y="620"/>
      <point x="602" y="611" type="qcurve"/>
      <point x="602" y="598"/>
      <point x="572" y="569"/>
      <point x="558" y="569" type="qcurve"/>
      <point x="550" y="569"/>
      <point x="545" y="574" type="qcurve"/>
      <point x="510" y="607"/>
      <point x="427" y="638"/>
      <point x="367" y="638" type="qcurve"/>
      <point x="302" y="638"/>
      <point x="240" y="533"/>
      <point x="240" y="461" type="qcurve"/>
      <point x="240" y="431"/>
      <point x="246" y="359" type="qcurve"/>
      <point x="439" y="365" type="line"/>
      <point x="455" y="366"/>
      <point x="522" y="370" type="qcurve"/>
      <point x="523" y="370" type="line"/>
      <point x="535" y="370"/>
      <point x="554" y="338"/>
      <point x="554" y="322" type="qcurve"/>
      <point x="554" y="307"/>
      <point x="543" y="307" type="qcurve"/>
      <point x="526" y="308"/>
      <point x="470" y="308" type="qcurve"/>
      <point x="440" y="308" type="line"/>
      <point x="251" y="302" type="line"/>
    </contour>
  </outline>
</glyph>
<glyph name="currency" format="2">
  <advance width="530" height="1000"/>
  <unicode hex="00A4"/>
  <outline>
    <contour>
      <point x="356" y="155"/>
      <point x="302" y="137"/>
      <point x="273" y="137" type="qcurve"/>
      <point x="213" y="137"/>
      <point x="163" y="175" type="qcurve"/>
      <point x="128" y="143"/>
      <point x="105" y="112" type="qcurve"/>
      <point x="100" y="107"/>
      <point x="93" y="107" type="qcurve"/>
      <point x="78" y="107"/>
      <point x="44" y="136"/>
      <point x="44" y="149" type="qcurve"/>
      <point x="44" y="155"/>
      <point x="49" y="160" type="qcurve"/>
      <point x="96" y="198"/>
      <point x="121" y="223" type="qcurve"/>
      <point x="94" y="264"/>
      <point x="94" y="316" type="qcurve"/>
      <point x="94" y="367"/>
      <point x="119" y="405" type="qcurve"/>
      <point x="80" y="444"/>
      <point x="54" y="463" type="qcurve"/>
      <point x="49" y="467"/>
      <point x="49" y="473" type="qcurve"/>
      <point x="49" y="486"/>
      <point x="83" y="515"/>
      <point x="98" y="515" type="qcurve"/>
      <point x="106" y="515"/>
      <point x="110" y="510" type="qcurve"/>
      <point x="134" y="479"/>
      <point x="160" y="455" type="qcurve"/>
      <point x="183" y="474"/>
      <point x="242" y="495"/>
      <point x="273" y="495" type="qcurve"/>
      <point x="303" y="495"/>
      <point x="359" y="475"/>
      <point x="381" y="458" type="qcurve"/>
      <point x="401" y="478"/>
      <point x="427" y="510" type="qcurve"/>
      <point x="432" y="515"/>
      <point x="439" y="515" type="qcurve"/>
      <point x="454" y="515"/>
      <point x="488" y="487"/>
      <point x="488" y="474" type="qcurve"/>
      <point x="488" y="467"/>
      <point x="483" y="463" type="qcurve"/>
      <point x="456" y="441"/>
      <point x="424" y="411" type="qcurve"/>
      <point x="452" y="367"/>
      <point x="452" y="316" type="qcurve"/>
      <point x="452" y="262"/>
      <point x="422" y="218" type="qcurve"/>
      <point x="440" y="200"/>
      <point x="488" y="160" type="qcurve"/>
      <point x="493" y="156"/>
      <point x="493" y="149" type="qcurve"/>
      <point x="493" y="136"/>
      <point x="458" y="107"/>
      <point x="443" y="107" type="qcurve"/>
      <point x="437" y="107"/>
      <point x="432" y="112" type="qcurve"/>
      <point x="406" y="145"/>
      <point x="378" y="171" type="qcurve"/>
    </contour>
    <contour>
      <point x="391" y="366"/>
      <point x="323" y="434"/>
      <point x="273" y="434" type="qcurve"/>
      <point x="224" y="434"/>
      <point x="155" y="366"/>
      <point x="155" y="316" type="qcurve"/>
      <point x="155" y="267"/>
      <point x="224" y="198"/>
      <point x="273" y="198" type="qcurve"/>
      <point x="323" y="198"/>
      <point x="391" y="267"/>
      <point x="391" y="316" type="qcurve"/>
    </contour>
  </outline>
</glyph>
<glyph name="yen" format="2">
  <advance height="1000" width="600"/>
  <unicode hex="00A5"/>
  <outline>
    <contour>
      <point x="329" y="159" type="line"/>
      <point x="329" y="131" type="line"/>
      <point x="331" y="56" type="line"/>
      <point x="333" y="-14" type="line"/>
      <point x="333" y="-24"/>
      <point x="312" y="-24" type="qcurve"/>
      <point x="293" y="-24"/>
      <point x="256" y="-8"/>
      <point x="256" y="4" type="qcurve"/>
      <point x="258" y="132" type="line"/>
      <point x="258" y="156" type="line"/>
      <point x="113" y="147" type="line"/>
      <point x="112" y="147" type="line"/>
      <point x="99" y="147"/>
      <point x="78" y="181"/>
      <point x="78" y="197" type="qcurve"/>
      <point x="78" y="210"/>
      <point x="88" y="210" type="qcurve"/>
      <point x="90" y="210" type="line"/>
      <point x="106" y="208"/>
      <point x="149" y="208" type="qcurve"/>
      <point x="186" y="208"/>
      <point x="204" y="209" type="qcurve"/>
      <point x="258" y="211" type="line"/>
      <point x="258" y="295" type="line"/>
      <point x="255" y="295" type="line"/>
      <point x="228" y="295"/>
      <point x="113" y="287" type="qcurve"/>
      <point x="112" y="287" type="line"/>
      <point x="99" y="287"/>
      <point x="78" y="321"/>
      <point x="78" y="337" type="qcurve"/>
      <point x="78" y="350"/>
      <point x="88" y="350" type="qcurve"/>
      <point x="90" y="350" type="line"/>
      <point x="106" y="348"/>
      <point x="149" y="348" type="qcurve"/>
      <point x="186" y="348"/>
      <point x="204" y="349" type="qcurve"/>
      <point x="241" y="350" type="line"/>
      <point x="153" y="495"/>
      <point x="70" y="617"/>
      <point x="36" y="656" type="qcurve"/>
      <point x="34" y="658"/>
      <point x="34" y="661" type="qcurve"/>
      <point x="34" y="670"/>
      <point x="73" y="687"/>
      <point x="91" y="687" type="qcurve"/>
      <point x="109" y="687"/>
      <point x="115" y="677" type="qcurve"/>
      <point x="129" y="653" type="line"/>
      <point x="139" y="633"/>
      <point x="154" y="609" type="qcurve"/>
      <point x="209" y="522"/>
      <point x="293" y="384" type="qcurve"/>
      <point x="323" y="434"/>
      <point x="381" y="526" type="qcurve"/>
      <point x="438" y="616" type="line"/>
      <point x="451" y="637"/>
      <point x="463" y="659" type="qcurve"/>
      <point x="477" y="684" type="line"/>
      <point x="483" y="694"/>
      <point x="501" y="694" type="qcurve"/>
      <point x="519" y="694"/>
      <point x="557" y="677"/>
      <point x="557" y="668" type="qcurve"/>
      <point x="557" y="665"/>
      <point x="555" y="663" type="qcurve"/>
      <point x="522" y="625"/>
      <point x="443" y="507"/>
      <point x="348" y="355" type="qcurve"/>
      <point x="402" y="357" type="line"/>
      <point x="413" y="357"/>
      <point x="445" y="361" type="qcurve"/>
      <point x="456" y="362"/>
      <point x="477" y="364"/>
      <point x="485" y="364" type="qcurve"/>
      <point x="497" y="364"/>
      <point x="517" y="334"/>
      <point x="517" y="320" type="qcurve"/>
      <point x="517" y="305"/>
      <point x="505" y="305" type="qcurve"/>
      <point x="403" y="302" type="line"/>
      <point x="329" y="299" type="line"/>
      <point x="329" y="214" type="line"/>
      <point x="402" y="217" type="line"/>
      <point x="416" y="217"/>
      <point x="446" y="221" type="qcurve"/>
      <point x="457" y="222"/>
      <point x="477" y="224"/>
      <point x="485" y="224" type="qcurve"/>
      <point x="497" y="224"/>
      <point x="517" y="194"/>
      <point x="517" y="180" type="qcurve"/>
      <point x="517" y="165"/>
      <point x="505" y="165" type="qcurve"/>
      <point x="403" y="162" type="line"/>
    </contour>
  </outline>
</glyph>
<glyph name="brokenbar" format="2">
  <advance height="1000" width="350"/>
  <unicode hex="00A6"/>
  <outline>
    <contour>
      <point x="140" y="702" type="line"/>
      <point x="209" y="702" type="line"/>
      <point x="209" y="419" type="line"/>
      <point x="140" y="419" type="line"/>
    </contour>
    <contour>
      <point x="140" y="252" type="line"/>
      <point x="209" y="252" type="line"/>
      <point x="209" y="-31" type="line"/>
      <point x="140" y="-31" type="line"/>
    </contour>
  </outline>
</glyph>
<glyph name="section" format="2">
  <advance height="1000" width="675"/>
  <unicode hex="00A7"/>
  <outline>
    <contour>
      <point x="153" y="269"/>
      <point x="73" y="346"/>
      <point x="73" y="403" type="qcurve"/>
      <point x="73" y="447"/>
      <point x="133" y="517"/>
      <point x="189" y="536" type="qcurve"/>
      <point x="138" y="556"/>
      <point x="93" y="618"/>
      <point x="93" y="661" type="qcurve"/>
      <point x="93" y="700"/>
      <point x="152" y="771"/>
      <point x="259" y="814"/>
      <point x="327" y="814" type="qcurve"/>
      <point x="396" y="814"/>
      <point x="509" y="778"/>
      <point x="549" y="747" type="qcurve"/>
      <point x="559" y="738"/>
      <point x="559" y="723" type="qcurve"/>
      <point x="559" y="706"/>
      <point x="540" y="676"/>
      <point x="529" y="676" type="qcurve"/>
      <point x="523" y="676"/>
      <point x="517" y="682" type="qcurve"/>
      <point x="492" y="709"/>
      <point x="401" y="752"/>
      <point x="326" y="752" type="qcurve"/>
      <point x="275" y="752"/>
      <point x="204" y="727"/>
      <point x="168" y="686"/>
      <point x="168" y="663" type="qcurve"/>
      <point x="168" y="639"/>
      <point x="186" y="608"/>
      <point x="239" y="585"/>
      <point x="291" y="574" type="qcurve"/>
      <point x="396" y="553" type="line"/>
      <point x="602" y="513"/>
      <point x="602" y="369" type="qcurve"/>
      <point x="602" y="327"/>
      <point x="559" y="254"/>
      <point x="520" y="230" type="qcurve"/>
      <point x="582" y="180"/>
      <point x="582" y="102" type="qcurve"/>
      <point x="582" y="49"/>
      <point x="518" y="-33"/>
      <point x="401" y="-79"/>
      <point x="324" y="-79" type="qcurve"/>
      <point x="240" y="-79"/>
      <point x="115" y="-29"/>
      <point x="62" y="24" type="qcurve"/>
      <point x="55" y="31"/>
      <point x="55" y="42" type="qcurve"/>
      <point x="55" y="59"/>
      <point x="80" y="92"/>
      <point x="93" y="92" type="qcurve"/>
      <point x="99" y="92"/>
      <point x="105" y="85" type="qcurve"/>
      <point x="129" y="51"/>
      <point x="237" y="-16"/>
      <point x="325" y="-16" type="qcurve"/>
      <point x="409" y="-16"/>
      <point x="507" y="48"/>
      <point x="507" y="101" type="qcurve"/>
      <point x="507" y="153"/>
      <point x="434" y="210"/>
      <point x="351" y="228" type="qcurve"/>
      <point x="245" y="250" type="line"/>
    </contour>
    <contour>
      <point x="420" y="281"/>
      <point x="457" y="265" type="qcurve"/>
      <point x="527" y="295"/>
      <point x="527" y="368" type="qcurve"/>
      <point x="527" y="421"/>
      <point x="457" y="474"/>
      <point x="371" y="492" type="qcurve"/>
      <point x="330" y="500" type="line"/>
      <point x="326" y="500" type="line"/>
      <point x="233" y="500"/>
      <point x="148" y="447"/>
      <point x="148" y="405" type="qcurve"/>
      <point x="148" y="380"/>
      <point x="166" y="347"/>
      <point x="219" y="321"/>
      <point x="271" y="310" type="qcurve"/>
      <point x="376" y="289" type="line"/>
    </contour>
  </outline>
</glyph>
<glyph name="ordfeminine" format="2">
  <advance width="320" height="1000"/>
  <unicode hex="00AA"/>
  <outline>
    <contour>
      <point x="273" y="627"/>
      <point x="273" y="594" type="qcurve"/>
      <point x="273" y="567"/>
      <point x="278" y="536"/>
      <point x="288" y="517" type="qcurve"/>
      <point x="290" y="513"/>
      <point x="290" y="509" type="qcurve"/>
      <point x="290" y="497"/>
      <point x="268" y="470"/>
      <point x="256" y="470" type="qcurve"/>
      <point x="245" y="470"/>
      <point x="232" y="493"/>
      <point x="225" y="523" type="qcurve"/>
      <point x="208" y="497"/>
      <point x="156" y="468"/>
      <point x="130" y="468" type="qcurve"/>
      <point x="87" y="468"/>
      <point x="35" y="525"/>
      <point x="35" y="579" type="qcurve"/>
      <point x="35" y="624"/>
      <point x="76" y="702"/>
      <point x="141" y="748"/>
      <point x="173" y="748" type="qcurve"/>
      <point x="187" y="748"/>
      <point x="215" y="740"/>
      <point x="217" y="738" type="qcurve"/>
      <point x="217" y="731" type="line"/>
      <point x="218" y="735"/>
      <point x="230" y="740"/>
      <point x="239" y="740" type="qcurve"/>
      <point x="254" y="740"/>
      <point x="280" y="728"/>
      <point x="280" y="719" type="qcurve"/>
      <point x="280" y="718" type="line"/>
    </contour>
    <contour>
      <point x="208" y="672"/>
      <point x="204" y="677" type="qcurve"/>
      <point x="193" y="694"/>
      <point x="173" y="694" type="qcurve"/>
      <point x="154" y="694"/>
      <point x="118" y="663"/>
      <point x="95" y="611"/>
      <point x="95" y="581" type="qcurve"/>
      <point x="95" y="550"/>
      <point x="112" y="523"/>
      <point x="130" y="523" type="qcurve"/>
      <point x="164" y="523"/>
      <point x="211" y="580"/>
      <point x="215" y="630" type="qcurve"/>
      <point x="217" y="670" type="line"/>
    </contour>
  </outline>
</glyph>
<glyph name="guillemotleft" format="2">
  <advance height="1000" width="530"/>
  <unicode hex="00AB"/>
  <outline>
    <contour>
      <point x="498" y="33"/>
      <point x="498" y="21" type="qcurve"/>
      <point x="498" y="4"/>
      <point x="481" y="-31"/>
      <point x="471" y="-31" type="qcurve"/>
      <point x="467" y="-31"/>
      <point x="464" y="-27" type="qcurve"/>
      <point x="450" y="-10" type="line"/>
      <point x="426" y="22"/>
      <point x="411" y="37" type="qcurve"/>
      <point x="307" y="147"/>
      <point x="245" y="194" type="qcurve"/>
      <point x="239" y="199"/>
      <point x="231" y="224"/>
      <point x="231" y="236" type="qcurve"/>
      <point x="231" y="248"/>
      <point x="235" y="252" type="qcurve"/>
      <point x="265" y="276" type="line"/>
      <point x="390" y="380"/>
      <point x="462" y="471" type="qcurve"/>
      <point x="465" y="475"/>
      <point x="469" y="475" type="qcurve"/>
      <point x="479" y="475"/>
      <point x="498" y="442"/>
      <point x="498" y="426" type="qcurve"/>
      <point x="498" y="414"/>
      <point x="491" y="408" type="qcurve"/>
      <point x="471" y="389"/>
      <point x="361" y="283"/>
      <point x="298" y="226" type="qcurve"/>
      <point x="373" y="158"/>
      <point x="445" y="85" type="qcurve"/>
      <point x="492" y="39" type="line"/>
    </contour>
    <contour>
      <point x="293" y="33"/>
      <point x="293" y="21" type="qcurve"/>
      <point x="293" y="4"/>
      <point x="276" y="-31"/>
      <point x="266" y="-31" type="qcurve"/>
      <point x="262" y="-31"/>
      <point x="259" y="-27" type="qcurve"/>
      <point x="245" y="-10" type="line"/>
      <point x="221" y="22"/>
      <point x="206" y="37" type="qcurve"/>
      <point x="102" y="147"/>
      <point x="40" y="194" type="qcurve"/>
      <point x="34" y="199"/>
      <point x="26" y="224"/>
      <point x="26" y="236" type="qcurve"/>
      <point x="26" y="248"/>
      <point x="30" y="252" type="qcurve"/>
      <point x="60" y="276" type="line"/>
      <point x="185" y="380"/>
      <point x="257" y="471" type="qcurve"/>
      <point x="260" y="475"/>
      <point x="264" y="475" type="qcurve"/>
      <point x="274" y="475"/>
      <point x="293" y="442"/>
      <point x="293" y="426" type="qcurve"/>
      <point x="293" y="414"/>
      <point x="286" y="408" type="qcurve"/>
      <point x="266" y="389"/>
      <point x="156" y="283"/>
      <point x="93" y="226" type="qcurve"/>
      <point x="168" y="158"/>
      <point x="240" y="85" type="qcurve"/>
      <point x="287" y="39" type="line"/>
    </contour>
  </outline>
</glyph>
<glyph name="logicalnot" format="2">
  <advance width="590" height="1000"/>
  <unicode hex="00AC"/>
  <outline>
    <contour>
      <point x="60" y="294"/>
      <point x="49" y="313"/>
      <point x="49" y="326" type="qcurve"/>
      <point x="49" y="339"/>
      <point x="60" y="358"/>
      <point x="70" y="358" type="qcurve"/>
      <point x="457" y="358" type="line"/>
      <point x="481" y="358"/>
      <point x="508" y="331"/>
      <point x="508" y="307" type="qcurve"/>
      <point x="508" y="106" type="line"/>
      <point x="508" y="96"/>
      <point x="489" y="85"/>
      <point x="476" y="85" type="qcurve"/>
      <point x="463" y="85"/>
      <point x="444" y="96"/>
      <point x="444" y="106" type="qcurve"/>
      <point x="444" y="294" type="line"/>
      <point x="70" y="294" type="line"/>
    </contour>
  </outline>
</glyph>
<glyph name="registered" format="2">
  <advance height="1000" width="780"/>
  <unicode hex="00AE"/>
  <outline>
    <contour>
      <point x="735" y="228"/>
      <point x="642" y="70"/>
      <point x="484" y="-22"/>
      <point x="391" y="-22" type="qcurve"/>
      <point x="298" y="-22"/>
      <point x="140" y="70"/>
      <point x="48" y="228"/>
      <point x="48" y="321" type="qcurve"/>
      <point x="48" y="414"/>
      <point x="140" y="572"/>
      <point x="298" y="664"/>
      <point x="391" y="664" type="qcurve"/>
      <point x="484" y="664"/>
      <point x="642" y="572"/>
      <point x="735" y="414"/>
      <point x="735" y="321" type="qcurve"/>
    </contour>
    <contour>
      <point x="682" y="400"/>
      <point x="604" y="533"/>
      <point x="471" y="611"/>
      <point x="392" y="611" type="qcurve"/>
      <point x="313" y="611"/>
      <point x="180" y="533"/>
      <point x="102" y="400"/>
      <point x="102" y="321" type="qcurve"/>
      <point x="102" y="242"/>
      <point x="180" y="109"/>
      <point x="313" y="31"/>
      <point x="392" y="31" type="qcurve"/>
      <point x="471" y="31"/>
      <point x="604" y="109"/>
      <point x="682" y="242"/>
      <point x="682" y="321" type="qcurve"/>
    </contour>
    <contour>
      <point x="256" y="484"/>
      <point x="244" y="509"/>
      <point x="244" y="519" type="qcurve"/>
      <point x="244" y="532"/>
      <point x="253" y="533" type="qcurve"/>
      <point x="274" y="535"/>
      <point x="315" y="544" type="qcurve"/>
      <point x="349" y="552"/>
      <point x="405" y="552" type="qcurve"/>
      <point x="478" y="552"/>
      <point x="548" y="488"/>
      <point x="548" y="443" type="qcurve"/>
      <point x="548" y="389"/>
      <point x="459" y="320"/>
      <point x="393" y="315" type="qcurve"/>
      <point x="418" y="288"/>
      <point x="439" y="262" type="qcurve"/>
      <point x="498" y="195"/>
      <point x="521" y="171" type="qcurve"/>
      <point x="545" y="147"/>
      <point x="561" y="141" type="qcurve"/>
      <point x="575" y="136"/>
      <point x="592" y="123"/>
      <point x="592" y="117" type="qcurve"/>
      <point x="592" y="105"/>
      <point x="560" y="105" type="qcurve"/>
      <point x="543" y="105"/>
      <point x="510" y="113"/>
      <point x="492" y="127" type="qcurve"/>
      <point x="469" y="145"/>
      <point x="427" y="192"/>
      <point x="391" y="235" type="qcurve"/>
      <point x="364" y="270"/>
      <point x="344" y="290" type="qcurve"/>
      <point x="334" y="300"/>
      <point x="325" y="304" type="qcurve"/>
      <point x="325" y="188" type="line"/>
      <point x="326" y="118" type="line"/>
      <point x="326" y="108"/>
      <point x="304" y="108" type="qcurve"/>
      <point x="289" y="108"/>
      <point x="263" y="119"/>
      <point x="263" y="129" type="qcurve"/>
      <point x="264" y="188" type="line"/>
      <point x="264" y="480" type="line"/>
    </contour>
    <contour>
      <point x="327" y="363"/>
      <point x="332" y="363" type="qcurve"/>
      <point x="336" y="363"/>
      <point x="338" y="362" type="qcurve"/>
      <point x="346" y="361"/>
      <point x="362" y="361" type="qcurve"/>
      <point x="421" y="361"/>
      <point x="487" y="408"/>
      <point x="487" y="441" type="qcurve"/>
      <point x="487" y="496"/>
      <point x="404" y="496" type="qcurve"/>
      <point x="357" y="496"/>
      <point x="325" y="485" type="qcurve"/>
      <point x="325" y="361" type="line"/>
    </contour>
  </outline>
</glyph>
<glyph name="macron" format="2">
  <advance height="1000" width="500"/>
  <unicode hex="00AF"/>
  <outline>
    <contour>
      <point x="126" y="602"/>
      <point x="114" y="620"/>
      <point x="114" y="633" type="qcurve"/>
      <point x="114" y="645"/>
      <point x="127" y="664"/>
      <point x="138" y="664" type="qcurve"/>
      <point x="366" y="664" type="line"/>
      <point x="376" y="664"/>
      <point x="388" y="646"/>
      <point x="388" y="633" type="qcurve"/>
      <point x="388" y="621"/>
      <point x="376" y="602"/>
      <point x="365" y="602" type="qcurve"/>
      <point x="137" y="602" type="line"/>
    </contour>
  </outline>
</glyph>
<glyph name="degree" format="2">
  <advance height="1000" width="320"/>
  <unicode hex="00B0"/>
  <outline>
    <contour>
      <point x="292" y="574"/>
      <point x="257" y="513"/>
      <point x="196" y="477"/>
      <point x="160" y="477" type="qcurve"/>
      <point x="125" y="477"/>
      <point x="64" y="512"/>
      <point x="28" y="572"/>
      <point x="28" y="609" type="qcurve"/>
      <point x="28" y="644"/>
      <point x="63" y="705"/>
      <point x="123" y="741"/>
      <point x="160" y="741" type="qcurve"/>
      <point x="195" y="741"/>
      <point x="256" y="705"/>
      <point x="292" y="645"/>
      <point x="292" y="609" type="qcurve"/>
    </contour>
    <contour>
      <point x="190" y="533"/>
      <point x="236" y="579"/>
      <point x="236" y="610" type="qcurve"/>
      <point x="236" y="641"/>
      <point x="193" y="685"/>
      <point x="160" y="685" type="qcurve"/>
      <point x="129" y="685"/>
      <point x="84" y="642"/>
      <point x="84" y="610" type="qcurve"/>
      <point x="84" y="578"/>
      <point x="127" y="533"/>
      <point x="160" y="533" type="qcurve"/>
    </contour>
  </outline>
</glyph>
<glyph name="plusminus" format="2">
  <advance width="600" height="1000"/>
  <unicode hex="00B1"/>
  <outline>
    <contour>
      <point x="542" y="350"/>
      <point x="558" y="323"/>
      <point x="558" y="308" type="qcurve"/>
      <point x="558" y="297"/>
      <point x="549" y="283"/>
      <point x="540" y="283" type="qcurve"/>
      <point x="492" y="284" type="line"/>
      <point x="480" y="285"/>
      <point x="459" y="285" type="qcurve"/>
      <point x="329" y="285" type="line"/>
      <point x="329" y="206" type="line"/>
      <point x="330" y="128" type="line"/>
      <point x="330" y="119"/>
      <point x="313" y="109"/>
      <point x="302" y="109" type="qcurve"/>
      <point x="287" y="109"/>
      <point x="264" y="122"/>
      <point x="264" y="133" type="qcurve"/>
      <point x="264" y="135" type="line"/>
      <point x="267" y="177"/>
      <point x="267" y="205" type="qcurve"/>
      <point x="267" y="285" type="line"/>
      <point x="140" y="285" type="line"/>
      <point x="89" y="285"/>
      <point x="65" y="282" type="qcurve"/>
      <point x="63" y="282" type="line"/>
      <point x="53" y="282"/>
      <point x="40" y="308"/>
      <point x="40" y="323" type="qcurve"/>
      <point x="40" y="349"/>
      <point x="59" y="349" type="qcurve"/>
      <point x="99" y="347"/>
      <point x="141" y="347" type="qcurve"/>
      <point x="267" y="347" type="line"/>
      <point x="267" y="400" type="line"/>
      <point x="267" y="442"/>
      <point x="265" y="482" type="qcurve"/>
      <point x="265" y="501"/>
      <point x="291" y="501" type="qcurve"/>
      <point x="306" y="501"/>
      <point x="332" y="488"/>
      <point x="332" y="478" type="qcurve"/>
      <point x="332" y="476" type="line"/>
      <point x="329" y="452"/>
      <point x="329" y="401" type="qcurve"/>
      <point x="329" y="347" type="line"/>
      <point x="460" y="347" type="line"/>
      <point x="488" y="347"/>
      <point x="530" y="350" type="qcurve"/>
      <point x="531" y="350" type="line"/>
    </contour>
    <contour>
      <point x="542" y="76"/>
      <point x="558" y="49"/>
      <point x="558" y="34" type="qcurve"/>
      <point x="558" y="23"/>
      <point x="549" y="9"/>
      <point x="540" y="9" type="qcurve"/>
      <point x="492" y="10" type="line"/>
      <point x="480" y="11"/>
      <point x="459" y="11" type="qcurve"/>
      <point x="140" y="11" type="line"/>
      <point x="89" y="11"/>
      <point x="65" y="8" type="qcurve"/>
      <point x="63" y="8" type="line"/>
      <point x="53" y="8"/>
      <point x="40" y="34"/>
      <point x="40" y="49" type="qcurve"/>
      <point x="40" y="75"/>
      <point x="59" y="75" type="qcurve"/>
      <point x="99" y="73"/>
      <point x="141" y="73" type="qcurve"/>
      <point x="460" y="73" type="line"/>
      <point x="488" y="73"/>
      <point x="530" y="76" type="qcurve"/>
      <point x="531" y="76" type="line"/>
    </contour>
  </outline>
</glyph>
<glyph name="uni00B2" format="2">
  <advance width="380" height="1000"/>
  <unicode hex="00B2"/>
  <outline>
    <contour>
      <point x="153" y="375"/>
      <point x="187" y="375" type="qcurve"/>
      <point x="262" y="374" type="line"/>
      <point x="271" y="374"/>
      <point x="289" y="376"/>
      <point x="295" y="376" type="qcurve"/>
      <point x="307" y="376"/>
      <point x="323" y="351"/>
      <point x="323" y="337" type="qcurve"/>
      <point x="323" y="328"/>
      <point x="314" y="315"/>
      <point x="305" y="315" type="qcurve"/>
      <point x="261" y="316" type="line"/>
      <point x="241" y="316"/>
      <point x="229" y="317" type="qcurve"/>
      <point x="183" y="318" type="line"/>
      <point x="156" y="318"/>
      <point x="112" y="316"/>
      <point x="91" y="312" type="qcurve"/>
      <point x="86" y="311" type="line"/>
      <point x="72" y="311"/>
      <point x="52" y="338"/>
      <point x="52" y="353" type="qcurve"/>
      <point x="52" y="362"/>
      <point x="56" y="367" type="qcurve"/>
      <point x="59" y="371"/>
      <point x="66" y="378"/>
      <point x="68" y="381" type="qcurve"/>
      <point x="83" y="406"/>
      <point x="149" y="476"/>
      <point x="189" y="509" type="qcurve"/>
      <point x="227" y="539"/>
      <point x="261" y="578"/>
      <point x="261" y="598" type="qcurve"/>
      <point x="261" y="619"/>
      <point x="234" y="636"/>
      <point x="205" y="636" type="qcurve"/>
      <point x="178" y="636"/>
      <point x="146" y="614"/>
      <point x="134" y="591" type="qcurve"/>
      <point x="121" y="567"/>
      <point x="108" y="567" type="qcurve"/>
      <point x="101" y="567"/>
      <point x="93" y="574" type="qcurve"/>
      <point x="76" y="591"/>
      <point x="76" y="606" type="qcurve"/>
      <point x="76" y="618"/>
      <point x="108" y="661"/>
      <point x="168" y="694"/>
      <point x="208" y="694" type="qcurve"/>
      <point x="264" y="694"/>
      <point x="322" y="644"/>
      <point x="322" y="598" type="qcurve"/>
      <point x="322" y="563"/>
      <point x="272" y="499"/>
      <point x="225" y="463" type="qcurve"/>
      <point x="163" y="414"/>
      <point x="133" y="374" type="qcurve"/>
    </contour>
  </outline>
</glyph>
<glyph name="uni00B3" format="2">
  <advance height="1000" width="380"/>
  <unicode hex="00B3"/>
  <outline>
    <contour>
      <point x="284" y="515"/>
      <point x="319" y="466"/>
      <point x="319" y="436" type="qcurve"/>
      <point x="319" y="377"/>
      <point x="251" y="306"/>
      <point x="178" y="306" type="qcurve"/>
      <point x="149" y="306"/>
      <point x="90" y="327"/>
      <point x="52" y="356"/>
      <point x="52" y="368" type="qcurve"/>
      <point x="52" y="381"/>
      <point x="71" y="407"/>
      <point x="82" y="407" type="qcurve"/>
      <point x="89" y="407"/>
      <point x="96" y="400" type="qcurve"/>
      <point x="129" y="364"/>
      <point x="178" y="364" type="qcurve"/>
      <point x="219" y="364"/>
      <point x="260" y="400"/>
      <point x="260" y="432" type="qcurve"/>
      <point x="260" y="458"/>
      <point x="228" y="488"/>
      <point x="200" y="488" type="qcurve"/>
      <point x="178" y="488"/>
      <point x="157" y="481" type="qcurve"/>
      <point x="152" y="480" type="line"/>
      <point x="142" y="480"/>
      <point x="125" y="505"/>
      <point x="125" y="518" type="qcurve"/>
      <point x="125" y="534"/>
      <point x="137" y="535" type="qcurve"/>
      <point x="175" y="538"/>
      <point x="248" y="573"/>
      <point x="248" y="604" type="qcurve"/>
      <point x="248" y="622"/>
      <point x="224" y="639"/>
      <point x="199" y="639" type="qcurve"/>
      <point x="174" y="639"/>
      <point x="139" y="622"/>
      <point x="124" y="602" type="qcurve"/>
      <point x="111" y="587"/>
      <point x="101" y="587" type="qcurve"/>
      <point x="93" y="587"/>
      <point x="73" y="615"/>
      <point x="73" y="628" type="qcurve"/>
      <point x="73" y="639"/>
      <point x="107" y="671"/>
      <point x="165" y="695"/>
      <point x="198" y="695" type="qcurve"/>
      <point x="250" y="695"/>
      <point x="306" y="648"/>
      <point x="306" y="606" type="qcurve"/>
      <point x="306" y="582"/>
      <point x="279" y="538"/>
      <point x="257" y="525" type="qcurve"/>
    </contour>
  </outline>
</glyph>
<glyph name="uni00B5" format="2">
  <advance height="1000" width="590"/>
  <unicode hex="00B5"/>
  <outline>
    <contour>
      <point x="91" y="391" type="line"/>
      <point x="89" y="459" type="line"/>
      <point x="89" y="469"/>
      <point x="108" y="469" type="qcurve"/>
      <point x="126" y="469"/>
      <point x="161" y="453"/>
      <point x="161" y="441" type="qcurve"/>
      <point x="161" y="420"/>
      <point x="160" y="404" type="qcurve"/>
      <point x="159" y="353" type="line"/>
      <point x="159" y="168" type="line"/>
      <point x="159" y="109"/>
      <point x="204" y="29"/>
      <point x="248" y="29" type="qcurve"/>
      <point x="293" y="29"/>
      <point x="371" y="94"/>
      <point x="420" y="211"/>
      <point x="424" y="286" type="qcurve"/>
      <point x="427" y="348"/>
      <point x="427" y="460" type="qcurve"/>
      <point x="427" y="470"/>
      <point x="447" y="470" type="qcurve"/>
      <point x="465" y="470"/>
      <point x="500" y="455"/>
      <point x="500" y="444" type="qcurve"/>
      <point x="500" y="442" type="line"/>
      <point x="496" y="418"/>
      <point x="488" y="298"/>
      <point x="488" y="222" type="qcurve"/>
      <point x="488" y="176"/>
      <point x="502" y="59"/>
      <point x="526" y="20" type="qcurve"/>
      <point x="528" y="16"/>
      <point x="528" y="14" type="qcurve"/>
      <point x="528" y="2"/>
      <point x="500" y="-28"/>
      <point x="484" y="-28" type="qcurve"/>
      <point x="463" y="-28"/>
      <point x="433" y="50"/>
      <point x="429" y="92" type="qcurve"/>
      <point x="400" y="35"/>
      <point x="308" y="-33"/>
      <point x="248" y="-33" type="qcurve"/>
      <point x="220" y="-33"/>
      <point x="173" y="-5"/>
      <point x="158" y="16" type="qcurve"/>
      <point x="158" y="-78" type="line"/>
      <point x="159" y="-116" type="line"/>
      <point x="161" y="-184" type="line"/>
      <point x="161" y="-194"/>
      <point x="141" y="-194" type="qcurve"/>
      <point x="123" y="-194"/>
      <point x="90" y="-178"/>
      <point x="90" y="-166" type="qcurve"/>
      <point x="92" y="-78" type="line"/>
      <point x="92" y="353" type="line"/>
    </contour>
  </outline>
</glyph>
